Playfair.glyphspackage
{
color = 5;
glyphname = quotedbl;
kernLeft = KO_quotedbl;
kernRight = KO_quotedbl;
layers = (
{
layerId = "DF17D77B-A5C4-4843-826A-BC0F1C4CB224";
shapes = (
{
closed = 1;
nodes = (
(
265.5,
448,
l
),
(
288.5,
575,
o
),
(
319.5,
614,
o
),
(
319.5,
664,
cs
),
(
319.5,
705,
o
),
(
298.5,
730,
o
),
(
265.5,
730,
cs
),
(
232.5,
730,
o
),
(
211.5,
704,
o
),
(
211.5,
662,
cs
),
(
211.5,
613,
o
),
(
241.5,
575,
o
),
(
264.5,
448,
c
)
);
},
{
closed = 1;
nodes = (
(
434.5,
448,
l
),
(
457.5,
575,
o
),
(
488.5,
614,
o
),
(
488.5,
664,
cs
),
(
488.5,
705,
o
),
(
467.5,
730,
o
),
(
434.5,
730,
cs
),
(
401.5,
730,
o
),
(
380.5,
704,
o
),
(
380.5,
662,
cs
),
(
380.5,
613,
o
),
(
410.5,
575,
o
),
(
433.5,
448,
c
)
);
}
);
width = 700;
},
{
layerId = "7300F074-2CFD-43CC-B20F-1BF1EAE6C2C7";
shapes = (
{
closed = 1;
nodes = (
(
292.5,
428,
l
),
(
292.5,
535,
o
),
(
319.5,
611,
o
),
(
319.5,
689,
cs
),
(
319.5,
734,
o
),
(
300.5,
760,
o
),
(
265.5,
760,
cs
),
(
230.5,
760,
o
),
(
211.5,
734,
o
),
(
211.5,
688,
cs
),
(
211.5,
614,
o
),
(
234.5,
536,
o
),
(
238.5,
428,
c
)
);
},
{
closed = 1;
nodes = (
(
461.5,
428,
l
),
(
461.5,
535,
o
),
(
488.5,
611,
o
),
(
488.5,
689,
cs
),
(
488.5,
734,
o
),
(
469.5,
760,
o
),
(
434.5,
760,
cs
),
(
399.5,
760,
o
),
(
380.5,
734,
o
),
(
380.5,
688,
cs
),
(
380.5,
614,
o
),
(
403.5,
536,
o
),
(
407.5,
428,
c
)
);
}
);
width = 700;
},
{
layerId = "F497C50F-30EB-4580-9148-0005B36D0333";
shapes = (
{
closed = 1;
nodes = (
(
238.5,
438,
l
),
(
281.5,
545,
o
),
(
331.5,
581,
o
),
(
331.5,
643,
cs
),
(
331.5,
694,
o
),
(
292.5,
730,
o
),
(
237.5,
730,
cs
),
(
182.5,
730,
o
),
(
143.5,
693,
o
),
(
143.5,
642,
cs
),
(
143.5,
580,
o
),
(
192.5,
545,
o
),
(
236.5,
438,
c
)
);
},
{
closed = 1;
nodes = (
(
463.5,
438,
l
),
(
506.5,
545,
o
),
(
556.5,
581,
o
),
(
556.5,
643,
cs
),
(
556.5,
694,
o
),
(
517.5,
730,
o
),
(
462.5,
730,
cs
),
(
407.5,
730,
o
),
(
368.5,
693,
o
),
(
368.5,
642,
cs
),
(
368.5,
580,
o
),
(
417.5,
545,
o
),
(
461.5,
438,
c
)
);
}
);
width = 700;
},
{
layerId = "29EF49B2-C370-4E88-B36E-A4ACD23E3F3A";
shapes = (
{
closed = 1;
nodes = (
(
256,
428,
l
),
(
285,
543,
o
),
(
323,
600,
o
),
(
323,
668,
cs
),
(
323,
732,
o
),
(
288,
770,
o
),
(
229,
770,
cs
),
(
170,
770,
o
),
(
135,
732,
o
),
(
135,
667,
cs
),
(
135,
599,
o
),
(
172,
543,
o
),
(
202,
428,
c
)
);
},
{
closed = 1;
nodes = (
(
498,
428,
l
),
(
527,
543,
o
),
(
565,
600,
o
),
(
565,
668,
cs
),
(
565,
732,
o
),
(
530,
770,
o
),
(
471,
770,
cs
),
(
412,
770,
o
),
(
377,
732,
o
),
(
377,
667,
cs
),
(
377,
599,
o
),
(
414,
543,
o
),
(
444,
428,
c
)
);
}
);
width = 700;
}
);
metricLeft = quotesingle;
metricRight = quotesingle;
unicode = 34;
userData = {
KernOnSpecialSpacing = {
L = quotes;
R = quotes;
};
};
}
{
color = 4;
glyphname = numbersign;
layers = (
{
layerId = "DF17D77B-A5C4-4843-826A-BC0F1C4CB224";
shapes = (
{
closed = 1;
nodes = (
(
438.5,
26,
l
),
(
562.5,
666,
l
),
(
472.5,
641,
l
),
(
348.5,
0,
l
)
);
},
{
closed = 1;
nodes = (
(
568.5,
193,
l
),
(
568.5,
194,
l
),
(
65.5,
54,
l
),
(
65.5,
53,
l
)
);
},
{
closed = 1;
nodes = (
(
231.5,
-32,
l
),
(
355.5,
609,
l
),
(
265.5,
584,
l
),
(
141.5,
-57,
l
)
);
},
{
closed = 1;
nodes = (
(
633.5,
532,
l
),
(
633.5,
533,
l
),
(
131.5,
393,
l
),
(
131.5,
392,
l
)
);
}
);
width = 700;
},
{
layerId = "7300F074-2CFD-43CC-B20F-1BF1EAE6C2C7";
shapes = (
{
closed = 1;
nodes = (
(
436,
25,
l
),
(
559,
665,
l
),
(
479,
643,
l
),
(
356,
3,
l
)
);
},
{
closed = 1;
nodes = (
(
589,
188,
l
),
(
603,
262,
l
),
(
53,
109,
l
),
(
39,
35,
l
)
);
},
{
closed = 1;
nodes = (
(
222,
-35,
l
),
(
345,
606,
l
),
(
265,
583,
l
),
(
142,
-57,
l
)
);
},
{
closed = 1;
nodes = (
(
647,
491,
l
),
(
661,
565,
l
),
(
111,
412,
l
),
(
97,
338,
l
)
);
}
);
width = 700;
},
{
layerId = "F497C50F-30EB-4580-9148-0005B36D0333";
shapes = (
{
closed = 1;
nodes = (
(
476.671,
41,
l
),
(
586.129,
682,
l
),
(
471.375,
645,
l
),
(
361.917,
5,
l
)
);
},
{
closed = 1;
nodes = (
(
591.425,
209,
l
),
(
591.425,
210,
l
),
(
50.315,
39,
l
),
(
50.315,
38,
l
)
);
},
{
closed = 1;
nodes = (
(
232.156,
-36,
l
),
(
341.614,
605,
l
),
(
226.86,
568,
l
),
(
117.402,
-72,
l
)
);
},
{
closed = 1;
nodes = (
(
649.685,
547,
l
),
(
649.685,
548,
l
),
(
108.575,
377,
l
),
(
108.575,
376,
l
)
);
}
);
width = 700;
},
{
layerId = "29EF49B2-C370-4E88-B36E-A4ACD23E3F3A";
shapes = (
{
closed = 1;
nodes = (
(
475.472,
41,
l
),
(
584.654,
681,
l
),
(
470.189,
645,
l
),
(
361.006,
4,
l
)
);
},
{
closed = 1;
nodes = (
(
610.189,
204,
l
),
(
622.516,
277,
l
),
(
38.742,
93,
l
),
(
26.415,
19,
l
)
);
},
{
closed = 1;
nodes = (
(
231.572,
-36,
l
),
(
340.755,
604,
l
),
(
226.289,
568,
l
),
(
117.107,
-73,
l
)
);
},
{
closed = 1;
nodes = (
(
661.258,
507,
l
),
(
673.585,
581,
l
),
(
89.811,
396,
l
),
(
77.484,
323,
l
)
);
}
);
width = 700;
}
);
unicode = 35;
userData = {
KernOnSpecialSpacing = {};
};
}
{
color = 4;
glyphname = ampersand;
kernRight = KO_ampersand;
layers = (
{
layerId = "DF17D77B-A5C4-4843-826A-BC0F1C4CB224";
shapes = (
{
closed = 1;
nodes = (
(
334.522,
-14,
o
),
(
421.706,
104,
o
),
(
477.933,
341,
c
),
(
477.301,
341,
l
),
(
421.706,
127,
o
),
(
343.366,
20,
o
),
(
242.915,
20,
cs
),
(
146.255,
20,
o
),
(
83.078,
120,
o
),
(
83.078,
273,
cs
),
(
83.078,
401,
o
),
(
126.67,
527,
o
),
(
171.525,
527,
cs
),
(
192.374,
527,
o
),
(
203.114,
500,
o
),
(
203.114,
446,
cs
),
(
203.114,
360,
o
),
(
175.948,
288,
o
),
(
129.829,
250,
c
),
(
129.829,
249,
l
),
(
282.085,
356,
o
),
(
392.644,
519,
o
),
(
392.644,
637,
cs
),
(
392.644,
682,
o
),
(
377.482,
712,
o
),
(
354.738,
712,
cs
),
(
337.681,
712,
o
),
(
325.677,
695,
o
),
(
325.677,
670,
cs
),
(
325.677,
625,
o
),
(
364.847,
599,
o
),
(
364.847,
555,
cs
),
(
364.847,
482,
o
),
(
259.973,
344,
o
),
(
135.514,
254,
c
),
(
136.146,
254,
l
),
(
211.958,
333,
o
),
(
244.179,
390,
o
),
(
244.179,
445,
cs
),
(
244.179,
496,
o
),
(
217.644,
528,
o
),
(
175.316,
528,
cs
),
(
93.186,
528,
o
),
(
27.482,
405,
o
),
(
27.482,
253,
cs
),
(
27.482,
92,
o
),
(
102.031,
-14,
o
),
(
215.117,
-14,
cs
)
);
},
{
closed = 1;
nodes = (
(
349.052,
163,
o
),
(
362.319,
183,
o
),
(
362.319,
209,
cs
),
(
362.319,
255,
o
),
(
317.464,
294,
o
),
(
317.464,
319,
cs
),
(
317.464,
338,
o
),
(
343.998,
348,
o
),
(
393.908,
348,
cs
),
(
495.623,
348,
o
),
(
519.63,
304,
o
),
(
579.648,
304,
cs
),
(
635.875,
304,
o
),
(
672.518,
344,
o
),
(
672.518,
404,
cs
),
(
672.518,
436,
o
),
(
662.41,
456,
o
),
(
645.352,
456,
cs
),
(
599.233,
456,
o
),
(
623.872,
305,
o
),
(
574.594,
305,
cs
),
(
534.792,
305,
o
),
(
481.724,
406,
o
),
(
412.861,
406,
cs
),
(
351.579,
406,
o
),
(
297.879,
326,
o
),
(
297.879,
234,
cs
),
(
297.879,
190,
o
),
(
310.514,
163,
o
),
(
330.731,
163,
cs
)
);
}
);
width = 700;
},
{
guides = (
{
angle = 74.4;
pos = (
-18.47,
150
);
},
{
angle = 74.4;
pos = (
42.263,
150
);
},
{
angle = 74.4;
pos = (
148.077,
385
);
},
{
angle = 74.4;
pos = (
139.937,
150
);
},
{
angle = 74.4;
pos = (
177.504,
-150
);
},
{
angle = 74.4;
pos = (
153.086,
-150
);
},
{
angle = 74.4;
pos = (
349.061,
-150
);
},
{
angle = 74.4;
pos = (
616.413,
91
);
},
{
angle = 74.4;
pos = (
209.436,
-150
);
},
{
angle = 74.4;
pos = (
285.823,
-150
);
},
{
angle = 74.4;
pos = (
137.433,
150
);
}
);
layerId = "7300F074-2CFD-43CC-B20F-1BF1EAE6C2C7";
shapes = (
{
closed = 1;
nodes = (
(
367.844,
-14,
o
),
(
458.005,
104,
o
),
(
492.442,
327,
c
),
(
451.118,
339,
l
),
(
424.195,
157,
o
),
(
355.948,
65,
o
),
(
246.377,
65,
cs
),
(
146.199,
65,
o
),
(
85.465,
143,
o
),
(
85.465,
272,
cs
),
(
85.465,
374,
o
),
(
123.032,
461,
o
),
(
166.86,
461,
cs
),
(
185.644,
461,
o
),
(
195.662,
446,
o
),
(
195.662,
417,
cs
),
(
195.662,
366,
o
),
(
163.73,
312,
o
),
(
121.154,
290,
c
),
(
138.059,
224,
l
),
(
297.719,
340,
o
),
(
407.916,
503,
o
),
(
407.916,
623,
cs
),
(
407.916,
674,
o
),
(
386.002,
712,
o
),
(
357.2,
712,
cs
),
(
334.034,
712,
o
),
(
316.503,
686,
o
),
(
316.503,
652,
cs
),
(
316.503,
615,
o
),
(
337.165,
593,
o
),
(
337.165,
555,
cs
),
(
337.165,
500,
o
),
(
293.336,
432,
o
),
(
194.41,
333,
c
),
(
209.436,
329,
l
),
(
234.481,
375,
o
),
(
245.125,
409,
o
),
(
245.125,
443,
cs
),
(
245.125,
496,
o
),
(
219.454,
528,
o
),
(
176.878,
528,
cs
),
(
94.857,
528,
o
),
(
30.367,
408,
o
),
(
30.367,
254,
cs
),
(
30.367,
87,
o
),
(
106.127,
-14,
o
),
(
231.977,
-14,
cs
)
);
},
{
closed = 1;
nodes = (
(
362.209,
153,
o
),
(
375.984,
173,
o
),
(
375.984,
202,
cs
),
(
375.984,
231,
o
),
(
361.583,
249,
o
),
(
361.583,
278,
cs
),
(
361.583,
310,
o
),
(
380.367,
328,
o
),
(
414.177,
328,
cs
),
(
451.118,
328,
o
),
(
520.617,
307,
o
),
(
565.698,
307,
cs
),
(
628.309,
307,
o
),
(
669.633,
348,
o
),
(
669.633,
410,
cs
),
(
669.633,
445,
o
),
(
657.111,
466,
o
),
(
636.449,
466,
cs
),
(
593.873,
466,
o
),
(
610.152,
375,
o
),
(
560.689,
375,
cs
),
(
531.887,
375,
o
),
(
485.555,
406,
o
),
(
431.082,
406,
cs
),
(
351.565,
406,
o
),
(
299.597,
341,
o
),
(
299.597,
241,
cs
),
(
299.597,
186,
o
),
(
315.25,
153,
o
),
(
341.547,
153,
cs
)
);
}
);
width = 700;
},
{
layerId = "F497C50F-30EB-4580-9148-0005B36D0333";
shapes = (
{
closed = 1;
nodes = (
(
360.366,
-14,
o
),
(
441.463,
96,
o
),
(
485.366,
337,
c
),
(
484.756,
337,
l
),
(
450,
164,
o
),
(
380.488,
75,
o
),
(
280.488,
75,
cs
),
(
185.976,
75,
o
),
(
134.756,
155,
o
),
(
134.756,
304,
cs
),
(
134.756,
416,
o
),
(
164.634,
531,
o
),
(
193.902,
531,
cs
),
(
206.707,
531,
o
),
(
214.024,
507,
o
),
(
214.024,
465,
cs
),
(
214.024,
391,
o
),
(
190.854,
306,
o
),
(
155.488,
250,
c
),
(
155.488,
249,
l
),
(
303.049,
358,
o
),
(
409.146,
517,
o
),
(
409.146,
630,
cs
),
(
409.146,
678,
o
),
(
390.244,
712,
o
),
(
364.024,
712,
cs
),
(
342.073,
712,
o
),
(
326.22,
689,
o
),
(
326.22,
656,
cs
),
(
326.22,
605,
o
),
(
363.415,
566,
o
),
(
363.415,
519,
cs
),
(
363.415,
471,
o
),
(
321.951,
405,
o
),
(
241.463,
324,
c
),
(
241.463,
323,
l
),
(
275.61,
372,
o
),
(
290.244,
408,
o
),
(
290.244,
444,
cs
),
(
290.244,
499,
o
),
(
255.488,
533,
o
),
(
200,
533,
cs
),
(
96.951,
533,
o
),
(
20.122,
412,
o
),
(
20.122,
248,
cs
),
(
20.122,
86,
o
),
(
98.78,
-14,
o
),
(
226.829,
-14,
cs
)
);
},
{
closed = 1;
nodes = (
(
369.512,
152,
o
),
(
385.976,
176,
o
),
(
385.976,
208,
cs
),
(
385.976,
277,
o
),
(
315.244,
308,
o
),
(
315.244,
329,
cs
),
(
315.244,
341,
o
),
(
349.39,
348,
o
),
(
397.561,
348,
cs
),
(
469.512,
348,
o
),
(
510.976,
308,
o
),
(
565.854,
308,
cs
),
(
631.098,
308,
o
),
(
679.878,
363,
o
),
(
679.878,
436,
cs
),
(
679.878,
475,
o
),
(
665.854,
498,
o
),
(
642.073,
498,
cs
),
(
576.22,
498,
o
),
(
603.659,
309,
o
),
(
572.561,
309,
cs
),
(
547.561,
309,
o
),
(
509.756,
438,
o
),
(
437.195,
438,
cs
),
(
367.073,
438,
o
),
(
296.341,
340,
o
),
(
296.341,
243,
cs
),
(
296.341,
191,
o
),
(
317.683,
152,
o
),
(
346.951,
152,
cs
)
);
}
);
width = 700;
},
{
layerId = "29EF49B2-C370-4E88-B36E-A4ACD23E3F3A";
shapes = (
{
closed = 1;
nodes = (
(
368.293,
-14,
o
),
(
454.268,
97,
o
),
(
500.61,
337,
c
),
(
462.805,
349,
l
),
(
429.268,
172,
o
),
(
366.463,
85,
o
),
(
273.78,
85,
cs
),
(
186.585,
85,
o
),
(
134.756,
163,
o
),
(
134.756,
293,
cs
),
(
134.756,
385,
o
),
(
162.195,
466,
o
),
(
193.293,
466,
cs
),
(
206.707,
466,
o
),
(
214.024,
451,
o
),
(
214.024,
423,
cs
),
(
214.024,
372,
o
),
(
187.805,
322,
o
),
(
150,
288,
c
),
(
171.951,
224,
l
),
(
306.098,
339,
o
),
(
409.146,
509,
o
),
(
409.146,
628,
cs
),
(
409.146,
678,
o
),
(
390.854,
712,
o
),
(
363.415,
712,
cs
),
(
341.463,
712,
o
),
(
326.22,
690,
o
),
(
326.22,
658,
cs
),
(
326.22,
622,
o
),
(
345.122,
597,
o
),
(
345.122,
561,
cs
),
(
345.122,
508,
o
),
(
303.659,
437,
o
),
(
221.341,
349,
c
),
(
243.293,
329,
l
),
(
276.22,
375,
o
),
(
290.244,
409,
o
),
(
290.244,
444,
cs
),
(
290.244,
499,
o
),
(
255.488,
533,
o
),
(
200,
533,
cs
),
(
96.951,
533,
o
),
(
20.122,
412,
o
),
(
20.122,
249,
cs
),
(
20.122,
85,
o
),
(
98.78,
-14,
o
),
(
229.268,
-14,
cs
)
);
},
{
closed = 1;
nodes = (
(
368.293,
152,
o
),
(
385.976,
180,
o
),
(
385.976,
218,
cs
),
(
385.976,
262,
o
),
(
363.415,
302,
o
),
(
363.415,
322,
cs
),
(
363.415,
338,
o
),
(
381.098,
348,
o
),
(
409.756,
348,
cs
),
(
470.122,
348,
o
),
(
510.366,
308,
o
),
(
565.854,
308,
cs
),
(
631.098,
308,
o
),
(
679.878,
363,
o
),
(
679.878,
436,
cs
),
(
679.878,
475,
o
),
(
665.854,
498,
o
),
(
642.073,
498,
cs
),
(
587.195,
498,
o
),
(
604.878,
376,
o
),
(
574.39,
376,
cs
),
(
552.439,
376,
o
),
(
504.878,
438,
o
),
(
442.683,
438,
cs
),
(
367.073,
438,
o
),
(
296.341,
344,
o
),
(
296.341,
243,
cs
),
(
296.341,
191,
o
),
(
316.463,
152,
o
),
(
344.512,
152,
cs
)
);
}
);
width = 700;
}
);
unicode = 38;
userData = {
KernOnSpecialSpacing = {};
};
}
{
color = 6;
glyphname = parenleft;
kernLeft = KO_parenleft;
kernRight = KO_parenleft;
layers = (
{
layerId = "DF17D77B-A5C4-4843-826A-BC0F1C4CB224";
shapes = (
{
closed = 1;
nodes = (
(
549.5,
-190,
l
),
(
423.5,
-55,
o
),
(
340.5,
102,
o
),
(
340.5,
303,
cs
),
(
340.5,
497,
o
),
(
423.5,
650,
o
),
(
549.5,
782,
c
),
(
548.5,
783,
l
),
(
357.5,
669,
o
),
(
258.5,
504,
o
),
(
258.5,
303,
cs
),
(
258.5,
96,
o
),
(
357.5,
-74,
o
),
(
548.5,
-191,
c
)
);
}
);
width = 700;
},
{
layerId = "7300F074-2CFD-43CC-B20F-1BF1EAE6C2C7";
shapes = (
{
closed = 1;
nodes = (
(
551,
-144,
l
),
(
414,
-39,
o
),
(
331,
96,
o
),
(
331,
303,
cs
),
(
331,
503,
o
),
(
414,
634,
o
),
(
551,
735,
c
),
(
519,
782,
l
),
(
349,
687,
o
),
(
249,
526,
o
),
(
249,
301,
cs
),
(
249,
73,
o
),
(
350,
-93,
o
),
(
519,
-191,
c
)
);
}
);
width = 700;
},
{
layerId = "F497C50F-30EB-4580-9148-0005B36D0333";
shapes = (
{
closed = 1;
nodes = (
(
565,
-190,
l
),
(
427,
-53,
o
),
(
371,
87,
o
),
(
371,
295,
cs
),
(
371,
506,
o
),
(
428,
649,
o
),
(
565,
781,
c
),
(
564,
782,
l
),
(
331,
675,
o
),
(
214,
512,
o
),
(
214,
297,
cs
),
(
214,
81,
o
),
(
331,
-83,
o
),
(
564,
-191,
c
)
);
}
);
width = 700;
},
{
layerId = "29EF49B2-C370-4E88-B36E-A4ACD23E3F3A";
shapes = (
{
closed = 1;
nodes = (
(
565,
-144,
l
),
(
434,
-25,
o
),
(
371,
118,
o
),
(
371,
295,
cs
),
(
371,
476,
o
),
(
435,
622,
o
),
(
565,
735,
c
),
(
533,
782,
l
),
(
326,
676,
o
),
(
214,
503,
o
),
(
214,
289,
cs
),
(
214,
74,
o
),
(
327,
-96,
o
),
(
533,
-191,
c
)
);
}
);
width = 700;
}
);
unicode = 40;
userData = {
KernOnName = parenleft;
KernOnSpecialSpacing = {
L = parenthesis;
R = parenthesis;
};
};
}
{
color = 5;
glyphname = parenright;
kernLeft = KO_parenright;
kernRight = KO_parenright;
layers = (
{
layerId = "DF17D77B-A5C4-4843-826A-BC0F1C4CB224";
shapes = (
{
closed = 1;
nodes = (
(
342.5,
-74,
o
),
(
441.5,
96,
o
),
(
441.5,
303,
c
),
(
441.5,
504,
o
),
(
342.5,
669,
o
),
(
151.5,
783,
cs
),
(
150.5,
782,
l
),
(
276.5,
650,
o
),
(
359.5,
497,
o
),
(
359.5,
303,
c
),
(
359.5,
102,
o
),
(
276.5,
-55,
o
),
(
150.5,
-190,
cs
),
(
151.5,
-191,
l
)
);
}
);
width = 700;
},
{
layerId = "F497C50F-30EB-4580-9148-0005B36D0333";
shapes = (
{
closed = 1;
nodes = (
(
369,
-83,
o
),
(
486,
81,
o
),
(
486,
297,
c
),
(
486,
512,
o
),
(
369,
675,
o
),
(
136,
782,
cs
),
(
135,
781,
l
),
(
272,
649,
o
),
(
329,
506,
o
),
(
329,
295,
c
),
(
329,
87,
o
),
(
273,
-53,
o
),
(
135,
-190,
cs
),
(
136,
-191,
l
)
);
}
);
width = 700;
},
{
layerId = "7300F074-2CFD-43CC-B20F-1BF1EAE6C2C7";
shapes = (
{
closed = 1;
nodes = (
(
350,
-93,
o
),
(
451,
73,
o
),
(
451,
301,
c
),
(
451,
526,
o
),
(
351,
687,
o
),
(
181,
782,
cs
),
(
149,
735,
l
),
(
286,
634,
o
),
(
369,
503,
o
),
(
369,
303,
c
),
(
369,
96,
o
),
(
286,
-39,
o
),
(
149,
-144,
cs
),
(
181,
-191,
l
)
);
}
);
width = 700;
},
{
layerId = "29EF49B2-C370-4E88-B36E-A4ACD23E3F3A";
shapes = (
{
closed = 1;
nodes = (
(
373,
-96,
o
),
(
486,
74,
o
),
(
486,
289,
c
),
(
486,
503,
o
),
(
374,
676,
o
),
(
167,
782,
cs
),
(
135,
735,
l
),
(
265,
622,
o
),
(
329,
476,
o
),
(
329,
295,
c
),
(
329,
118,
o
),
(
266,
-25,
o
),
(
135,
-144,
cs
),
(
167,
-191,
l
)
);
}
);
width = 700;
}
);
metricLeft = "=|parenleft";
metricRight = "=|parenleft";
unicode = 41;
userData = {
KernOnName = parenright;
};
}
{
color = 6;
glyphname = asterisk;
layers = (
{
layerId = "DF17D77B-A5C4-4843-826A-BC0F1C4CB224";
shapes = (
{
closed = 1;
nodes = (
(
521,
642,
o
),
(
501,
648,
o
),
(
478,
634,
cs
),
(
445,
614,
o
),
(
415,
564,
o
),
(
349,
518,
c
),
(
349,
517,
l
),
(
426,
551,
o
),
(
482,
552,
o
),
(
515,
571,
cs
),
(
539,
585,
o
),
(
543,
605,
o
),
(
532,
623,
cs
)
);
},
{
closed = 1;
nodes = (
(
544,
430,
o
),
(
539,
452,
o
),
(
515,
465,
cs
),
(
481,
483,
o
),
(
423,
484,
o
),
(
350,
518,
c
),
(
349,
518,
l
),
(
417,
468,
o
),
(
446,
420,
o
),
(
479,
401,
cs
),
(
503,
387,
o
),
(
522,
394,
o
),
(
533,
412,
cs
)
);
},
{
closed = 1;
nodes = (
(
371,
307,
o
),
(
387,
321,
o
),
(
386,
349,
cs
),
(
385,
387,
o
),
(
357,
438,
o
),
(
350,
518,
c
),
(
349,
518,
l
),
(
340,
435,
o
),
(
313,
386,
o
),
(
313,
348,
cs
),
(
313,
320,
o
),
(
328,
307,
o
),
(
349,
307,
cs
)
);
},
{
closed = 1;
nodes = (
(
177,
393,
o
),
(
197,
386,
o
),
(
221,
401,
cs
),
(
253,
421,
o
),
(
283,
471,
o
),
(
349,
517,
c
),
(
349,
518,
l
),
(
272,
484,
o
),
(
216,
483,
o
),
(
183,
464,
cs
),
(
159,
450,
o
),
(
155,
430,
o
),
(
166,
412,
cs
)
);
},
{
closed = 1;
nodes = (
(
157,
604,
o
),
(
160,
584,
o
),
(
185,
570,
cs
),
(
217,
552,
o
),
(
277,
552,
o
),
(
350,
517,
c
),
(
350,
518,
l
),
(
282,
568,
o
),
(
253,
616,
o
),
(
220,
635,
cs
),
(
196,
649,
o
),
(
177,
642,
o
),
(
167,
623,
cs
)
);
},
{
closed = 1;
nodes = (
(
328,
729,
o
),
(
313,
715,
o
),
(
313,
688,
cs
),
(
313,
650,
o
),
(
342,
598,
o
),
(
349,
518,
c
),
(
350,
518,
l
),
(
359,
601,
o
),
(
386,
650,
o
),
(
386,
688,
cs
),
(
386,
716,
o
),
(
371,
729,
o
),
(
350,
729,
cs
)
);
}
);
width = 700;
},
{
layerId = "7300F074-2CFD-43CC-B20F-1BF1EAE6C2C7";
shapes = (
{
closed = 1;
nodes = (
(
521.5,
643,
o
),
(
497.5,
657,
o
),
(
462.5,
637,
cs
),
(
429.5,
618,
o
),
(
393.5,
585,
o
),
(
341.5,
533,
c
),
(
358.5,
504,
l
),
(
433.5,
524,
o
),
(
476.5,
537,
o
),
(
509.5,
556,
cs
),
(
543.5,
576,
o
),
(
544.5,
603,
o
),
(
533.5,
623,
cs
)
);
},
{
closed = 1;
nodes = (
(
544.5,
432,
o
),
(
544.5,
460,
o
),
(
509.5,
480,
cs
),
(
476.5,
499,
o
),
(
429.5,
514,
o
),
(
358.5,
533,
c
),
(
342.5,
504,
l
),
(
396.5,
449,
o
),
(
429.5,
418,
o
),
(
462.5,
399,
cs
),
(
497.5,
380,
o
),
(
520.5,
392,
o
),
(
532.5,
412,
cs
)
);
},
{
closed = 1;
nodes = (
(
372.5,
307,
o
),
(
397.5,
321,
o
),
(
396.5,
361,
cs
),
(
396.5,
399,
o
),
(
386.5,
447,
o
),
(
367.5,
518,
c
),
(
334.5,
518,
l
),
(
313.5,
443,
o
),
(
303.5,
399,
o
),
(
303.5,
361,
cs
),
(
304.5,
321,
o
),
(
326.5,
308,
o
),
(
349.5,
307,
cs
)
);
},
{
closed = 1;
nodes = (
(
178.5,
393,
o
),
(
203.5,
379,
o
),
(
237.5,
399,
cs
),
(
270.5,
418,
o
),
(
306.5,
451,
o
),
(
358.5,
503,
c
),
(
342.5,
532,
l
),
(
266.5,
512,
o
),
(
223.5,
499,
o
),
(
190.5,
480,
cs
),
(
156.5,
459,
o
),
(
156.5,
434,
o
),
(
167.5,
413,
cs
)
);
},
{
closed = 1;
nodes = (
(
156.5,
604,
o
),
(
156.5,
576,
o
),
(
190.5,
556,
cs
),
(
223.5,
537,
o
),
(
270.5,
522,
o
),
(
341.5,
503,
c
),
(
358.5,
532,
l
),
(
303.5,
588,
o
),
(
270.5,
618,
o
),
(
237.5,
637,
cs
),
(
202.5,
656,
o
),
(
180.5,
644,
o
),
(
167.5,
624,
cs
)
);
},
{
closed = 1;
nodes = (
(
327.5,
729,
o
),
(
303.5,
715,
o
),
(
303.5,
675,
cs
),
(
303.5,
637,
o
),
(
313.5,
589,
o
),
(
333.5,
518,
c
),
(
366.5,
518,
l
),
(
386.5,
593,
o
),
(
396.5,
637,
o
),
(
396.5,
675,
cs
),
(
396.5,
715,
o
),
(
373.5,
729,
o
),
(
350.5,
729,
cs
)
);
}
);
width = 700;
},
{
layerId = "F497C50F-30EB-4580-9148-0005B36D0333";
shapes = (
{
closed = 1;
nodes = (
(
519.5,
648,
o
),
(
492.5,
666,
o
),
(
457.5,
646,
cs
),
(
425.5,
627,
o
),
(
397.5,
579,
o
),
(
349.5,
520,
c
),
(
351.5,
517,
l
),
(
430.5,
530,
o
),
(
481.5,
529,
o
),
(
514.5,
548,
cs
),
(
549.5,
568,
o
),
(
547.5,
599,
o
),
(
532.5,
624,
cs
)
);
},
{
closed = 1;
nodes = (
(
547.5,
437,
o
),
(
549.5,
469,
o
),
(
514.5,
489,
cs
),
(
482.5,
508,
o
),
(
426.5,
508,
o
),
(
351.5,
520,
c
),
(
350.5,
517,
l
),
(
400.5,
455,
o
),
(
425.5,
410,
o
),
(
458.5,
391,
cs
),
(
493.5,
371,
o
),
(
519.5,
388,
o
),
(
533.5,
413,
cs
)
);
},
{
closed = 1;
nodes = (
(
378.5,
307,
o
),
(
407.5,
321,
o
),
(
407.5,
361,
cs
),
(
407.5,
399,
o
),
(
379.5,
447,
o
),
(
352.5,
518,
c
),
(
349.5,
517,
l
),
(
320.5,
443,
o
),
(
294.5,
399,
o
),
(
294.5,
361,
cs
),
(
294.5,
321,
o
),
(
322.5,
307,
o
),
(
351.5,
307,
cs
)
);
},
{
closed = 1;
nodes = (
(
181.5,
388,
o
),
(
208.5,
370,
o
),
(
243.5,
390,
cs
),
(
275.5,
409,
o
),
(
303.5,
457,
o
),
(
351.5,
516,
c
),
(
349.5,
518,
l
),
(
270.5,
506,
o
),
(
219.5,
507,
o
),
(
186.5,
488,
cs
),
(
151.5,
468,
o
),
(
153.5,
437,
o
),
(
168.5,
412,
cs
)
);
},
{
closed = 1;
nodes = (
(
153.5,
599,
o
),
(
151.5,
567,
o
),
(
186.5,
547,
cs
),
(
218.5,
528,
o
),
(
274.5,
528,
o
),
(
349.5,
516,
c
),
(
350.5,
519,
l
),
(
300.5,
581,
o
),
(
275.5,
626,
o
),
(
242.5,
645,
cs
),
(
207.5,
665,
o
),
(
181.5,
648,
o
),
(
167.5,
623,
cs
)
);
},
{
closed = 1;
nodes = (
(
322.5,
729,
o
),
(
293.5,
715,
o
),
(
293.5,
675,
cs
),
(
293.5,
637,
o
),
(
321.5,
589,
o
),
(
348.5,
518,
c
),
(
351.5,
518,
l
),
(
379.5,
593,
o
),
(
406.5,
637,
o
),
(
406.5,
675,
cs
),
(
406.5,
715,
o
),
(
378.5,
729,
o
),
(
350.5,
729,
cs
)
);
}
);
width = 700;
},
{
layerId = "29EF49B2-C370-4E88-B36E-A4ACD23E3F3A";
shapes = (
{
closed = 1;
nodes = (
(
519.5,
648,
o
),
(
492.5,
666,
o
),
(
458.5,
646,
cs
),
(
425.5,
627,
o
),
(
393.5,
586,
o
),
(
342.5,
533,
c
),
(
358.5,
504,
l
),
(
433.5,
525,
o
),
(
481.5,
529,
o
),
(
514.5,
548,
cs
),
(
549.5,
568,
o
),
(
547.5,
599,
o
),
(
533.5,
624,
cs
)
);
},
{
closed = 1;
nodes = (
(
547.5,
437,
o
),
(
549.5,
469,
o
),
(
515.5,
489,
cs
),
(
482.5,
508,
o
),
(
430.5,
515,
o
),
(
359.5,
533,
c
),
(
342.5,
504,
l
),
(
398.5,
450,
o
),
(
425.5,
410,
o
),
(
458.5,
391,
cs
),
(
493.5,
371,
o
),
(
519.5,
388,
o
),
(
533.5,
413,
cs
)
);
},
{
closed = 1;
nodes = (
(
378.5,
307,
o
),
(
407.5,
321,
o
),
(
407.5,
361,
cs
),
(
407.5,
399,
o
),
(
387.5,
447,
o
),
(
368.5,
518,
c
),
(
334.5,
518,
l
),
(
315.5,
443,
o
),
(
294.5,
399,
o
),
(
294.5,
361,
cs
),
(
294.5,
321,
o
),
(
322.5,
307,
o
),
(
351.5,
307,
cs
)
);
},
{
closed = 1;
nodes = (
(
181.5,
388,
o
),
(
208.5,
370,
o
),
(
243.5,
390,
cs
),
(
276.5,
409,
o
),
(
307.5,
451,
o
),
(
359.5,
503,
c
),
(
342.5,
532,
l
),
(
268.5,
511,
o
),
(
219.5,
507,
o
),
(
186.5,
488,
cs
),
(
151.5,
468,
o
),
(
153.5,
437,
o
),
(
168.5,
412,
cs
)
);
},
{
closed = 1;
nodes = (
(
153.5,
600,
o
),
(
151.5,
567,
o
),
(
186.5,
547,
cs
),
(
219.5,
528,
o
),
(
271.5,
522,
o
),
(
342.5,
503,
c
),
(
358.5,
532,
l
),
(
303.5,
586,
o
),
(
275.5,
626,
o
),
(
242.5,
645,
cs
),
(
207.5,
666,
o
),
(
181.5,
648,
o
),
(
167.5,
623,
cs
)
);
},
{
closed = 1;
nodes = (
(
322.5,
729,
o
),
(
293.5,
715,
o
),
(
293.5,
675,
cs
),
(
293.5,
637,
o
),
(
313.5,
589,
o
),
(
333.5,
518,
c
),
(
366.5,
518,
l
),
(
386.5,
593,
o
),
(
406.5,
637,
o
),
(
406.5,
675,
cs
),
(
406.5,
715,
o
),
(
378.5,
729,
o
),
(
350.5,
729,
cs
)
);
}
);
width = 700;
}
);
unicode = 42;
userData = {
KernOnSpecialSpacing = {};
};
}
{
color = 4;
glyphname = slash;
kernLeft = KO_slash;
kernRight = KO_slash;
layers = (
{
anchors = (
{
name = ascender;
pos = (
264,
708
);
},
{
name = baseline;
pos = (
436,
0
);
}
);
layerId = "DF17D77B-A5C4-4843-826A-BC0F1C4CB224";
shapes = (
{
closed = 1;
nodes = (
(
215,
-14,
l
),
(
487,
722,
l
),
(
485,
722,
l
),
(
213,
-14,
l
)
);
}
);
width = 700;
},
{
anchors = (
{
name = ascender;
pos = (
235.5,
708
);
},
{
name = baseline;
pos = (
464.5,
0
);
}
);
layerId = "7300F074-2CFD-43CC-B20F-1BF1EAE6C2C7";
shapes = (
{
closed = 1;
nodes = (
(
255.5,
-14,
l
),
(
527.5,
722,
l
),
(
444.5,
722,
l
),
(
172.5,
-14,
l
)
);
}
);
width = 700;
},
{
anchors = (
{
name = ascender;
pos = (
264.5,
708
);
},
{
name = baseline;
pos = (
436.5,
0
);
}
);
layerId = "F497C50F-30EB-4580-9148-0005B36D0333";
shapes = (
{
closed = 1;
nodes = (
(
214.5,
-14,
l
),
(
486.5,
722,
l
),
(
485.5,
722,
l
),
(
213.5,
-14,
l
)
);
}
);
width = 700;
},
{
anchors = (
{
name = ascender;
pos = (
245.5,
708
);
},
{
name = baseline;
pos = (
454.5,
0
);
}
);
layerId = "29EF49B2-C370-4E88-B36E-A4ACD23E3F3A";
shapes = (
{
closed = 1;
nodes = (
(
255.5,
-14,
l
),
(
527.5,
722,
l
),
(
444.5,
722,
l
),
(
172.5,
-14,
l
)
);
}
);
width = 700;
}
);
unicode = 47;
userData = {
KernOnSpecialSpacing = {};
};
}
{
color = 6;
glyphname = zero;
kernLeft = KO_zero;
kernRight = KO_zero;
layers = (
{
anchors = (
{
name = center;
pos = (
350.5,
260
);
}
);
guides = (
{
pos = (
302.5,
260
);
},
{
angle = 90;
pos = (
350.5,
205
);
}
);
layerId = "DF17D77B-A5C4-4843-826A-BC0F1C4CB224";
shapes = (
{
closed = 1;
nodes = (
(
492.5,
-14,
o
),
(
597.5,
102,
o
),
(
597.5,
266,
cs
),
(
597.5,
422,
o
),
(
499.5,
529,
o
),
(
355.5,
529,
cs
),
(
207.5,
529,
o
),
(
102.5,
413,
o
),
(
102.5,
250,
cs
),
(
102.5,
94,
o
),
(
201.5,
-14,
o
),
(
344.5,
-14,
cs
)
);
},
{
closed = 1;
nodes = (
(
256.5,
-13,
o
),
(
199.5,
88,
o
),
(
199.5,
253,
cs
),
(
199.5,
423,
o
),
(
257.5,
528,
o
),
(
350.5,
528,
cs
),
(
443.5,
528,
o
),
(
500.5,
427,
o
),
(
500.5,
263,
cs
),
(
500.5,
93,
o
),
(
442.5,
-13,
o
),
(
349.5,
-13,
cs
)
);
}
);
width = 700;
},
{
anchors = (
{
name = center;
pos = (
349.5,
260
);
}
);
guides = (
{
pos = (
301.5,
260
);
},
{
angle = 90;
pos = (
349.5,
205
);
}
);
layerId = "7300F074-2CFD-43CC-B20F-1BF1EAE6C2C7";
shapes = (
{
closed = 1;
nodes = (
(
492.5,
-14,
o
),
(
597.5,
102,
o
),
(
597.5,
266,
cs
),
(
597.5,
422,
o
),
(
499.5,
529,
o
),
(
355.5,
529,
cs
),
(
207.5,
529,
o
),
(
102.5,
413,
o
),
(
102.5,
250,
cs
),
(
102.5,
94,
o
),
(
201.5,
-14,
o
),
(
344.5,
-14,
cs
)
);
},
{
closed = 1;
nodes = (
(
256.5,
56,
o
),
(
199.5,
131,
o
),
(
199.5,
253,
cs
),
(
199.5,
380,
o
),
(
257.5,
459,
o
),
(
350.5,
459,
cs
),
(
443.5,
459,
o
),
(
500.5,
384,
o
),
(
500.5,
262,
cs
),
(
500.5,
135,
o
),
(
442.5,
56,
o
),
(
348.5,
56,
cs
)
);
}
);
width = 700;
},
{
anchors = (
{
name = center;
pos = (
349.502,
260
);
}
);
guides = (
{
pos = (
301.707,
260
);
},
{
angle = 90;
pos = (
349.502,
205
);
}
);
layerId = "F497C50F-30EB-4580-9148-0005B36D0333";
shapes = (
{
closed = 1;
nodes = (
(
519.772,
-14,
o
),
(
646.23,
104,
o
),
(
646.23,
268,
cs
),
(
646.23,
425,
o
),
(
527.738,
533,
o
),
(
355.477,
533,
cs
),
(
179.232,
533,
o
),
(
53.77,
416,
o
),
(
53.77,
252,
cs
),
(
53.77,
95,
o
),
(
172.262,
-14,
o
),
(
344.523,
-14,
cs
)
);
},
{
closed = 1;
nodes = (
(
280.797,
-13,
o
),
(
239.972,
90,
o
),
(
239.972,
255,
cs
),
(
239.972,
425,
o
),
(
284.78,
532,
o
),
(
355.477,
532,
cs
),
(
419.203,
532,
o
),
(
460.028,
429,
o
),
(
460.028,
264,
cs
),
(
460.028,
95,
o
),
(
415.22,
-13,
o
),
(
344.523,
-13,
cs
)
);
}
);
width = 700;
},
{
anchors = (
{
name = center;
pos = (
349.502,
260
);
}
);
guides = (
{
pos = (
301.707,
260
);
},
{
angle = 90;
pos = (
349.502,
205
);
}
);
layerId = "29EF49B2-C370-4E88-B36E-A4ACD23E3F3A";
shapes = (
{
closed = 1;
nodes = (
(
519.772,
-14,
o
),
(
646.23,
104,
o
),
(
646.23,
268,
cs
),
(
646.23,
425,
o
),
(
527.738,
533,
o
),
(
355.477,
533,
cs
),
(
179.232,
533,
o
),
(
53.77,
416,
o
),
(
53.77,
252,
cs
),
(
53.77,
95,
o
),
(
172.262,
-14,
o
),
(
344.523,
-14,
cs
)
);
},
{
closed = 1;
nodes = (
(
282.788,
56,
o
),
(
239.972,
133,
o
),
(
239.972,
255,
cs
),
(
239.972,
382,
o
),
(
282.788,
463,
o
),
(
349.502,
463,
cs
),
(
417.212,
463,
o
),
(
460.028,
386,
o
),
(
460.028,
264,
cs
),
(
460.028,
137,
o
),
(
417.212,
56,
o
),
(
350.498,
56,
cs
)
);
}
);
width = 700;
}
);
metricLeft = zero.lf;
metricRight = zero.lf;
unicode = 48;
userData = {
KernOnName = zero;
};
}
{
color = 6;
glyphname = one;
kernLeft = KO_one;
kernRight = KO_one;
layers = (
{
layerId = "DF17D77B-A5C4-4843-826A-BC0F1C4CB224";
shapes = (
{
closed = 1;
nodes = (
(
240,
1,
o
),
(
301,
4,
o
),
(
363,
4,
cs
),
(
417,
4,
o
),
(
474,
1,
o
),
(
501,
0,
c
),
(
501,
1,
l
),
(
432,
3,
o
),
(
405,
19,
o
),
(
405,
83,
cs
),
(
405,
536,
l
),
(
354,
500,
o
),
(
295,
487,
o
),
(
199,
485,
c
),
(
199,
484,
l
),
(
289,
484,
o
),
(
315,
472,
o
),
(
315,
376,
cs
),
(
315,
83,
ls
),
(
315,
18,
o
),
(
275,
3,
o
),
(
209,
1,
c
),
(
209,
0,
l
)
);
}
);
width = 700;
},
{
layerId = "7300F074-2CFD-43CC-B20F-1BF1EAE6C2C7";
shapes = (
{
closed = 1;
nodes = (
(
209,
1,
o
),
(
288,
4,
o
),
(
355,
4,
cs
),
(
422,
4,
o
),
(
501,
1,
o
),
(
536,
0,
c
),
(
536,
71,
l
),
(
435,
71,
o
),
(
400,
89,
o
),
(
400,
143,
cs
),
(
400,
536,
l
),
(
344,
501,
o
),
(
279,
487,
o
),
(
164,
485,
c
),
(
164,
414,
l
),
(
285,
414,
o
),
(
310,
396,
o
),
(
310,
305,
cs
),
(
310,
143,
ls
),
(
310,
89,
o
),
(
275,
71,
o
),
(
174,
71,
c
),
(
174,
0,
l
)
);
}
);
width = 700;
},
{
layerId = "F497C50F-30EB-4580-9148-0005B36D0333";
shapes = (
{
closed = 1;
nodes = (
(
226,
1,
o
),
(
299,
4,
o
),
(
373,
4,
cs
),
(
427,
4,
o
),
(
484,
1,
o
),
(
511,
0,
c
),
(
511,
1,
l
),
(
470,
3,
o
),
(
455,
17,
o
),
(
455,
73,
cs
),
(
455,
540,
l
),
(
392,
504,
o
),
(
315,
491,
o
),
(
189,
489,
c
),
(
189,
488,
l
),
(
255,
486,
o
),
(
275,
476,
o
),
(
275,
379,
cs
),
(
275,
83,
ls
),
(
275,
18,
o
),
(
243,
3,
o
),
(
189,
1,
c
),
(
189,
0,
l
)
);
}
);
width = 700;
},
{
layerId = "29EF49B2-C370-4E88-B36E-A4ACD23E3F3A";
shapes = (
{
closed = 1;
nodes = (
(
208,
1,
o
),
(
285,
4,
o
),
(
351,
4,
cs
),
(
416,
4,
o
),
(
492,
1,
o
),
(
526,
0,
c
),
(
526,
71,
l
),
(
462,
71,
o
),
(
440,
89,
o
),
(
440,
143,
cs
),
(
440,
540,
l
),
(
377,
504,
o
),
(
300,
491,
o
),
(
174,
489,
c
),
(
174,
418,
l
),
(
240,
418,
o
),
(
260,
406,
o
),
(
260,
309,
cs
),
(
260,
143,
ls
),
(
260,
89,
o
),
(
238,
71,
o
),
(
174,
71,
c
),
(
174,
0,
l
)
);
}
);
width = 700;
}
);
metricLeft = one.lf;
metricRight = one.lf;
unicode = 49;
userData = {
KernOnName = one;
};
}
{
color = 4;
glyphname = two;
kernLeft = KO_two;
kernRight = KO_two;
layers = (
{
layerId = "DF17D77B-A5C4-4843-826A-BC0F1C4CB224";
shapes = (
{
closed = 1;
nodes = (
(
545,
26,
o
),
(
544,
57,
o
),
(
544,
128,
c
),
(
543,
128,
l
),
(
538,
90,
o
),
(
515,
77,
o
),
(
460,
77,
cs
),
(
234,
77,
l
),
(
234,
78,
l
),
(
327,
178,
o
),
(
498,
271,
o
),
(
498,
405,
cs
),
(
498,
483,
o
),
(
440,
529,
o
),
(
348,
529,
cs
),
(
240,
529,
o
),
(
152,
466,
o
),
(
152,
392,
cs
),
(
152,
356,
o
),
(
173,
334,
o
),
(
205,
334,
cs
),
(
231,
334,
o
),
(
254,
348,
o
),
(
254,
375,
cs
),
(
254,
415,
o
),
(
206,
439,
o
),
(
206,
467,
cs
),
(
206,
492,
o
),
(
246,
514,
o
),
(
295,
514,
cs
),
(
361,
514,
o
),
(
401,
474,
o
),
(
401,
387,
cs
),
(
401,
214,
o
),
(
245,
98,
o
),
(
155,
1,
c
),
(
155,
0,
l
),
(
469,
0,
ls
),
(
501,
0,
o
),
(
538,
-1,
o
),
(
548,
-5,
c
)
);
}
);
width = 700;
},
{
layerId = "7300F074-2CFD-43CC-B20F-1BF1EAE6C2C7";
shapes = (
{
closed = 1;
nodes = (
(
560.5,
35,
o
),
(
559.5,
76,
o
),
(
559.5,
168,
c
),
(
492.5,
168,
l
),
(
487.5,
100,
o
),
(
480.5,
77,
o
),
(
425.5,
77,
cs
),
(
262.5,
77,
l
),
(
262.5,
87,
l
),
(
480.5,
252,
o
),
(
513.5,
322,
o
),
(
513.5,
388,
cs
),
(
513.5,
480,
o
),
(
444.5,
529,
o
),
(
344.5,
529,
cs
),
(
227.5,
529,
o
),
(
136.5,
466,
o
),
(
136.5,
378,
cs
),
(
136.5,
326,
o
),
(
165.5,
301,
o
),
(
205.5,
301,
cs
),
(
239.5,
301,
o
),
(
261.5,
319,
o
),
(
261.5,
351,
cs
),
(
261.5,
381,
o
),
(
241.5,
398,
o
),
(
241.5,
419,
cs
),
(
241.5,
440,
o
),
(
266.5,
457,
o
),
(
324.5,
457,
cs
),
(
386.5,
457,
o
),
(
416.5,
431,
o
),
(
416.5,
376,
cs
),
(
416.5,
301,
o
),
(
359.5,
220,
o
),
(
140.5,
67,
c
),
(
140.5,
0,
l
),
(
474.5,
0,
ls
),
(
513.5,
0,
o
),
(
553.5,
-1,
o
),
(
563.5,
-5,
c
)
);
}
);
width = 700;
},
{
layerId = "F497C50F-30EB-4580-9148-0005B36D0333";
shapes = (
{
closed = 1;
nodes = (
(
591,
38,
o
),
(
590,
87,
o
),
(
590,
188,
c
),
(
589,
188,
l
),
(
584,
157,
o
),
(
577,
147,
o
),
(
522,
147,
cs
),
(
251,
147,
l
),
(
251,
148,
l
),
(
369,
226,
o
),
(
554,
280,
o
),
(
554,
407,
cs
),
(
554,
487,
o
),
(
482,
533,
o
),
(
355,
533,
cs
),
(
213,
533,
o
),
(
117,
476,
o
),
(
117,
392,
cs
),
(
117,
344,
o
),
(
149,
312,
o
),
(
198,
312,
cs
),
(
239,
312,
o
),
(
264,
334,
o
),
(
264,
369,
cs
),
(
264,
420,
o
),
(
215,
437,
o
),
(
215,
477,
cs
),
(
215,
505,
o
),
(
240,
523,
o
),
(
279,
523,
cs
),
(
339,
523,
o
),
(
367,
487,
o
),
(
367,
411,
cs
),
(
367,
227,
o
),
(
184,
85,
o
),
(
106,
1,
c
),
(
106,
0,
l
),
(
505,
0,
ls
),
(
541,
0,
o
),
(
583,
-1,
o
),
(
594,
-5,
c
)
);
}
);
width = 700;
},
{
layerId = "29EF49B2-C370-4E88-B36E-A4ACD23E3F3A";
shapes = (
{
closed = 1;
nodes = (
(
586,
38,
o
),
(
585,
87,
o
),
(
585,
188,
c
),
(
512,
188,
l
),
(
507,
157,
o
),
(
500,
147,
o
),
(
445,
147,
cs
),
(
304,
147,
l
),
(
304,
157,
l
),
(
414,
209,
o
),
(
549,
282,
o
),
(
549,
407,
cs
),
(
549,
487,
o
),
(
477,
533,
o
),
(
350,
533,
cs
),
(
208,
533,
o
),
(
112,
472,
o
),
(
112,
378,
cs
),
(
112,
328,
o
),
(
142,
292,
o
),
(
193,
292,
cs
),
(
234,
292,
o
),
(
259,
312,
o
),
(
259,
344,
cs
),
(
259,
377,
o
),
(
230,
394,
o
),
(
230,
423,
cs
),
(
230,
445,
o
),
(
251,
459,
o
),
(
284,
459,
cs
),
(
337,
459,
o
),
(
362,
429,
o
),
(
362,
381,
cs
),
(
362,
257,
o
),
(
186,
136,
o
),
(
111,
71,
c
),
(
111,
0,
l
),
(
500,
0,
ls
),
(
536,
0,
o
),
(
578,
-1,
o
),
(
589,
-5,
c
)
);
}
);
width = 700;
}
);
metricLeft = two.lf;
metricRight = two.lf;
unicode = 50;
userData = {
KernOnName = two;
};
}
{
color = 6;
glyphname = four;
kernLeft = KO_four;
kernRight = KO_four;
layers = (
{
layerId = "DF17D77B-A5C4-4843-826A-BC0F1C4CB224";
shapes = (
{
closed = 1;
nodes = (
(
581.5,
34,
l
),
(
581.5,
111,
l
),
(
172.5,
111,
l
),
(
171.5,
108,
l
),
(
465.5,
528,
l
),
(
464.5,
529,
l
),
(
118.5,
35,
l
),
(
118.5,
34,
l
)
);
},
{
closed = 1;
nodes = (
(
465.5,
-141,
l
),
(
465.5,
529,
l
),
(
464.5,
529,
l
),
(
385.5,
414,
l
),
(
385.5,
-141,
l
)
);
}
);
width = 700;
},
{
layerId = "7300F074-2CFD-43CC-B20F-1BF1EAE6C2C7";
shapes = (
{
closed = 1;
nodes = (
(
583.5,
34,
l
),
(
583.5,
116,
l
),
(
163.5,
116,
l
),
(
184.5,
85,
l
),
(
459.5,
468,
l
),
(
406.5,
514,
l
),
(
116.5,
110,
l
),
(
116.5,
34,
l
)
);
},
{
closed = 1;
nodes = (
(
477.5,
-141,
l
),
(
477.5,
514,
l
),
(
406.5,
514,
l
),
(
392.5,
408,
l
),
(
392.5,
-141,
l
)
);
}
);
width = 700;
},
{
layerId = "F497C50F-30EB-4580-9148-0005B36D0333";
shapes = (
{
closed = 1;
nodes = (
(
618.5,
24,
l
),
(
618.5,
161,
l
),
(
194.5,
161,
l
),
(
194.5,
159,
l
),
(
502.5,
532,
l
),
(
501.5,
533,
l
),
(
81.5,
25,
l
),
(
81.5,
24,
l
)
);
},
{
closed = 1;
nodes = (
(
502.5,
-141,
l
),
(
502.5,
533,
l
),
(
501.5,
533,
l
),
(
362.5,
365,
l
),
(
362.5,
-141,
l
)
);
}
);
width = 700;
},
{
layerId = "29EF49B2-C370-4E88-B36E-A4ACD23E3F3A";
shapes = (
{
closed = 1;
nodes = (
(
618.5,
24,
l
),
(
618.5,
161,
l
),
(
144.5,
161,
l
),
(
168.5,
137,
l
),
(
391.5,
425,
l
),
(
386.5,
533,
l
),
(
81.5,
140,
l
),
(
81.5,
24,
l
)
);
},
{
closed = 1;
nodes = (
(
502.5,
-141,
l
),
(
502.5,
533,
l
),
(
386.5,
533,
l
),
(
362.5,
428,
l
),
(
362.5,
-141,
l
)
);
}
);
width = 700;
}
);
metricLeft = four.lf;
metricRight = four.lf;
unicode = 52;
userData = {
KernOnName = four;
};
}
{
color = 6;
glyphname = nine;
kernLeft = KO_nine;
kernRight = KO_nine;
layers = (
{
layerId = "DF17D77B-A5C4-4843-826A-BC0F1C4CB224";
shapes = (
{
closed = 1;
nodes = (
(
467,
-150,
o
),
(
562,
-10,
o
),
(
562,
210,
cs
),
(
562,
413,
o
),
(
481,
529,
o
),
(
340,
529,
cs
),
(
219,
529,
o
),
(
138,
445,
o
),
(
138,
320,
cs
),
(
138,
204,
o
),
(
208,
127,
o
),
(
315,
127,
cs
),
(
395,
127,
o
),
(
456,
169,
o
),
(
474,
236,
c
),
(
473,
236,
l
),
(
459,
180,
o
),
(
409,
142,
o
),
(
350,
142,
cs
),
(
275,
142,
o
),
(
235,
207,
o
),
(
235,
328,
cs
),
(
235,
450,
o
),
(
276,
528,
o
),
(
339,
528,
cs
),
(
419,
528,
o
),
(
465,
407,
o
),
(
465,
197,
cs
),
(
465,
-30,
o
),
(
410,
-146,
o
),
(
301,
-146,
cs
),
(
256,
-146,
o
),
(
223,
-126,
o
),
(
223,
-100,
cs
),
(
223,
-76,
o
),
(
253,
-53,
o
),
(
253,
-20,
cs
),
(
253,
5,
o
),
(
236,
21,
o
),
(
210,
21,
cs
),
(
179,
21,
o
),
(
158,
-2,
o
),
(
158,
-36,
cs
),
(
158,
-99,
o
),
(
229,
-150,
o
),
(
318,
-150,
cs
)
);
}
);
width = 700;
},
{
layerId = "7300F074-2CFD-43CC-B20F-1BF1EAE6C2C7";
shapes = (
{
closed = 1;
nodes = (
(
468,
-150,
o
),
(
562,
-11,
o
),
(
562,
210,
cs
),
(
562,
414,
o
),
(
482,
529,
o
),
(
340,
529,
cs
),
(
218,
529,
o
),
(
138,
445,
o
),
(
138,
316,
cs
),
(
138,
199,
o
),
(
209,
117,
o
),
(
312,
117,
cs
),
(
395,
117,
o
),
(
461,
171,
o
),
(
477,
252,
c
),
(
465,
326,
l
),
(
450,
242,
o
),
(
397,
187,
o
),
(
330,
187,
cs
),
(
269,
187,
o
),
(
235,
234,
o
),
(
235,
318,
cs
),
(
235,
406,
o
),
(
272,
459,
o
),
(
335,
459,
cs
),
(
421,
459,
o
),
(
465,
368,
o
),
(
465,
191,
cs
),
(
465,
5,
o
),
(
416,
-83,
o
),
(
314,
-83,
cs
),
(
279,
-83,
o
),
(
259,
-73,
o
),
(
259,
-55,
cs
),
(
259,
-38,
o
),
(
277,
-27,
o
),
(
277,
-1,
cs
),
(
277,
28,
o
),
(
256,
47,
o
),
(
222,
47,
cs
),
(
180,
47,
o
),
(
152,
19,
o
),
(
152,
-25,
cs
),
(
152,
-96,
o
),
(
223,
-150,
o
),
(
317,
-150,
cs
)
);
}
);
width = 700;
},
{
layerId = "F497C50F-30EB-4580-9148-0005B36D0333";
shapes = (
{
closed = 1;
nodes = (
(
493,
-150,
o
),
(
612,
-7,
o
),
(
612,
216,
cs
),
(
612,
420,
o
),
(
515,
533,
o
),
(
340,
533,
cs
),
(
186,
533,
o
),
(
88,
447,
o
),
(
88,
312,
cs
),
(
88,
192,
o
),
(
167,
111,
o
),
(
284,
111,
cs
),
(
355,
111,
o
),
(
409,
146,
o
),
(
430,
211,
c
),
(
429,
211,
l
),
(
412,
164,
o
),
(
378,
139,
o
),
(
347,
139,
cs
),
(
299,
139,
o
),
(
275,
201,
o
),
(
275,
326,
cs
),
(
275,
457,
o
),
(
299,
532,
o
),
(
340,
532,
cs
),
(
394,
532,
o
),
(
425,
411,
o
),
(
425,
206,
cs
),
(
425,
-36,
o
),
(
377,
-145,
o
),
(
268,
-145,
cs
),
(
232,
-145,
o
),
(
213,
-132,
o
),
(
213,
-106,
cs
),
(
213,
-65,
o
),
(
260,
-42,
o
),
(
260,
4,
cs
),
(
260,
39,
o
),
(
235,
61,
o
),
(
194,
61,
cs
),
(
145,
61,
o
),
(
113,
29,
o
),
(
113,
-18,
cs
),
(
113,
-95,
o
),
(
194,
-150,
o
),
(
307,
-150,
cs
)
);
}
);
width = 700;
},
{
layerId = "29EF49B2-C370-4E88-B36E-A4ACD23E3F3A";
shapes = (
{
closed = 1;
nodes = (
(
494,
-150,
o
),
(
612,
-5,
o
),
(
612,
220,
cs
),
(
612,
422,
o
),
(
516,
533,
o
),
(
340,
533,
cs
),
(
188,
533,
o
),
(
88,
446,
o
),
(
88,
315,
cs
),
(
88,
199,
o
),
(
166,
121,
o
),
(
283,
121,
cs
),
(
368,
121,
o
),
(
428,
160,
o
),
(
446,
228,
c
),
(
438,
290,
l
),
(
421,
241,
o
),
(
386,
211,
o
),
(
344,
211,
cs
),
(
298,
211,
o
),
(
275,
249,
o
),
(
275,
327,
cs
),
(
275,
409,
o
),
(
301,
463,
o
),
(
341,
463,
cs
),
(
394,
463,
o
),
(
425,
367,
o
),
(
425,
205,
cs
),
(
425,
9,
o
),
(
379,
-81,
o
),
(
279,
-81,
cs
),
(
247,
-81,
o
),
(
231,
-72,
o
),
(
231,
-53,
cs
),
(
231,
-23,
o
),
(
270,
-3,
o
),
(
270,
37,
cs
),
(
270,
70,
o
),
(
244,
91,
o
),
(
203,
91,
cs
),
(
149,
91,
o
),
(
113,
53,
o
),
(
113,
-3,
cs
),
(
113,
-89,
o
),
(
195,
-150,
o
),
(
312,
-150,
cs
)
);
}
);
width = 700;
}
);
metricLeft = "=|six";
metricRight = "=|six";
unicode = 57;
userData = {
KernOnName = nine;
};
}
{
color = 8;
glyphname = colon;
kernLeft = KO_colon;
layers = (
{
layerId = "DF17D77B-A5C4-4843-826A-BC0F1C4CB224";
shapes = (
{
closed = 1;
nodes = (
(
383,
-14,
o
),
(
410,
13,
o
),
(
410,
46,
cs
),
(
410,
79,
o
),
(
383,
106,
o
),
(
350,
106,
cs
),
(
317,
106,
o
),
(
290,
79,
o
),
(
290,
46,
cs
),
(
290,
13,
o
),
(
317,
-14,
o
),
(
350,
-14,
cs
)
);
},
{
closed = 1;
nodes = (
(
383,
408,
o
),
(
410,
435,
o
),
(
410,
468,
cs
),
(
410,
501,
o
),
(
383,
528,
o
),
(
350,
528,
cs
),
(
317,
528,
o
),
(
290,
501,
o
),
(
290,
468,
cs
),
(
290,
435,
o
),
(
317,
408,
o
),
(
350,
408,
cs
)
);
}
);
width = 700;
},
{
layerId = "7300F074-2CFD-43CC-B20F-1BF1EAE6C2C7";
shapes = (
{
closed = 1;
nodes = (
(
399,
-14,
o
),
(
435,
22,
o
),
(
435,
71,
cs
),
(
435,
120,
o
),
(
399,
156,
o
),
(
350,
156,
cs
),
(
301,
156,
o
),
(
265,
120,
o
),
(
265,
71,
cs
),
(
265,
22,
o
),
(
301,
-14,
o
),
(
350,
-14,
cs
)
);
},
{
closed = 1;
nodes = (
(
399,
358,
o
),
(
435,
394,
o
),
(
435,
443,
cs
),
(
435,
492,
o
),
(
399,
528,
o
),
(
350,
528,
cs
),
(
301,
528,
o
),
(
265,
492,
o
),
(
265,
443,
cs
),
(
265,
394,
o
),
(
301,
358,
o
),
(
350,
358,
cs
)
);
}
);
width = 700;
},
{
layerId = "F497C50F-30EB-4580-9148-0005B36D0333";
shapes = (
{
closed = 1;
nodes = (
(
413,
-14,
o
),
(
448,
15,
o
),
(
448,
70,
cs
),
(
448,
125,
o
),
(
413,
154,
o
),
(
350,
154,
cs
),
(
286,
154,
o
),
(
252,
125,
o
),
(
252,
70,
cs
),
(
252,
15,
o
),
(
286,
-14,
o
),
(
350,
-14,
cs
)
);
},
{
closed = 1;
nodes = (
(
413,
365,
o
),
(
448,
394,
o
),
(
448,
449,
cs
),
(
448,
504,
o
),
(
413,
533,
o
),
(
350,
533,
cs
),
(
286,
533,
o
),
(
252,
504,
o
),
(
252,
449,
cs
),
(
252,
394,
o
),
(
286,
365,
o
),
(
350,
365,
cs
)
);
}
);
width = 700;
},
{
layerId = "29EF49B2-C370-4E88-B36E-A4ACD23E3F3A";
shapes = (
{
closed = 1;
nodes = (
(
416,
-14,
o
),
(
454,
20,
o
),
(
454,
77,
cs
),
(
454,
135,
o
),
(
416,
168,
o
),
(
350,
168,
cs
),
(
284,
168,
o
),
(
246,
135,
o
),
(
246,
77,
cs
),
(
246,
19,
o
),
(
284,
-14,
o
),
(
350,
-14,
cs
)
);
},
{
closed = 1;
nodes = (
(
416,
351,
o
),
(
454,
385,
o
),
(
454,
442,
cs
),
(
454,
500,
o
),
(
416,
533,
o
),
(
350,
533,
cs
),
(
284,
533,
o
),
(
246,
500,
o
),
(
246,
442,
cs
),
(
246,
384,
o
),
(
284,
351,
o
),
(
350,
351,
cs
)
);
}
);
width = 700;
}
);
metricLeft = "=period*1.15";
metricRight = "=period*1.15";
unicode = 58;
userData = {
KernOnSpecialSpacing = {
L = "spaced-off";
R = "spaced-off";
};
};
}
{
color = 5;
glyphname = question;
kernLeft = KO_question;
layers = (
{
layerId = "DF17D77B-A5C4-4843-826A-BC0F1C4CB224";
shapes = (
{
closed = 1;
nodes = (
(
310.5,
234,
l
),
(
310.5,
388,
l
),
(
459.5,
424,
o
),
(
545.5,
497,
o
),
(
545.5,
605,
cs
),
(
545.5,
710,
o
),
(
463.5,
782,
o
),
(
333.5,
782,
cs
),
(
232.5,
782,
o
),
(
149.5,
731,
o
),
(
149.5,
666,
cs
),
(
149.5,
634,
o
),
(
170.5,
611,
o
),
(
201.5,
611,
cs
),
(
227.5,
611,
o
),
(
244.5,
627,
o
),
(
244.5,
652,
cs
),
(
244.5,
685,
o
),
(
214.5,
711,
o
),
(
214.5,
732,
cs
),
(
214.5,
759,
o
),
(
267.5,
779,
o
),
(
315.5,
779,
cs
),
(
412.5,
779,
o
),
(
456.5,
695,
o
),
(
456.5,
598,
cs
),
(
456.5,
506,
o
),
(
416.5,
431,
o
),
(
309.5,
389,
c
),
(
309.5,
234,
l
)
);
},
{
closed = 1;
nodes = (
(
343.5,
-14,
o
),
(
370.5,
13,
o
),
(
370.5,
46,
cs
),
(
370.5,
79,
o
),
(
343.5,
106,
o
),
(
310.5,
106,
cs
),
(
277.5,
106,
o
),
(
250.5,
79,
o
),
(
250.5,
46,
cs
),
(
250.5,
13,
o
),
(
277.5,
-14,
o
),
(
310.5,
-14,
cs
)
);
}
);
width = 700;
},
{
layerId = "7300F074-2CFD-43CC-B20F-1BF1EAE6C2C7";
shapes = (
{
closed = 1;
nodes = (
(
345.5,
234,
l
),
(
345.5,
370,
l
),
(
475.5,
417,
o
),
(
545.5,
498,
o
),
(
545.5,
600,
cs
),
(
545.5,
710,
o
),
(
464.5,
782,
o
),
(
339.5,
782,
cs
),
(
229.5,
782,
o
),
(
152.5,
726,
o
),
(
152.5,
646,
cs
),
(
152.5,
599,
o
),
(
179.5,
570,
o
),
(
221.5,
570,
cs
),
(
256.5,
570,
o
),
(
277.5,
588,
o
),
(
277.5,
618,
cs
),
(
277.5,
645,
o
),
(
259.5,
654,
o
),
(
259.5,
671,
cs
),
(
259.5,
694,
o
),
(
291.5,
710,
o
),
(
337.5,
710,
cs
),
(
412.5,
710,
o
),
(
456.5,
666,
o
),
(
456.5,
592,
cs
),
(
456.5,
506,
o
),
(
394.5,
443,
o
),
(
275.5,
409,
c
),
(
275.5,
234,
l
)
);
},
{
closed = 1;
nodes = (
(
357.5,
-14,
o
),
(
393.5,
22,
o
),
(
393.5,
71,
cs
),
(
393.5,
120,
o
),
(
357.5,
156,
o
),
(
308.5,
156,
cs
),
(
259.5,
156,
o
),
(
223.5,
120,
o
),
(
223.5,
71,
cs
),
(
223.5,
22,
o
),
(
259.5,
-14,
o
),
(
308.5,
-14,
cs
)
);
}
);
width = 700;
},
{
layerId = "F497C50F-30EB-4580-9148-0005B36D0333";
shapes = (
{
closed = 1;
nodes = (
(
306,
234,
l
),
(
306,
388,
l
),
(
491,
424,
o
),
(
591,
500,
o
),
(
591,
605,
cs
),
(
591,
710,
o
),
(
488,
782,
o
),
(
338,
782,
cs
),
(
215,
782,
o
),
(
140,
734,
o
),
(
140,
654,
cs
),
(
140,
603,
o
),
(
171,
571,
o
),
(
221,
571,
cs
),
(
261,
571,
o
),
(
287,
592,
o
),
(
287,
626,
cs
),
(
287,
675,
o
),
(
233,
703,
o
),
(
233,
742,
cs
),
(
233,
764,
o
),
(
251,
776,
o
),
(
285,
776,
cs
),
(
365,
776,
o
),
(
412,
710,
o
),
(
412,
597,
cs
),
(
412,
503,
o
),
(
378,
437,
o
),
(
305,
389,
c
),
(
305,
234,
l
)
);
},
{
closed = 1;
nodes = (
(
367,
-14,
o
),
(
402,
15,
o
),
(
402,
70,
cs
),
(
402,
125,
o
),
(
367,
154,
o
),
(
304,
154,
cs
),
(
240,
154,
o
),
(
206,
125,
o
),
(
206,
70,
cs
),
(
206,
15,
o
),
(
240,
-14,
o
),
(
304,
-14,
cs
)
);
}
);
width = 700;
},
{
layerId = "29EF49B2-C370-4E88-B36E-A4ACD23E3F3A";
shapes = (
{
closed = 1;
nodes = (
(
351,
264,
l
),
(
351,
370,
l
),
(
510,
416,
o
),
(
591,
492,
o
),
(
591,
594,
cs
),
(
591,
706,
o
),
(
494,
782,
o
),
(
350,
782,
cs
),
(
225,
782,
o
),
(
140,
725,
o
),
(
140,
640,
cs
),
(
140,
584,
o
),
(
178,
546,
o
),
(
232,
546,
cs
),
(
272,
546,
o
),
(
297,
566,
o
),
(
297,
598,
cs
),
(
297,
632,
o
),
(
268,
648,
o
),
(
268,
673,
cs
),
(
268,
692,
o
),
(
285,
703,
o
),
(
315,
703,
cs
),
(
375,
703,
o
),
(
411,
661,
o
),
(
411,
590,
cs
),
(
411,
514,
o
),
(
364,
448,
o
),
(
281,
409,
c
),
(
281,
264,
l
)
);
},
{
closed = 1;
nodes = (
(
381,
-14,
o
),
(
419,
20,
o
),
(
419,
77,
cs
),
(
419,
135,
o
),
(
381,
168,
o
),
(
315,
168,
cs
),
(
249,
168,
o
),
(
211,
135,
o
),
(
211,
77,
cs
),
(
211,
19,
o
),
(
249,
-14,
o
),
(
315,
-14,
cs
)
);
}
);
width = 700;
}
);
unicode = 63;
userData = {
KernOnName = question;
KernOnSpecialSpacing = {};
};
}
{
color = 4;
glyphname = at;
layers = (
{
guides = (
{
angle = 74.4;
pos = (
379.135,
166
);
}
);
layerId = "DF17D77B-A5C4-4843-826A-BC0F1C4CB224";
shapes = (
{
closed = 1;
nodes = (
(
336,
-161,
o
),
(
393.514,
-141,
o
),
(
438.162,
-102,
c
),
(
438.162,
-101,
l
),
(
392.757,
-140,
o
),
(
336,
-160,
o
),
(
270.162,
-160,
cs
),
(
123.351,
-160,
o
),
(
44.649,
-61,
o
),
(
44.649,
126,
cs
),
(
44.649,
414,
o
),
(
230.811,
667,
o
),
(
441.946,
667,
cs
),
(
574.378,
667,
o
),
(
655.351,
568,
o
),
(
655.351,
406,
cs
),
(
655.351,
216,
o
),
(
542.595,
33,
o
),
(
444.973,
33,
cs
),
(
426.811,
33,
o
),
(
418.486,
44,
o
),
(
426.054,
79,
cs
),
(
497.189,
417,
ls
),
(
504,
449,
o
),
(
512.324,
468,
o
),
(
521.405,
483,
c
),
(
520.649,
484,
l
),
(
500.973,
451,
o
),
(
462.378,
417,
o
),
(
429.081,
404,
c
),
(
369.297,
121,
ls
),
(
357.946,
67,
o
),
(
373.838,
26,
o
),
(
426.054,
26,
cs
),
(
546.378,
26,
o
),
(
656.108,
217,
o
),
(
656.108,
407,
cs
),
(
656.108,
569,
o
),
(
574.378,
668,
o
),
(
441.946,
668,
cs
),
(
230.054,
668,
o
),
(
43.892,
415,
o
),
(
43.892,
126,
cs
),
(
43.892,
-61,
o
),
(
122.595,
-161,
o
),
(
270.162,
-161,
cs
)
);
},
{
closed = 1;
nodes = (
(
317.838,
26,
o
),
(
349.622,
52,
o
),
(
369.297,
97,
c
),
(
368.541,
97,
l
),
(
357.189,
72,
o
),
(
338.27,
58,
o
),
(
315.568,
58,
cs
),
(
275.459,
58,
o
),
(
256.541,
96,
o
),
(
257.297,
178,
cs
),
(
259.568,
331,
o
),
(
314.054,
477,
o
),
(
368.541,
477,
cs
),
(
403.351,
477,
o
),
(
422.27,
435,
o
),
(
423.027,
356,
c
),
(
467.676,
392,
l
),
(
446.486,
446,
o
),
(
409.405,
478,
o
),
(
366.27,
478,
cs
),
(
279.243,
478,
o
),
(
191.459,
330,
o
),
(
189.189,
180,
cs
),
(
187.676,
83,
o
),
(
221.73,
26,
o
),
(
280.757,
26,
cs
)
);
}
);
width = 700;
},
{
guides = (
{
angle = 74.4;
pos = (
379.104,
166
);
},
{
angle = 74.4;
pos = (
84.287,
106
);
},
{
angle = 74.4;
pos = (
429.752,
97
);
},
{
angle = 74.4;
pos = (
457.721,
82
);
},
{
angle = 74.4;
pos = (
317.117,
106
);
},
{
angle = 74.4;
pos = (
313.337,
106
);
}
);
layerId = "7300F074-2CFD-43CC-B20F-1BF1EAE6C2C7";
shapes = (
{
closed = 1;
nodes = (
(
336.015,
-161,
o
),
(
399.514,
-137,
o
),
(
437.311,
-107,
c
),
(
420.68,
-59,
l
),
(
374.568,
-89,
o
),
(
326.188,
-103,
o
),
(
272.516,
-103,
cs
),
(
158.369,
-103,
o
),
(
97.138,
-23,
o
),
(
97.138,
128,
cs
),
(
97.138,
383,
o
),
(
258.153,
610,
o
),
(
438.823,
610,
cs
),
(
540.119,
610,
o
),
(
602.862,
534,
o
),
(
602.862,
411,
cs
),
(
602.862,
233,
o
),
(
510.637,
101,
o
),
(
461.501,
101,
cs
),
(
438.823,
101,
o
),
(
433.531,
115,
o
),
(
440.335,
147,
cs
),
(
472.084,
299,
ls
),
(
485.691,
364,
o
),
(
496.274,
391,
o
),
(
530.292,
425,
c
),
(
500.81,
478,
l
),
(
472.084,
448,
o
),
(
450.918,
428,
o
),
(
431.263,
414,
c
),
(
379.104,
166,
ls
),
(
358.693,
70,
o
),
(
376.08,
26,
o
),
(
424.46,
26,
cs
),
(
540.875,
26,
o
),
(
655.778,
206,
o
),
(
655.778,
408,
cs
),
(
655.778,
569,
o
),
(
574.136,
668,
o
),
(
441.847,
668,
cs
),
(
230.184,
668,
o
),
(
44.222,
415,
o
),
(
44.222,
126,
cs
),
(
44.222,
-61,
o
),
(
122.84,
-161,
o
),
(
270.248,
-161,
cs
)
);
},
{
closed = 1;
nodes = (
(
326.944,
26,
o
),
(
363.229,
62,
o
),
(
383.639,
127,
c
),
(
386.663,
182,
l
),
(
363.985,
128,
o
),
(
341.307,
106,
o
),
(
310.313,
106,
cs
),
(
274.028,
106,
o
),
(
256.641,
136,
o
),
(
257.397,
198,
cs
),
(
258.153,
308,
o
),
(
310.313,
408,
o
),
(
367.009,
408,
cs
),
(
391.199,
408,
o
),
(
412.365,
384,
o
),
(
425.216,
343,
c
),
(
474.352,
394,
l
),
(
440.335,
449,
o
),
(
402.538,
478,
o
),
(
366.253,
478,
cs
),
(
279.32,
478,
o
),
(
191.631,
330,
o
),
(
189.363,
180,
cs
),
(
187.851,
83,
o
),
(
221.868,
26,
o
),
(
280.832,
26,
cs
)
);
}
);
width = 700;
},
{
guides = (
{
angle = 74.4;
pos = (
366.235,
148
);
}
);
layerId = "F497C50F-30EB-4580-9148-0005B36D0333";
shapes = (
{
closed = 1;
nodes = (
(
332.255,
-161,
o
),
(
389.644,
-141,
o
),
(
433.441,
-102,
c
),
(
433.441,
-101,
l
),
(
389.644,
-140,
o
),
(
332.255,
-160,
o
),
(
265.049,
-160,
cs
),
(
116.289,
-160,
o
),
(
36.246,
-61,
o
),
(
36.246,
122,
cs
),
(
36.246,
408,
o
),
(
230.313,
667,
o
),
(
447.033,
667,
cs
),
(
581.446,
667,
o
),
(
663.754,
570,
o
),
(
663.754,
413,
cs
),
(
663.754,
190,
o
),
(
537.648,
47,
o
),
(
477.238,
47,
cs
),
(
463.646,
47,
o
),
(
457.605,
52,
o
),
(
465.156,
87,
cs
),
(
533.873,
415,
ls
),
(
541.424,
453,
o
),
(
550.485,
470,
o
),
(
558.037,
483,
c
),
(
557.282,
484,
l
),
(
531.607,
440,
o
),
(
485.545,
410,
o
),
(
417.584,
393,
c
),
(
366.99,
148,
ls
),
(
350.378,
67,
o
),
(
368.501,
26,
o
),
(
422.114,
26,
cs
),
(
542.179,
26,
o
),
(
664.509,
191,
o
),
(
664.509,
413,
cs
),
(
664.509,
572,
o
),
(
582.201,
668,
o
),
(
447.789,
668,
cs
),
(
229.558,
668,
o
),
(
35.491,
411,
o
),
(
35.491,
121,
cs
),
(
35.491,
-62,
o
),
(
115.534,
-161,
o
),
(
265.049,
-161,
cs
)
);
},
{
closed = 1;
nodes = (
(
308.091,
26,
o
),
(
335.275,
47,
o
),
(
362.46,
97,
c
),
(
362.46,
98,
l
),
(
352.643,
88,
o
),
(
342.071,
84,
o
),
(
326.969,
84,
cs
),
(
294.498,
84,
o
),
(
280.906,
114,
o
),
(
280.906,
186,
cs
),
(
280.906,
329,
o
),
(
335.275,
477,
o
),
(
388.889,
477,
cs
),
(
413.053,
477,
o
),
(
419.849,
448,
o
),
(
414.563,
370,
c
),
(
497.627,
405,
l
),
(
465.156,
456,
o
),
(
431.176,
478,
o
),
(
383.603,
478,
cs
),
(
267.314,
478,
o
),
(
168.393,
345,
o
),
(
168.393,
189,
cs
),
(
168.393,
89,
o
),
(
208.414,
26,
o
),
(
271.09,
26,
cs
)
);
}
);
width = 700;
},
{
guides = (
{
angle = 74.4;
pos = (
362.129,
166
);
},
{
angle = 74.4;
pos = (
125.099,
106
);
},
{
angle = 74.4;
pos = (
441.832,
97
);
},
{
angle = 74.4;
pos = (
467.475,
82
);
},
{
angle = 74.4;
pos = (
338.564,
106
);
},
{
angle = 74.4;
pos = (
335.099,
106
);
}
);
layerId = "29EF49B2-C370-4E88-B36E-A4ACD23E3F3A";
shapes = (
{
closed = 1;
nodes = (
(
348.96,
-161,
o
),
(
405.792,
-146,
o
),
(
449.455,
-118,
c
),
(
437.673,
-67,
l
),
(
394.01,
-92,
o
),
(
348.96,
-103,
o
),
(
295.594,
-103,
cs
),
(
152.129,
-103,
o
),
(
80.743,
-15,
o
),
(
80.743,
162,
cs
),
(
80.743,
416,
o
),
(
226.287,
610,
o
),
(
416.881,
610,
cs
),
(
543.713,
610,
o
),
(
619.257,
524,
o
),
(
619.257,
380,
cs
),
(
619.257,
241,
o
),
(
549.95,
101,
o
),
(
480.644,
101,
cs
),
(
457.772,
101,
o
),
(
455,
117,
o
),
(
460.545,
147,
cs
),
(
491.04,
305,
ls
),
(
504.208,
373,
o
),
(
508.366,
399,
o
),
(
530.545,
431,
c
),
(
493.812,
478,
l
),
(
461.931,
436,
o
),
(
434.901,
410,
o
),
(
404.406,
386,
c
),
(
362.129,
166,
ls
),
(
343.416,
68,
o
),
(
383.614,
26,
o
),
(
432.129,
26,
cs
),
(
563.812,
26,
o
),
(
667.772,
180,
o
),
(
667.772,
376,
cs
),
(
667.772,
559,
o
),
(
575.594,
668,
o
),
(
420.347,
668,
cs
),
(
199.95,
668,
o
),
(
32.228,
448,
o
),
(
32.228,
159,
cs
),
(
32.228,
-50,
o
),
(
120.941,
-161,
o
),
(
287.97,
-161,
cs
)
);
},
{
closed = 1;
nodes = (
(
314.307,
26,
o
),
(
347.574,
60,
o
),
(
366.98,
127,
c
),
(
369.752,
182,
l
),
(
355.198,
129,
o
),
(
339.257,
106,
o
),
(
317.079,
106,
cs
),
(
292.822,
106,
o
),
(
281.04,
134,
o
),
(
281.04,
190,
cs
),
(
281.04,
302,
o
),
(
323.317,
408,
o
),
(
367.673,
408,
cs
),
(
386.386,
408,
o
),
(
396.089,
391,
o
),
(
405.099,
343,
c
),
(
477.871,
394,
l
),
(
436.98,
454,
o
),
(
404.406,
478,
o
),
(
362.129,
478,
cs
),
(
263.713,
478,
o
),
(
181.238,
348,
o
),
(
179.158,
190,
cs
),
(
177.772,
87,
o
),
(
211.733,
26,
o
),
(
270.644,
26,
cs
)
);
}
);
width = 700;
}
);
unicode = 64;
userData = {
KernOnSpecialSpacing = {};
};
}
{
color = 4;
glyphname = B;
kernLeft = KO_H;
kernRight = KO_B;
layers = (
{
anchors = (
{
name = bottom;
pos = (
349.5,
0
);
},
{
name = center;
pos = (
206.5,
367
);
},
{
name = currency;
pos = (
358.5,
0
);
},
{
name = top;
pos = (
349.5,
708
);
},
{
name = top_low_1;
pos = (
349.5,
688
);
},
{
name = top_low_2;
pos = (
349.5,
668
);
},
{
name = top_low_3;
pos = (
349.5,
648
);
}
);
layerId = "DF17D77B-A5C4-4843-826A-BC0F1C4CB224";
shapes = (
{
closed = 1;
nodes = (
(
375.5,
0,
ls
),
(
521.5,
0,
o
),
(
615.5,
76,
o
),
(
615.5,
194,
cs
),
(
615.5,
299,
o
),
(
525.5,
358,
o
),
(
352.5,
368,
c
),
(
352.5,
369,
l
),
(
479.5,
386,
o
),
(
563.5,
458,
o
),
(
563.5,
550,
cs
),
(
563.5,
648,
o
),
(
483.5,
708,
o
),
(
352.5,
708,
cs
),
(
315.5,
708,
l
),
(
293.5,
708,
o
),
(
255.5,
705,
o
),
(
207.5,
705,
c
),
(
150.5,
705,
o
),
(
105.5,
707,
o
),
(
79.5,
708,
c
),
(
79.5,
707,
l
),
(
95.5,
705,
l
),
(
151.5,
698,
o
),
(
160.5,
686,
o
),
(
160.5,
621,
c
),
(
160.5,
87,
l
),
(
160.5,
22,
o
),
(
151.5,
10,
o
),
(
95.5,
3,
c
),
(
79.5,
1,
l
),
(
79.5,
0,
l
),
(
105.5,
1,
o
),
(
150.5,
3,
o
),
(
207.5,
3,
c
),
(
255.5,
3,
o
),
(
293.5,
0,
o
),
(
315.5,
0,
c
)
);
},
{
closed = 1;
nodes = (
(
265.5,
2,
o
),
(
253.5,
16,
o
),
(
253.5,
87,
cs
),
(
253.5,
704,
l
),
(
327.5,
704,
ls
),
(
423.5,
704,
o
),
(
467.5,
654,
o
),
(
467.5,
539,
cs
),
(
467.5,
425,
o
),
(
418.5,
368,
o
),
(
320.5,
368,
cs
),
(
234.5,
368,
l
),
(
234.5,
367,
l
),
(
337.5,
367,
ls
),
(
457.5,
367,
o
),
(
515.5,
312,
o
),
(
515.5,
198,
cs
),
(
515.5,
67,
o
),
(
453.5,
2,
o
),
(
328.5,
2,
cs
)
);
}
);
width = 700;
},
{
anchors = (
{
name = bottom;
pos = (
351.915,
0
);
},
{
name = center;
pos = (
244.665,
367
);
},
{
name = currency;
pos = (
360.534,
0
);
},
{
name = top;
pos = (
380.643,
708
);
},
{
name = top_low_1;
pos = (
380.643,
688
);
},
{
name = top_low_2;
pos = (
380.643,
668
);
},
{
name = top_low_3;
pos = (
380.643,
648
);
}
);
layerId = "7300F074-2CFD-43CC-B20F-1BF1EAE6C2C7";
shapes = (
{
closed = 1;
nodes = (
(
404.583,
0,
ls
),
(
546.306,
0,
o
),
(
635.363,
78,
o
),
(
635.363,
202,
cs
),
(
635.363,
297,
o
),
(
582.695,
361,
o
),
(
487.893,
381,
c
),
(
487.893,
383,
l
),
(
550.137,
409,
o
),
(
585.568,
466,
o
),
(
585.568,
539,
cs
),
(
585.568,
645,
o
),
(
509.918,
708,
o
),
(
383.516,
708,
cs
),
(
367.237,
708,
l
),
(
342.339,
708,
o
),
(
285.841,
705,
o
),
(
244.665,
705,
c
),
(
184.337,
705,
o
),
(
101.026,
707,
o
),
(
64.637,
708,
c
),
(
64.637,
638,
l
),
(
117.305,
633,
l
),
(
185.294,
627,
o
),
(
199.658,
608,
o
),
(
199.658,
552,
c
),
(
199.658,
156,
l
),
(
199.658,
100,
o
),
(
185.294,
81,
o
),
(
117.305,
75,
c
),
(
64.637,
70,
l
),
(
64.637,
0,
l
),
(
101.026,
1,
o
),
(
184.337,
3,
o
),
(
244.665,
3,
c
),
(
285.841,
3,
o
),
(
342.339,
0,
o
),
(
367.237,
0,
c
)
);
},
{
closed = 1;
nodes = (
(
300.205,
73,
o
),
(
288.714,
86,
o
),
(
288.714,
156,
cs
),
(
288.714,
638,
l
),
(
361.491,
638,
ls
),
(
452.462,
638,
o
),
(
493.639,
603,
o
),
(
493.639,
526,
cs
),
(
493.639,
444,
o
),
(
445.759,
402,
o
),
(
352.873,
402,
cs
),
(
270.52,
402,
l
),
(
270.52,
333,
l
),
(
369.152,
333,
ls
),
(
484.063,
333,
o
),
(
539.603,
292,
o
),
(
539.603,
208,
cs
),
(
539.603,
118,
o
),
(
480.233,
73,
o
),
(
362.449,
73,
cs
)
);
}
);
width = 700;
},
{
anchors = (
{
name = bottom;
pos = (
346.034,
0
);
},
{
name = center;
pos = (
195.326,
367
);
},
{
name = currency;
pos = (
364.873,
0
);
},
{
name = top;
pos = (
346.034,
708
);
},
{
name = top_low_1;
pos = (
346.034,
688
);
},
{
name = top_low_2;
pos = (
346.034,
668
);
},
{
name = top_low_3;
pos = (
346.034,
648
);
}
);
layerId = "F497C50F-30EB-4580-9148-0005B36D0333";
shapes = (
{
closed = 1;
nodes = (
(
418.414,
0,
ls
),
(
580.028,
0,
o
),
(
675.212,
70,
o
),
(
675.212,
179,
cs
),
(
675.212,
308,
o
),
(
574.079,
367,
o
),
(
366.856,
367,
c
),
(
366.856,
368,
l
),
(
536.402,
378,
o
),
(
623.654,
437,
o
),
(
623.654,
547,
cs
),
(
623.654,
657,
o
),
(
549.292,
708,
o
),
(
386.686,
708,
cs
),
(
338.102,
708,
l
),
(
312.323,
708,
o
),
(
264.731,
705,
o
),
(
201.275,
705,
c
),
(
118.98,
705,
o
),
(
57.507,
707,
o
),
(
24.788,
708,
c
),
(
24.788,
707,
l
),
(
40.652,
705,
l
),
(
85.269,
700,
o
),
(
95.184,
684,
o
),
(
95.184,
621,
c
),
(
95.184,
87,
l
),
(
95.184,
24,
o
),
(
85.269,
8,
o
),
(
40.652,
3,
c
),
(
24.788,
1,
l
),
(
24.788,
0,
l
),
(
57.507,
1,
o
),
(
118.98,
3,
o
),
(
201.275,
3,
c
),
(
264.731,
3,
o
),
(
312.323,
0,
o
),
(
338.102,
0,
c
)
);
},
{
closed = 1;
nodes = (
(
309.348,
2,
o
),
(
296.459,
20,
o
),
(
296.459,
87,
cs
),
(
296.459,
705,
l
),
(
336.119,
705,
ls
),
(
401.558,
705,
o
),
(
439.235,
639,
o
),
(
439.235,
543,
cs
),
(
439.235,
434,
o
),
(
406.516,
368,
o
),
(
352.975,
368,
cs
),
(
237.96,
368,
l
),
(
237.96,
367,
l
),
(
350,
367,
ls
),
(
426.346,
367,
o
),
(
466.997,
300,
o
),
(
466.997,
187,
cs
),
(
466.997,
67,
o
),
(
426.346,
2,
o
),
(
356.941,
2,
cs
)
);
}
);
width = 700;
},
{
anchors = (
{
name = bottom;
pos = (
352.853,
0
);
},
{
name = center;
pos = (
217.799,
367
);
},
{
name = currency;
pos = (
378.533,
0
);
},
{
name = top;
pos = (
360.462,
708
);
},
{
name = top_low_1;
pos = (
360.462,
688
);
},
{
name = top_low_2;
pos = (
360.462,
668
);
},
{
name = top_low_3;
pos = (
360.462,
648
);
}
);
layerId = "29EF49B2-C370-4E88-B36E-A4ACD23E3F3A";
shapes = (
{
closed = 1;
nodes = (
(
390.897,
0,
ls
),
(
571.603,
0,
o
),
(
676.223,
72,
o
),
(
676.223,
196,
cs
),
(
676.223,
300,
o
),
(
601.087,
362,
o
),
(
464.13,
371,
c
),
(
464.13,
373,
l
),
(
578.261,
404,
o
),
(
626.766,
454,
o
),
(
626.766,
541,
cs
),
(
626.766,
654,
o
),
(
544.022,
708,
o
),
(
369.973,
708,
cs
),
(
333.832,
708,
l
),
(
301.495,
708,
o
),
(
250.136,
705,
o
),
(
221.603,
705,
c
),
(
171.196,
705,
o
),
(
80.842,
706,
o
),
(
23.777,
708,
c
),
(
23.777,
638,
l
),
(
55.163,
635,
l
),
(
108.424,
630,
o
),
(
119.837,
616,
o
),
(
119.837,
552,
c
),
(
119.837,
156,
l
),
(
119.837,
92,
o
),
(
108.424,
78,
o
),
(
55.163,
73,
c
),
(
23.777,
70,
l
),
(
23.777,
0,
l
),
(
80.842,
2,
o
),
(
171.196,
3,
o
),
(
221.603,
3,
c
),
(
250.136,
3,
o
),
(
301.495,
0,
o
),
(
333.832,
0,
c
)
);
},
{
closed = 1;
nodes = (
(
328.125,
73,
o
),
(
312.908,
93,
o
),
(
312.908,
156,
cs
),
(
312.908,
638,
l
),
(
346.196,
638,
ls
),
(
417.527,
638,
o
),
(
449.864,
597,
o
),
(
449.864,
529,
cs
),
(
449.864,
450,
o
),
(
407.065,
401,
o
),
(
338.587,
401,
cs
),
(
256.793,
401,
l
),
(
256.793,
334,
l
),
(
335.734,
334,
ls
),
(
426.087,
334,
o
),
(
476.495,
283,
o
),
(
476.495,
189,
cs
),
(
476.495,
113,
o
),
(
441.304,
73,
o
),
(
376.63,
73,
cs
)
);
}
);
width = 700;
}
);
metricLeft = I;
unicode = 66;
}
{
color = 5;
glyphname = J;
kernLeft = KO_J;
kernRight = KO_N;
layers = (
{
anchors = (
{
name = bottom;
pos = (
350.5,
0
);
},
{
name = top;
pos = (
350.5,
708
);
}
);
guides = (
{
angle = 90;
pos = (
179.5,
62
);
}
);
layerId = "DF17D77B-A5C4-4843-826A-BC0F1C4CB224";
shapes = (
{
closed = 1;
nodes = (
(
399.5,
250,
l
),
(
399.5,
621,
l
),
(
399.5,
686,
o
),
(
408.5,
698,
o
),
(
464.5,
705,
c
),
(
480.5,
707,
l
),
(
480.5,
708,
l
),
(
456.5,
707,
o
),
(
416.5,
705,
o
),
(
363.5,
705,
c
),
(
352.5,
705,
l
),
(
346.5,
705,
l
),
(
288.5,
705,
o
),
(
237.5,
707,
o
),
(
209.5,
708,
c
),
(
209.5,
707,
l
),
(
233.5,
705,
l
),
(
296.5,
698,
o
),
(
306.5,
685,
o
),
(
306.5,
621,
c
),
(
306.5,
250,
l
)
);
},
{
closed = 1;
nodes = (
(
327.5,
-239,
o
),
(
399.5,
-149,
o
),
(
399.5,
76,
cs
),
(
399.5,
250,
l
),
(
306.5,
250,
l
),
(
306.5,
12,
ls
),
(
306.5,
-173,
o
),
(
271.5,
-229,
o
),
(
149.5,
-238,
c
),
(
149.5,
-239,
l
)
);
}
);
width = 700;
},
{
anchors = (
{
name = bottom;
pos = (
350.5,
0
);
},
{
name = top;
pos = (
350.5,
708
);
}
);
guides = (
{
angle = 90;
pos = (
99.5,
62
);
}
);
layerId = "7300F074-2CFD-43CC-B20F-1BF1EAE6C2C7";
shapes = (
{
closed = 1;
nodes = (
(
390.5,
250,
l
),
(
390.5,
552,
l
),
(
390.5,
611,
o
),
(
409.5,
627,
o
),
(
485.5,
634,
c
),
(
530.5,
638,
l
),
(
530.5,
708,
l
),
(
494.5,
707,
o
),
(
414.5,
705,
o
),
(
354.5,
705,
c
),
(
343.5,
705,
l
),
(
341.5,
705,
l
),
(
269.5,
705,
o
),
(
177.5,
707,
o
),
(
129.5,
708,
c
),
(
129.5,
638,
l
),
(
211.5,
631,
l
),
(
281.5,
625,
o
),
(
297.5,
611,
o
),
(
297.5,
552,
c
),
(
297.5,
250,
l
)
);
},
{
closed = 1;
nodes = (
(
322.5,
-239,
o
),
(
390.5,
-157,
o
),
(
390.5,
86,
cs
),
(
390.5,
250,
l
),
(
297.5,
250,
l
),
(
297.5,
62,
ls
),
(
297.5,
-116,
o
),
(
257.5,
-168,
o
),
(
120.5,
-170,
c
),
(
120.5,
-239,
l
)
);
}
);
width = 700;
},
{
anchors = (
{
name = bottom;
pos = (
350.5,
0
);
},
{
name = top;
pos = (
350.5,
708
);
}
);
guides = (
{
angle = 90;
pos = (
151.5,
62
);
}
);
layerId = "F497C50F-30EB-4580-9148-0005B36D0333";
shapes = (
{
closed = 1;
nodes = (
(
458.5,
250,
l
),
(
458.5,
621,
l
),
(
458.5,
684,
o
),
(
467.5,
700,
o
),
(
512.5,
705,
c
),
(
528.5,
707,
l
),
(
528.5,
708,
l
),
(
499.5,
707,
o
),
(
445.5,
705,
o
),
(
372.5,
705,
c
),
(
356.5,
705,
l
),
(
341.5,
705,
l
),
(
262.5,
705,
o
),
(
203.5,
707,
o
),
(
171.5,
708,
c
),
(
171.5,
707,
l
),
(
194.5,
705,
l
),
(
245.5,
698,
o
),
(
255.5,
683,
o
),
(
255.5,
621,
c
),
(
255.5,
250,
l
)
);
},
{
closed = 1;
nodes = (
(
349.5,
-239,
o
),
(
458.5,
-135,
o
),
(
458.5,
96,
cs
),
(
458.5,
250,
l
),
(
255.5,
250,
l
),
(
255.5,
-35,
ls
),
(
255.5,
-163,
o
),
(
207.5,
-229,
o
),
(
106.5,
-238,
c
),
(
106.5,
-239,
l
)
);
}
);
width = 700;
},
{
anchors = (
{
name = bottom;
pos = (
350.5,
0
);
},
{
name = top;
pos = (
350.5,
708
);
}
);
guides = (
{
angle = 90;
pos = (
78.5,
62
);
}
);
layerId = "29EF49B2-C370-4E88-B36E-A4ACD23E3F3A";
shapes = (
{
closed = 1;
nodes = (
(
461.5,
250,
l
),
(
461.5,
552,
l
),
(
461.5,
616,
o
),
(
473.5,
627,
o
),
(
529.5,
634,
c
),
(
561.5,
637,
l
),
(
561.5,
707,
l
),
(
507.5,
706,
o
),
(
422.5,
705,
o
),
(
375.5,
705,
c
),
(
359.5,
705,
l
),
(
344.5,
705,
l
),
(
292.5,
705,
o
),
(
205.5,
706,
o
),
(
138.5,
708,
c
),
(
138.5,
638,
l
),
(
191.5,
632,
l
),
(
246.5,
626,
o
),
(
258.5,
614,
o
),
(
258.5,
552,
c
),
(
258.5,
250,
l
)
);
},
{
closed = 1;
nodes = (
(
352.5,
-239,
o
),
(
461.5,
-135,
o
),
(
461.5,
96,
cs
),
(
461.5,
250,
l
),
(
258.5,
250,
l
),
(
258.5,
35,
ls
),
(
258.5,
-93,
o
),
(
210.5,
-159,
o
),
(
109.5,
-168,
c
),
(
109.5,
-239,
l
)
);
}
);
width = 700;
}
);
unicode = 74;
userData = {
KernOnName = J;
};
}
{
color = 5;
glyphname = K;
kernLeft = KO_H;
kernRight = KO_K;
layers = (
{
anchors = (
{
name = "^entry";
pos = (
211.065,
0
);
},
{
name = "^exit";
pos = (
211.065,
0
);
},
{
name = bottom;
pos = (
356.293,
0
);
},
{
name = center;
pos = (
348.548,
361
);
},
{
name = stroke;
pos = (
184.924,
520
);
},
{
name = top;
pos = (
345.643,
708
);
},
{
name = top_low_1;
pos = (
345.643,
688
);
},
{
name = top_low_2;
pos = (
345.643,
668
);
},
{
name = top_low_3;
pos = (
345.643,
648
);
}
);
background = {
anchors = (
{
name = bottom;
pos = (
344,
0
);
},
{
name = center;
pos = (
336,
361
);
},
{
name = stroke;
pos = (
167,
520
);
},
{
name = top;
pos = (
333,
708
);
},
{
name = top_low_1;
pos = (
333,
688
);
},
{
name = top_low_2;
pos = (
333,
668
);
},
{
name = top_low_3;
pos = (
333,
648
);
}
);
guides = (
{
pos = (
12,
355
);
},
{
pos = (
12,
391
);
},
{
angle = 90;
pos = (
333,
-106
);
}
);
shapes = (
{
closed = 1;
nodes = (
(
490.871,
2,
o
),
(
512.172,
3,
o
),
(
531.535,
3,
cs
),
(
571.231,
3,
o
),
(
614.799,
2,
o
),
(
638.036,
0,
c
),
(
638.036,
1,
l
),
(
600.277,
12,
o
),
(
585.754,
28,
o
),
(
550.899,
97,
cs
),
(
480.221,
239,
ls
),
(
433.748,
332,
o
),
(
387.275,
377,
o
),
(
321.438,
392,
c
),
(
323.375,
386,
l
),
(
493.776,
606,
ls
),
(
542.185,
669,
o
),
(
565.422,
689,
o
),
(
626.418,
707,
c
),
(
626.418,
708,
l
),
(
608.022,
706,
o
),
(
578.976,
705,
o
),
(
542.185,
705,
cs
),
(
503.458,
705,
o
),
(
461.826,
706,
o
),
(
423.098,
708,
c
),
(
423.098,
707,
l
),
(
493.776,
701,
o
),
(
504.426,
621,
o
),
(
440.526,
539,
cs
),
(
360.166,
436,
ls
),
(
319.502,
384,
o
),
(
279.806,
362,
o
),
(
213.97,
362,
cs
),
(
187.828,
362,
l
),
(
187.828,
361,
l
),
(
213.97,
361,
ls
),
(
294.329,
361,
o
),
(
337.898,
328,
o
),
(
391.148,
221,
cs
),
(
468.603,
65,
ls
),
(
489.903,
23,
o
),
(
473.444,
8,
o
),
(
417.289,
1,
c
),
(
417.289,
0,
l
)
);
},
{
closed = 1;
nodes = (
(
165.56,
3,
l
),
(
211.065,
0,
l
),
(
211.065,
708,
l
),
(
165.56,
705,
l
),
(
121.024,
708,
l
),
(
121.024,
0,
l
)
);
}
);
};
guides = (
{
pos = (
15.491,
355
);
},
{
pos = (
15.491,
391
);
},
{
angle = 90;
pos = (
326.279,
-106
);
}
);
layerId = "DF17D77B-A5C4-4843-826A-BC0F1C4CB224";
shapes = (
{
closed = 1;
nodes = (
(
165.56,
3,
l
),
(
176.21,
3,
l
),
(
227.524,
3,
o
),
(
266.252,
1,
o
),
(
289.488,
0,
c
),
(
289.488,
1,
l
),
(
273.997,
3,
l
),
(
219.779,
10,
o
),
(
211.065,
22,
o
),
(
211.065,
87,
c
),
(
211.065,
621,
l
),
(
211.065,
686,
o
),
(
219.779,
698,
o
),
(
273.997,
705,
c
),
(
289.488,
707,
l
),
(
289.488,
708,
l
),
(
266.252,
707,
o
),
(
227.524,
705,
o
),
(
176.21,
705,
c
),
(
165.56,
705,
l
),
(
155.878,
705,
l
),
(
104.564,
705,
o
),
(
65.837,
707,
o
),
(
42.6,
708,
c
),
(
42.6,
707,
l
),
(
58.091,
705,
l
),
(
112.31,
698,
o
),
(
121.024,
686,
o
),
(
121.024,
621,
c
),
(
121.024,
87,
l
),
(
121.024,
22,
o
),
(
112.31,
10,
o
),
(
58.091,
3,
c
),
(
42.6,
1,
l
),
(
42.6,
0,
l
),
(
65.837,
1,
o
),
(
104.564,
3,
o
),
(
155.878,
3,
c
)
);
},
{
closed = 1;
nodes = (
(
510.235,
2,
o
),
(
531.535,
3,
o
),
(
550.899,
3,
cs
),
(
590.595,
3,
o
),
(
634.163,
2,
o
),
(
657.4,
0,
c
),
(
657.4,
1,
l
),
(
619.64,
12,
o
),
(
605.118,
28,
o
),
(
570.263,
97,
cs
),
(
499.585,
239,
ls
),
(
453.112,
332,
o
),
(
406.639,
377,
o
),
(
340.802,
392,
c
),
(
342.739,
386,
l
),
(
513.14,
606,
ls
),
(
561.549,
669,
o
),
(
584.786,
689,
o
),
(
645.781,
707,
c
),
(
645.781,
708,
l
),
(
627.386,
706,
o
),
(
598.34,
705,
o
),
(
561.549,
705,
cs
),
(
522.822,
705,
o
),
(
481.189,
706,
o
),
(
442.462,
708,
c
),
(
442.462,
707,
l
),
(
513.14,
701,
o
),
(
523.79,
621,
o
),
(
459.889,
539,
cs
),
(
379.53,
436,
ls
),
(
338.866,
384,
o
),
(
299.17,
362,
o
),
(
233.333,
362,
cs
),
(
207.192,
362,
l
),
(
207.192,
361,
l
),
(
233.333,
361,
ls
),
(
313.693,
361,
o
),
(
357.261,
328,
o
),
(
410.512,
221,
cs
),
(
487.967,
65,
ls
),
(
509.267,
23,
o
),
(
492.808,
8,
o
),
(
436.653,
1,
c
),
(
436.653,
0,
l
)
);
}
);
width = 700;
},
{
anchors = (
{
name = "^entry";
pos = (
234.857,
0
);
},
{
name = "^exit";
pos = (
234.857,
0
);
},
{
name = bottom;
pos = (
356.235,
0
);
},
{
name = center;
pos = (
334.62,
356
);
},
{
name = stroke;
pos = (
195.784,
520
);
},
{
name = top;
pos = (
333.789,
708
);
},
{
name = top_low_1;
pos = (
333.789,
688
);
},
{
name = top_low_2;
pos = (
333.789,
668
);
},
{
name = top_low_3;
pos = (
333.789,
648
);
}
);
background = {
anchors = (
{
name = bottom;
pos = (
449,
0
);
},
{
name = center;
pos = (
423,
356
);
},
{
name = stroke;
pos = (
256,
520
);
},
{
name = top;
pos = (
422,
708
);
},
{
name = top_low_1;
pos = (
422,
688
);
},
{
name = top_low_2;
pos = (
422,
668
);
},
{
name = top_low_3;
pos = (
422,
648
);
}
);
guides = (
{
pos = (
123,
321
);
},
{
pos = (
11,
380
);
},
{
angle = 90;
pos = (
423,
-112
);
}
);
hints = (
{
name = "_corner.UC-serif";
scale = (
-0.7,
1
);
type = Corner;
},
{
name = "_corner.UC-serif";
scale = (
-0.7,
-1
);
type = Corner;
},
{
name = "_corner.UC-serif";
scale = (
1,
-1
);
type = Corner;
},
{
name = "_corner.UC-serif";
type = Corner;
}
);
shapes = (
{
closed = 1;
nodes = (
(
457.66,
2,
o
),
(
486.758,
3,
o
),
(
525.831,
3,
cs
),
(
554.929,
3,
o
),
(
578.207,
2,
o
),
(
658.848,
0,
c
),
(
658.848,
70,
l
),
(
591.508,
79,
o
),
(
569.893,
94,
o
),
(
544.952,
147,
cs
),
(
483.432,
277,
ls
),
(
447.684,
353,
o
),
(
421.912,
377,
o
),
(
364.549,
391,
c
),
(
377.85,
351,
l
),
(
518.349,
553,
ls
),
(
559.086,
611,
o
),
(
585.689,
629,
o
),
(
641.39,
638,
c
),
(
641.39,
708,
l
),
(
615.618,
706,
o
),
(
575.713,
705,
o
),
(
529.157,
705,
cs
),
(
480.107,
705,
o
),
(
451.841,
706,
o
),
(
400.297,
708,
c
),
(
400.297,
638,
l
),
(
460.986,
636,
o
),
(
477.613,
604,
o
),
(
443.527,
555,
cs
),
(
367.874,
446,
ls
),
(
337.114,
402,
o
),
(
318.824,
391,
o
),
(
278.088,
391,
cs
),
(
206.591,
391,
l
),
(
206.591,
321,
l
),
(
278.088,
321,
ls
),
(
357.067,
321,
o
),
(
384.501,
303,
o
),
(
418.587,
231,
cs
),
(
461.817,
139,
ls
),
(
485.095,
89,
o
),
(
468.468,
72,
o
),
(
394.477,
70,
c
),
(
394.477,
0,
l
)
);
},
{
closed = 1;
nodes = (
(
195.784,
3,
l
),
(
234.857,
0,
l
),
(
234.857,
708,
l
),
(
195.784,
705,
l
),
(
157.542,
708,
l
),
(
157.542,
0,
l
)
);
}
);
};
guides = (
{
pos = (
85.214,
321
);
},
{
pos = (
-7.898,
380
);
},
{
angle = 90;
pos = (
334.62,
-112
);
}
);
layerId = "7300F074-2CFD-43CC-B20F-1BF1EAE6C2C7";
shapes = (
{
closed = 1;
nodes = (
(
195.784,
3,
l
),
(
199.442,
3,
l
),
(
238.848,
3,
o
),
(
292.387,
1,
o
),
(
316.33,
0,
c
),
(
316.33,
70,
l
),
(
293.884,
73.4,
l
),
(
246.164,
81.6,
o
),
(
234.857,
97,
o
),
(
234.857,
156,
c
),
(
234.857,
552,
l
),
(
234.857,
611,
o
),
(
246.164,
626.4,
o
),
(
293.884,
634.6,
c
),
(
316.33,
638,
l
),
(
316.33,
708,
l
),
(
292.387,
707,
o
),
(
238.848,
705,
o
),
(
199.442,
705,
c
),
(
195.784,
705,
l
),
(
187.47,
705,
l
),
(
137.589,
705,
o
),
(
71.081,
707,
o
),
(
41.152,
708,
c
),
(
41.152,
638,
l
),
(
78.563,
634,
l
),
(
141.746,
627,
o
),
(
157.542,
611,
o
),
(
157.542,
552,
c
),
(
157.542,
156,
l
),
(
157.542,
97,
o
),
(
141.746,
81,
o
),
(
78.563,
74,
c
),
(
41.152,
70,
l
),
(
41.152,
0,
l
),
(
71.081,
1,
o
),
(
137.589,
3,
o
),
(
187.47,
3,
c
)
);
},
{
closed = 1;
nodes = (
(
457.66,
2,
o
),
(
486.758,
3,
o
),
(
525.831,
3,
cs
),
(
554.929,
3,
o
),
(
578.207,
2,
o
),
(
658.848,
0,
c
),
(
658.848,
70,
l
),
(
591.508,
79,
o
),
(
569.893,
94,
o
),
(
544.952,
147,
cs
),
(
483.432,
277,
ls
),
(
447.684,
353,
o
),
(
421.912,
377,
o
),
(
364.549,
391,
c
),
(
377.85,
351,
l
),
(
518.349,
553,
ls
),
(
559.086,
611,
o
),
(
585.689,
629,
o
),
(
641.39,
638,
c
),
(
641.39,
708,
l
),
(
615.618,
706,
o
),
(
575.713,
705,
o
),
(
529.157,
705,
cs
),
(
480.107,
705,
o
),
(
451.841,
706,
o
),
(
400.297,
708,
c
),
(
400.297,
638,
l
),
(
460.986,
636,
o
),
(
477.613,
604,
o
),
(
443.527,
555,
cs
),
(
367.874,
446,
ls
),
(
337.114,
402,
o
),
(
318.824,
391,
o
),
(
278.088,
391,
cs
),
(
206.591,
391,
l
),
(
206.591,
321,
l
),
(
278.088,
321,
ls
),
(
357.067,
321,
o
),
(
384.501,
303,
o
),
(
418.587,
231,
cs
),
(
461.817,
139,
ls
),
(
485.095,
89,
o
),
(
468.468,
72,
o
),
(
394.477,
70,
c
),
(
394.477,
0,
l
)
);
}
);
width = 700;
},
{
anchors = (
{
name = "^entry";
pos = (
240.377,
0
);
},
{
name = "^exit";
pos = (
240.377,
0
);
},
{
name = bottom;
pos = (
374.214,
0
);
},
{
name = center;
pos = (
356.604,
354
);
},
{
name = stroke;
pos = (
185.786,
520
);
},
{
name = top;
pos = (
353.962,
708
);
},
{
name = top_low_1;
pos = (
353.962,
688
);
},
{
name = top_low_2;
pos = (
353.962,
668
);
},
{
name = top_low_3;
pos = (
353.962,
648
);
}
);
background = {
anchors = (
{
name = bottom;
pos = (
415,
0
);
},
{
name = center;
pos = (
395,
354
);
},
{
name = stroke;
pos = (
201,
520
);
},
{
name = top;
pos = (
392,
708
);
},
{
name = top_low_1;
pos = (
392,
688
);
},
{
name = top_low_2;
pos = (
392,
668
);
},
{
name = top_low_3;
pos = (
392,
648
);
}
);
guides = (
{
pos = (
15,
354
);
},
{
angle = 90;
pos = (
392,
-114
);
}
);
hints = (
{
name = "_corner.UC-serif";
scale = (
-1,
1
);
type = Corner;
},
{
name = "_corner.UC-serif";
scale = (
-1,
-1
);
type = Corner;
},
{
name = "_corner.UC-serif";
scale = (
1,
-1
);
type = Corner;
},
{
name = "_corner.UC-serif";
type = Corner;
}
);
shapes = (
{
closed = 1;
nodes = (
(
424.403,
2,
o
),
(
477.233,
3,
o
),
(
525.66,
3,
cs
),
(
560,
3,
o
),
(
589.937,
2,
o
),
(
664.78,
0,
c
),
(
664.78,
1,
l
),
(
630.44,
16,
o
),
(
607.547,
45,
o
),
(
589.937,
97,
cs
),
(
543.27,
233,
ls
),
(
500.126,
358,
o
),
(
448.176,
415,
o
),
(
360.126,
431,
c
),
(
356.604,
425,
l
),
(
453.459,
549,
ls
),
(
521.258,
635,
o
),
(
562.642,
673,
o
),
(
625.157,
707,
c
),
(
625.157,
708,
l
),
(
565.283,
706,
o
),
(
540.629,
705,
o
),
(
514.214,
705,
cs
),
(
478.113,
705,
o
),
(
431.447,
706,
o
),
(
369.811,
708,
c
),
(
369.811,
707,
l
),
(
470.189,
699,
o
),
(
485.157,
592,
o
),
(
402.39,
486,
cs
),
(
354.843,
425,
ls
),
(
321.384,
383,
o
),
(
278.239,
355,
o
),
(
241.258,
355,
cs
),
(
203.396,
355,
l
),
(
203.396,
354,
l
),
(
241.258,
354,
ls
),
(
296.73,
354,
o
),
(
328.428,
315,
o
),
(
368.931,
198,
cs
),
(
414.717,
65,
ls
),
(
431.447,
16,
o
),
(
426.164,
9,
o
),
(
386.541,
1,
c
),
(
386.541,
0,
l
)
);
},
{
closed = 1;
nodes = (
(
150.566,
3,
l
),
(
240.377,
0,
l
),
(
240.377,
708,
l
),
(
150.566,
705,
l
),
(
61.635,
708,
l
),
(
61.635,
0,
l
)
);
}
);
};
layerId = "F497C50F-30EB-4580-9148-0005B36D0333";
shapes = (
{
closed = 1;
nodes = (
(
150.566,
3,
l
),
(
164.654,
3,
l
),
(
228.931,
3,
o
),
(
276.478,
1,
o
),
(
302.013,
0,
c
),
(
302.013,
1,
l
),
(
287.925,
3,
l
),
(
248.302,
8,
o
),
(
240.377,
24,
o
),
(
240.377,
87,
c
),
(
240.377,
621,
l
),
(
240.377,
684,
o
),
(
248.302,
700,
o
),
(
287.925,
705,
c
),
(
302.013,
707,
l
),
(
302.013,
708,
l
),
(
276.478,
707,
o
),
(
228.931,
705,
o
),
(
164.654,
705,
c
),
(
150.566,
705,
l
),
(
137.358,
705,
l
),
(
73.082,
705,
o
),
(
25.535,
707,
o
),
(
0,
708,
c
),
(
0,
707,
l
),
(
14.088,
705,
l
),
(
53.711,
700,
o
),
(
61.635,
684,
o
),
(
61.635,
621,
c
),
(
61.635,
87,
l
),
(
61.635,
24,
o
),
(
53.711,
8,
o
),
(
14.088,
3,
c
),
(
0,
1,
l
),
(
0,
0,
l
),
(
25.535,
1,
o
),
(
73.082,
3,
o
),
(
137.358,
3,
c
)
);
},
{
closed = 1;
nodes = (
(
459.623,
2,
o
),
(
512.453,
3,
o
),
(
560.881,
3,
cs
),
(
595.22,
3,
o
),
(
625.157,
2,
o
),
(
700,
0,
c
),
(
700,
1,
l
),
(
665.66,
16,
o
),
(
642.767,
45,
o
),
(
625.157,
97,
cs
),
(
578.491,
233,
ls
),
(
535.346,
358,
o
),
(
483.396,
415,
o
),
(
395.346,
431,
c
),
(
391.824,
425,
l
),
(
488.679,
549,
ls
),
(
556.478,
635,
o
),
(
597.862,
673,
o
),
(
660.377,
707,
c
),
(
660.377,
708,
l
),
(
600.503,
706,
o
),
(
575.849,
705,
o
),
(
549.434,
705,
cs
),
(
513.333,
705,
o
),
(
466.667,
706,
o
),
(
405.031,
708,
c
),
(
405.031,
707,
l
),
(
505.409,
699,
o
),
(
520.377,
592,
o
),
(
437.61,
486,
cs
),
(
390.063,
425,
ls
),
(
356.604,
383,
o
),
(
313.459,
355,
o
),
(
276.478,
355,
cs
),
(
238.616,
355,
l
),
(
238.616,
354,
l
),
(
276.478,
354,
ls
),
(
331.95,
354,
o
),
(
363.648,
315,
o
),
(
404.151,
198,
cs
),
(
449.937,
65,
ls
),
(
466.667,
16,
o
),
(
461.384,
9,
o
),
(
421.761,
1,
c
),
(
421.761,
0,
l
)
);
}
);
width = 700;
},
{
anchors = (
{
name = "^entry";
pos = (
279.213,
0
);
},
{
name = "^exit";
pos = (
279.213,
0
);
},
{
name = bottom;
pos = (
359.613,
0
);
},
{
name = center;
pos = (
356.991,
356
);
},
{
name = stroke;
pos = (
190.075,
520
);
},
{
name = top;
pos = (
356.991,
708
);
},
{
name = top_low_1;
pos = (
356.991,
688
);
},
{
name = top_low_2;
pos = (
356.991,
668
);
},
{
name = top_low_3;
pos = (
356.991,
648
);
}
);
background = {
anchors = (
{
name = bottom;
pos = (
425,
0
);
},
{
name = center;
pos = (
422,
356
);
},
{
name = stroke;
pos = (
231,
520
);
},
{
name = top;
pos = (
422,
708
);
},
{
name = top_low_1;
pos = (
422,
688
);
},
{
name = top_low_2;
pos = (
422,
668
);
},
{
name = top_low_3;
pos = (
422,
648
);
}
);
guides = (
{
pos = (
181,
321
);
},
{
angle = 90;
pos = (
423,
-112
);
}
);
hints = (
{
name = "_corner.UC-serif";
scale = (
-0.7,
1
);
type = Corner;
},
{
name = "_corner.UC-serif";
scale = (
-0.7,
-1
);
type = Corner;
},
{
name = "_corner.UC-serif";
scale = (
1,
-1
);
type = Corner;
},
{
name = "_corner.UC-serif";
type = Corner;
}
);
shapes = (
{
closed = 1;
nodes = (
(
433.895,
1,
o
),
(
489.825,
3,
o
),
(
547.503,
3,
cs
),
(
582.459,
3,
o
),
(
613.046,
2,
o
),
(
685.581,
0,
c
),
(
685.581,
70,
l
),
(
642.759,
83,
o
),
(
624.407,
103,
o
),
(
608.677,
156,
cs
),
(
580.712,
251,
ls
),
(
546.629,
366,
o
),
(
503.808,
403,
o
),
(
415.543,
420,
c
),
(
405.93,
359,
l
),
(
528.277,
549,
ls
),
(
567.603,
610,
o
),
(
599.938,
630,
o
),
(
669.85,
638,
c
),
(
669.85,
708,
l
),
(
587.703,
706,
o
),
(
557.116,
705,
o
),
(
524.782,
705,
cs
),
(
472.347,
705,
o
),
(
428.652,
706,
o
),
(
398.939,
708,
c
),
(
398.939,
638,
l
),
(
474.095,
635,
o
),
(
482.834,
597,
o
),
(
427.778,
508,
cs
),
(
395.443,
456,
ls
),
(
361.361,
402,
o
),
(
347.378,
391,
o
),
(
309.8,
391,
cs
),
(
242.509,
391,
l
),
(
242.509,
321,
l
),
(
309.8,
321,
ls
),
(
360.487,
321,
o
),
(
384.956,
298,
o
),
(
404.182,
233,
cs
),
(
433.021,
133,
ls
),
(
447.878,
82,
o
),
(
444.382,
75,
o
),
(
398.939,
70,
c
),
(
398.939,
0,
l
)
);
},
{
closed = 1;
nodes = (
(
190.075,
3,
l
),
(
279.213,
0,
l
),
(
279.213,
708,
l
),
(
190.075,
705,
l
),
(
101.81,
708,
l
),
(
101.81,
0,
l
)
);
}
);
};
guides = (
{
pos = (
146.38,
321
);
},
{
angle = 90;
pos = (
357.865,
-112
);
}
);
layerId = "29EF49B2-C370-4E88-B36E-A4ACD23E3F3A";
shapes = (
{
closed = 1;
nodes = (
(
190.075,
3,
l
),
(
203.533,
3,
l
),
(
238.315,
3,
o
),
(
301.061,
2,
o
),
(
340.387,
0,
c
),
(
340.387,
70,
l
),
(
325.531,
72.2,
l
),
(
286.554,
78,
o
),
(
279.213,
90.8,
o
),
(
279.213,
156,
c
),
(
279.213,
552,
l
),
(
279.213,
617.2,
o
),
(
286.554,
630,
o
),
(
325.531,
635.8,
c
),
(
340.387,
637.6,
l
),
(
340.387,
707.6,
l
),
(
301.061,
706,
o
),
(
238.315,
705,
o
),
(
203.533,
705,
c
),
(
190.075,
705,
l
),
(
176.966,
705,
l
),
(
135.893,
705,
o
),
(
61.61,
706,
o
),
(
14.419,
708,
c
),
(
14.419,
638,
l
),
(
42.385,
634,
l
),
(
91.323,
627,
o
),
(
101.81,
616,
o
),
(
101.81,
552,
c
),
(
101.81,
156,
l
),
(
101.81,
92,
o
),
(
91.323,
81,
o
),
(
42.385,
74,
c
),
(
14.419,
71,
l
),
(
14.419,
1,
l
),
(
61.61,
2,
o
),
(
135.893,
3,
o
),
(
176.966,
3,
c
)
);
},
{
closed = 1;
nodes = (
(
433.895,
1,
o
),
(
489.825,
3,
o
),
(
547.503,
3,
cs
),
(
582.459,
3,
o
),
(
613.046,
2,
o
),
(
685.581,
0,
c
),
(
685.581,
70,
l
),
(
642.759,
83,
o
),
(
624.407,
103,
o
),
(
608.677,
156,
cs
),
(
580.712,
251,
ls
),
(
546.629,
366,
o
),
(
503.808,
403,
o
),
(
415.543,
420,
c
),
(
405.93,
359,
l
),
(
528.277,
549,
ls
),
(
567.603,
610,
o
),
(
599.938,
630,
o
),
(
669.85,
638,
c
),
(
669.85,
708,
l
),
(
587.703,
706,
o
),
(
557.116,
705,
o
),
(
524.782,
705,
cs
),
(
472.347,
705,
o
),
(
428.652,
706,
o
),
(
398.939,
708,
c
),
(
398.939,
638,
l
),
(
474.095,
635,
o
),
(
482.834,
597,
o
),
(
427.778,
508,
cs
),
(
395.443,
456,
ls
),
(
361.361,
402,
o
),
(
347.378,
391,
o
),
(
309.8,
391,
cs
),
(
242.509,
391,
l
),
(
242.509,
321,
l
),
(
309.8,
321,
ls
),
(
360.487,
321,
o
),
(
384.956,
298,
o
),
(
404.182,
233,
cs
),
(
433.021,
133,
ls
),
(
447.878,
82,
o
),
(
444.382,
75,
o
),
(
398.939,
70,
c
),
(
398.939,
0,
l
)
);
}
);
width = 700;
},
{
anchors = (
{
name = bottom;
pos = (
359.613,
0
);
},
{
name = center;
pos = (
379.713,
356
);
},
{
name = stroke;
pos = (
190.075,
520
);
},
{
name = top;
pos = (
356.991,
708
);
},
{
name = top_low_1;
pos = (
356.991,
688
);
},
{
name = top_low_2;
pos = (
356.991,
668
);
},
{
name = top_low_3;
pos = (
356.991,
648
);
}
);
associatedMasterId = "29EF49B2-C370-4E88-B36E-A4ACD23E3F3A";
background = {
anchors = (
{
name = bottom;
pos = (
425,
0
);
},
{
name = center;
pos = (
448,
356
);
},
{
name = stroke;
pos = (
231,
520
);
},
{
name = top;
pos = (
422,
708
);
},
{
name = top_low_1;
pos = (
422,
688
);
},
{
name = top_low_2;
pos = (
422,
668
);
},
{
name = top_low_3;
pos = (
422,
648
);
}
);
guides = (
{
pos = (
181,
321
);
}
);
hints = (
{
name = "_corner.UC-serif";
scale = (
-1,
1
);
type = Corner;
},
{
name = "_corner.UC-serif";
scale = (
1,
-1
);
type = Corner;
},
{
name = "_corner.UC-serif";
type = Corner;
}
);
shapes = (
{
closed = 1;
nodes = (
(
474.095,
2,
o
),
(
516.042,
3,
o
),
(
565.855,
3,
cs
),
(
601.685,
3,
o
),
(
641.011,
2,
o
),
(
685.581,
0,
c
),
(
685.581,
70,
l
),
(
642.759,
78,
o
),
(
625.281,
99,
o
),
(
608.677,
156,
cs
),
(
580.712,
251,
ls
),
(
546.629,
366,
o
),
(
503.808,
403,
o
),
(
415.543,
420,
c
),
(
405.93,
359,
l
),
(
528.277,
549,
ls
),
(
567.603,
610,
o
),
(
599.938,
630,
o
),
(
669.85,
638,
c
),
(
669.85,
708,
l
),
(
587.703,
706,
o
),
(
557.116,
705,
o
),
(
524.782,
705,
cs
),
(
461.86,
705,
o
),
(
408.552,
706,
o
),
(
372.722,
708,
c
),
(
372.722,
638,
l
),
(
471.473,
635,
o
),
(
482.834,
596,
o
),
(
427.778,
508,
cs
),
(
395.443,
456,
ls
),
(
361.361,
402,
o
),
(
347.378,
391,
o
),
(
309.8,
391,
cs
),
(
242.509,
391,
l
),
(
242.509,
321,
l
),
(
309.8,
321,
ls
),
(
360.487,
321,
o
),
(
384.082,
301,
o
),
(
404.182,
233,
cs
),
(
441.76,
103,
ls
),
(
452.247,
68,
o
),
(
453.995,
43,
o
),
(
452.247,
0,
c
)
);
},
{
closed = 1;
nodes = (
(
190.075,
3,
l
),
(
279.213,
0,
l
),
(
279.213,
708,
l
),
(
249.501,
706,
o
),
(
219.788,
705,
o
),
(
190.075,
705,
c
),
(
101.81,
708,
l
),
(
101.81,
0,
l
)
);
}
);
};
guides = (
{
pos = (
146.38,
321
);
}
);
layerId = "F1301196-1324-4ADD-A6ED-3E7101174EF1";
name = "2 Feb 22, 13:32";
shapes = (
{
closed = 1;
nodes = (
(
474.095,
2,
o
),
(
516.042,
3,
o
),
(
565.855,
3,
cs
),
(
601.685,
3,
o
),
(
641.011,
2,
o
),
(
685.581,
0,
c
),
(
685.581,
70,
l
),
(
642.759,
78,
o
),
(
625.281,
99,
o
),
(
608.677,
156,
cs
),
(
580.712,
251,
ls
),
(
546.629,
366,
o
),
(
503.808,
403,
o
),
(
415.543,
420,
c
),
(
405.93,
359,
l
),
(
528.277,
549,
ls
),
(
567.603,
610,
o
),
(
599.938,
630,
o
),
(
669.85,
638,
c
),
(
669.85,
708,
l
),
(
587.703,
706,
o
),
(
557.116,
705,
o
),
(
524.782,
705,
cs
),
(
461.86,
705,
o
),
(
408.552,
706,
o
),
(
372.722,
708,
c
),
(
372.722,
638,
l
),
(
471.473,
635,
o
),
(
482.834,
596,
o
),
(
427.778,
508,
cs
),
(
395.443,
456,
ls
),
(
361.361,
402,
o
),
(
347.378,
391,
o
),
(
309.8,
391,
cs
),
(
242.509,
391,
l
),
(
242.509,
321,
l
),
(
309.8,
321,
ls
),
(
360.487,
321,
o
),
(
384.082,
301,
o
),
(
404.182,
233,
cs
),
(
441.76,
103,
ls
),
(
452.247,
68,
o
),
(
453.995,
43,
o
),
(
452.247,
0,
c
)
);
},
{
closed = 1;
nodes = (
(
190.075,
3,
l
),
(
204.057,
3,
l
),
(
245.131,
3,
o
),
(
319.413,
2,
o
),
(
366.604,
0,
c
),
(
366.604,
70,
l
),
(
338.639,
74,
l
),
(
289.7,
81,
o
),
(
279.213,
92,
o
),
(
279.213,
156,
c
),
(
279.213,
708,
l
),
(
249.501,
706,
o
),
(
219.788,
705,
o
),
(
190.075,
705,
c
),
(
176.966,
705,
l
),
(
135.893,
705,
o
),
(
61.61,
706,
o
),
(
14.419,
708,
c
),
(
14.419,
638,
l
),
(
42.385,
634,
l
),
(
91.323,
627,
o
),
(
101.81,
616,
o
),
(
101.81,
552,
c
),
(
101.81,
156,
l
),
(
101.81,
92,
o
),
(
91.323,
81,
o
),
(
42.385,
74,
c
),
(
14.419,
71,
l
),
(
14.419,
1,
l
),
(
61.61,
2,
o
),
(
135.893,
3,
o
),
(
176.966,
3,
c
)
);
}
);
width = 700;
},
{
anchors = (
{
name = bottom;
pos = (
356.235,
0
);
},
{
name = center;
pos = (
368.705,
356
);
},
{
name = stroke;
pos = (
195.784,
520
);
},
{
name = top;
pos = (
333.789,
708
);
},
{
name = top_low_1;
pos = (
333.789,
688
);
},
{
name = top_low_2;
pos = (
333.789,
668
);
},
{
name = top_low_3;
pos = (
333.789,
648
);
}
);
associatedMasterId = "7300F074-2CFD-43CC-B20F-1BF1EAE6C2C7";
background = {
anchors = (
{
name = bottom;
pos = (
449,
0
);
},
{
name = center;
pos = (
464,
356
);
},
{
name = stroke;
pos = (
256,
520
);
},
{
name = top;
pos = (
422,
708
);
},
{
name = top_low_1;
pos = (
422,
688
);
},
{
name = top_low_2;
pos = (
422,
668
);
},
{
name = top_low_3;
pos = (
422,
648
);
}
);
guides = (
{
pos = (
123,
321
);
},
{
pos = (
11,
380
);
}
);
hints = (
{
name = "_corner.UC-serif";
scale = (
-1,
1
);
type = Corner;
},
{
name = "_corner.UC-serif";
scale = (
1,
-1
);
type = Corner;
},
{
name = "_corner.UC-serif";
type = Corner;
}
);
shapes = (
{
closed = 1;
nodes = (
(
532.482,
2,
o
),
(
549.941,
3,
o
),
(
569.893,
3,
cs
),
(
594.002,
3,
o
),
(
611.461,
2,
o
),
(
658.848,
0,
c
),
(
658.848,
70,
l
),
(
594.834,
74,
o
),
(
572.387,
90,
o
),
(
544.952,
147,
cs
),
(
483.432,
277,
ls
),
(
447.684,
353,
o
),
(
421.912,
377,
o
),
(
364.549,
391,
c
),
(
377.85,
351,
l
),
(
518.349,
553,
ls
),
(
559.086,
611,
o
),
(
585.689,
629,
o
),
(
641.39,
638,
c
),
(
641.39,
708,
l
),
(
615.618,
706,
o
),
(
575.713,
705,
o
),
(
529.157,
705,
cs
),
(
470.962,
705,
o
),
(
436.876,
706,
o
),
(
375.356,
708,
c
),
(
375.356,
638,
l
),
(
455.998,
636,
o
),
(
477.613,
604,
o
),
(
443.527,
555,
cs
),
(
367.874,
446,
ls
),
(
337.114,
402,
o
),
(
318.824,
391,
o
),
(
278.088,
391,
cs
),
(
206.591,
391,
l
),
(
206.591,
321,
l
),
(
278.088,
321,
ls
),
(
357.067,
321,
o
),
(
384.501,
304,
o
),
(
418.587,
231,
cs
),
(
475.95,
108,
ls
),
(
493.409,
71,
o
),
(
500.059,
36,
o
),
(
498.397,
0,
c
)
);
},
{
closed = 1;
nodes = (
(
195.784,
3,
l
),
(
234.857,
0,
l
),
(
234.857,
708,
l
),
(
221.556,
706,
o
),
(
209.086,
705,
o
),
(
195.784,
705,
c
),
(
157.542,
708,
l
),
(
157.542,
0,
l
)
);
}
);
};
guides = (
{
pos = (
85.214,
321
);
},
{
pos = (
-7.898,
380
);
}
);
layerId = "AB3A7453-1A69-4204-9BDD-D1698940CE0B";
name = "2 Feb 22, 13:32";
shapes = (
{
closed = 1;
nodes = (
(
532.482,
2,
o
),
(
549.941,
3,
o
),
(
569.893,
3,
cs
),
(
594.002,
3,
o
),
(
611.461,
2,
o
),
(
658.848,
0,
c
),
(
658.848,
70,
l
),
(
594.834,
74,
o
),
(
572.387,
90,
o
),
(
544.952,
147,
cs
),
(
483.432,
277,
ls
),
(
447.684,
353,
o
),
(
421.912,
377,
o
),
(
364.549,
391,
c
),
(
377.85,
351,
l
),
(
518.349,
553,
ls
),
(
559.086,
611,
o
),
(
585.689,
629,
o
),
(
641.39,
638,
c
),
(
641.39,
708,
l
),
(
615.618,
706,
o
),
(
575.713,
705,
o
),
(
529.157,
705,
cs
),
(
470.962,
705,
o
),
(
436.876,
706,
o
),
(
375.356,
708,
c
),
(
375.356,
638,
l
),
(
455.998,
636,
o
),
(
477.613,
604,
o
),
(
443.527,
555,
cs
),
(
367.874,
446,
ls
),
(
337.114,
402,
o
),
(
318.824,
391,
o
),
(
278.088,
391,
cs
),
(
206.591,
391,
l
),
(
206.591,
321,
l
),
(
278.088,
321,
ls
),
(
357.067,
321,
o
),
(
384.501,
304,
o
),
(
418.587,
231,
cs
),
(
475.95,
108,
ls
),
(
493.409,
71,
o
),
(
500.059,
36,
o
),
(
498.397,
0,
c
)
);
},
{
closed = 1;
nodes = (
(
195.784,
3,
l
),
(
204.929,
3,
l
),
(
254.81,
3,
o
),
(
321.318,
1,
o
),
(
351.247,
0,
c
),
(
351.247,
70,
l
),
(
313.836,
74,
l
),
(
250.653,
81,
o
),
(
234.857,
97,
o
),
(
234.857,
156,
c
),
(
234.857,
708,
l
),
(
221.556,
706,
o
),
(
209.086,
705,
o
),
(
195.784,
705,
c
),
(
187.47,
705,
l
),
(
137.589,
705,
o
),
(
71.081,
707,
o
),
(
41.152,
708,
c
),
(
41.152,
638,
l
),
(
78.563,
634,
l
),
(
141.746,
627,
o
),
(
157.542,
611,
o
),
(
157.542,
552,
c
),
(
157.542,
156,
l
),
(
157.542,
97,
o
),
(
141.746,
81,
o
),
(
78.563,
74,
c
),
(
41.152,
70,
l
),
(
41.152,
0,
l
),
(
71.081,
1,
o
),
(
137.589,
3,
o
),
(
187.47,
3,
c
)
);
}
);
width = 700;
},
{
anchors = (
{
name = bottom;
pos = (
356.954,
0
);
},
{
name = center;
pos = (
359.735,
354
);
},
{
name = stroke;
pos = (
158.543,
520
);
},
{
name = top;
pos = (
335.629,
708
);
},
{
name = top_low_1;
pos = (
335.629,
688
);
},
{
name = top_low_2;
pos = (
335.629,
668
);
},
{
name = top_low_3;
pos = (
335.629,
648
);
}
);
associatedMasterId = "F497C50F-30EB-4580-9148-0005B36D0333";
background = {
anchors = (
{
name = bottom;
pos = (
415,
0
);
},
{
name = center;
pos = (
418,
354
);
},
{
name = stroke;
pos = (
201,
520
);
},
{
name = top;
pos = (
392,
708
);
},
{
name = top_low_1;
pos = (
392,
688
);
},
{
name = top_low_2;
pos = (
392,
668
);
},
{
name = top_low_3;
pos = (
392,
648
);
}
);
guides = (
{
pos = (
15,
354
);
}
);
hints = (
{
name = "_corner.UC-serif";
scale = (
-1,
1
);
type = Corner;
},
{
name = "_corner.UC-serif";
scale = (
1,
-1
);
type = Corner;
},
{
name = "_corner.UC-serif";
type = Corner;
}
);
shapes = (
{
closed = 1;
nodes = (
(
484.901,
2,
o
),
(
516.424,
3,
o
),
(
551.656,
3,
cs
),
(
613.775,
3,
o
),
(
667.55,
2,
o
),
(
700,
0,
c
),
(
700,
1,
l
),
(
661.06,
11,
o
),
(
645.298,
31,
o
),
(
621.192,
97,
cs
),
(
572.053,
233,
ls
),
(
526.623,
358,
o
),
(
471.921,
415,
o
),
(
379.205,
431,
c
),
(
375.497,
425,
l
),
(
477.483,
549,
ls
),
(
548.874,
635,
o
),
(
592.45,
673,
o
),
(
658.278,
707,
c
),
(
658.278,
708,
l
),
(
595.232,
706,
o
),
(
569.272,
705,
o
),
(
541.457,
705,
cs
),
(
496.954,
705,
o
),
(
438.543,
706,
o
),
(
361.589,
708,
c
),
(
361.589,
707,
l
),
(
491.391,
699,
o
),
(
510.861,
592,
o
),
(
423.709,
486,
cs
),
(
373.642,
425,
ls
),
(
338.411,
383,
o
),
(
292.98,
355,
o
),
(
254.04,
355,
cs
),
(
214.172,
355,
l
),
(
214.172,
354,
l
),
(
254.04,
354,
ls
),
(
312.45,
354,
o
),
(
344.901,
318,
o
),
(
388.477,
198,
cs
),
(
432.98,
76,
ls
),
(
442.252,
50,
o
),
(
445.96,
25,
o
),
(
445.033,
0,
c
)
);
},
{
closed = 1;
nodes = (
(
158.543,
3,
l
),
(
253.113,
0,
l
),
(
253.113,
708,
l
),
(
221.589,
706,
o
),
(
190.066,
705,
o
),
(
158.543,
705,
c
),
(
64.901,
708,
l
),
(
64.901,
0,
l
)
);
}
);
};
guides = (
{
pos = (
-13.907,
354
);
}
);
layerId = "786F3FB3-43F3-4D0C-BAC2-6FA9965BFA7D";
name = "2 Feb 22, 13:32";
shapes = (
{
closed = 1;
nodes = (
(
484.901,
2,
o
),
(
516.424,
3,
o
),
(
551.656,
3,
cs
),
(
613.775,
3,
o
),
(
667.55,
2,
o
),
(
700,
0,
c
),
(
700,
1,
l
),
(
661.06,
11,
o
),
(
645.298,
31,
o
),
(
621.192,
97,
cs
),
(
572.053,
233,
ls
),
(
526.623,
358,
o
),
(
471.921,
415,
o
),
(
379.205,
431,
c
),
(
375.497,
425,
l
),
(
477.483,
549,
ls
),
(
548.874,
635,
o
),
(
592.45,
673,
o
),
(
658.278,
707,
c
),
(
658.278,
708,
l
),
(
595.232,
706,
o
),
(
569.272,
705,
o
),
(
541.457,
705,
cs
),
(
496.954,
705,
o
),
(
438.543,
706,
o
),
(
361.589,
708,
c
),
(
361.589,
707,
l
),
(
491.391,
699,
o
),
(
510.861,
592,
o
),
(
423.709,
486,
cs
),
(
373.642,
425,
ls
),
(
338.411,
383,
o
),
(
292.98,
355,
o
),
(
254.04,
355,
cs
),
(
214.172,
355,
l
),
(
214.172,
354,
l
),
(
254.04,
354,
ls
),
(
312.45,
354,
o
),
(
344.901,
318,
o
),
(
388.477,
198,
cs
),
(
432.98,
76,
ls
),
(
442.252,
50,
o
),
(
445.96,
25,
o
),
(
445.033,
0,
c
)
);
},
{
closed = 1;
nodes = (
(
158.543,
3,
l
),
(
173.377,
3,
l
),
(
241.06,
3,
o
),
(
291.126,
1,
o
),
(
318.013,
0,
c
),
(
318.013,
1,
l
),
(
303.179,
3,
l
),
(
261.457,
8,
o
),
(
253.113,
24,
o
),
(
253.113,
87,
c
),
(
253.113,
708,
l
),
(
221.589,
706,
o
),
(
190.066,
705,
o
),
(
158.543,
705,
c
),
(
144.636,
705,
l
),
(
76.954,
705,
o
),
(
26.887,
707,
o
),
(
0,
708,
c
),
(
0,
707,
l
),
(
14.834,
705,
l
),
(
56.556,
700,
o
),
(
64.901,
684,
o
),
(
64.901,
621,
c
),
(
64.901,
87,
l
),
(
64.901,
24,
o
),
(
56.556,
8,
o
),
(
14.834,
3,
c
),
(
0,
1,
l
),
(
0,
0,
l
),
(
26.887,
1,
o
),
(
76.954,
3,
o
),
(
144.636,
3,
c
)
);
}
);
width = 700;
},
{
anchors = (
{
name = bottom;
pos = (
342.034,
0
);
},
{
name = center;
pos = (
382.859,
361
);
},
{
name = stroke;
pos = (
165.789,
520
);
},
{
name = top;
pos = (
331.081,
708
);
},
{
name = top_low_1;
pos = (
331.081,
688
);
},
{
name = top_low_2;
pos = (
331.081,
668
);
},
{
name = top_low_3;
pos = (
331.081,
648
);
}
);
associatedMasterId = "DF17D77B-A5C4-4843-826A-BC0F1C4CB224";
background = {
anchors = (
{
name = bottom;
pos = (
344,
0
);
},
{
name = center;
pos = (
385,
361
);
},
{
name = stroke;
pos = (
167,
520
);
},
{
name = top;
pos = (
333,
708
);
},
{
name = top_low_1;
pos = (
333,
688
);
},
{
name = top_low_2;
pos = (
333,
668
);
},
{
name = top_low_3;
pos = (
333,
648
);
}
);
guides = (
{
pos = (
12,
355
);
},
{
pos = (
12,
391
);
}
);
hints = (
{
name = "_corner.UC-serif";
scale = (
-1,
1
);
type = Corner;
},
{
name = "_corner.UC-serif";
scale = (
1,
-1
);
type = Corner;
},
{
name = "_corner.UC-serif";
type = Corner;
}
);
shapes = (
{
closed = 1;
nodes = (
(
512.304,
1,
o
),
(
534.211,
2,
o
),
(
555.121,
2,
cs
),
(
572.048,
2,
o
),
(
588.976,
1,
o
),
(
660.669,
0,
c
),
(
660.669,
1,
l
),
(
613.869,
6,
o
),
(
602.916,
17,
o
),
(
562.091,
97,
cs
),
(
489.403,
239,
ls
),
(
441.607,
332,
o
),
(
393.812,
377,
o
),
(
326.102,
392,
c
),
(
328.094,
386,
l
),
(
503.343,
606,
ls
),
(
553.129,
669,
o
),
(
577.027,
689,
o
),
(
639.758,
707,
c
),
(
639.758,
708,
l
),
(
620.839,
706,
o
),
(
590.967,
705,
o
),
(
553.129,
705,
cs
),
(
503.343,
705,
o
),
(
450.569,
706,
o
),
(
400.782,
708,
c
),
(
400.782,
707,
l
),
(
499.36,
701,
o
),
(
514.296,
621,
o
),
(
448.578,
539,
cs
),
(
365.932,
436,
ls
),
(
324.111,
384,
o
),
(
283.286,
362,
o
),
(
215.576,
362,
cs
),
(
188.691,
362,
l
),
(
188.691,
361,
l
),
(
215.576,
361,
ls
),
(
298.222,
361,
o
),
(
343.03,
328,
o
),
(
397.795,
221,
cs
),
(
472.475,
74,
ls
),
(
484.424,
51,
o
),
(
490.398,
26,
o
),
(
491.394,
0,
c
)
);
},
{
closed = 1;
nodes = (
(
165.789,
3,
l
),
(
212.589,
0,
l
),
(
212.589,
708,
l
),
(
198.649,
706,
o
),
(
183.713,
705,
o
),
(
165.789,
705,
c
),
(
119.986,
708,
l
),
(
119.986,
0,
l
)
);
}
);
};
guides = (
{
pos = (
11.451,
355
);
},
{
pos = (
11.451,
391
);
}
);
layerId = "540EEB22-E48A-4599-A0EB-EA25D0D29D4A";
name = "2 Feb 22, 13:32";
shapes = (
{
closed = 1;
nodes = (
(
512.304,
1,
o
),
(
534.211,
2,
o
),
(
555.121,
2,
cs
),
(
572.048,
2,
o
),
(
588.976,
1,
o
),
(
660.669,
0,
c
),
(
660.669,
1,
l
),
(
613.869,
6,
o
),
(
602.916,
17,
o
),
(
562.091,
97,
cs
),
(
489.403,
239,
ls
),
(
441.607,
332,
o
),
(
393.812,
377,
o
),
(
326.102,
392,
c
),
(
328.094,
386,
l
),
(
503.343,
606,
ls
),
(
553.129,
669,
o
),
(
577.027,
689,
o
),
(
639.758,
707,
c
),
(
639.758,
708,
l
),
(
620.839,
706,
o
),
(
590.967,
705,
o
),
(
553.129,
705,
cs
),
(
503.343,
705,
o
),
(
450.569,
706,
o
),
(
400.782,
708,
c
),
(
400.782,
707,
l
),
(
499.36,
701,
o
),
(
514.296,
621,
o
),
(
448.578,
539,
cs
),
(
365.932,
436,
ls
),
(
324.111,
384,
o
),
(
283.286,
362,
o
),
(
215.576,
362,
cs
),
(
188.691,
362,
l
),
(
188.691,
361,
l
),
(
215.576,
361,
ls
),
(
298.222,
361,
o
),
(
343.03,
328,
o
),
(
397.795,
221,
cs
),
(
472.475,
74,
ls
),
(
484.424,
51,
o
),
(
490.398,
26,
o
),
(
491.394,
0,
c
)
);
},
{
closed = 1;
nodes = (
(
165.789,
3,
l
),
(
176.743,
3,
l
),
(
229.516,
3,
o
),
(
269.346,
1,
o
),
(
293.243,
0,
c
),
(
293.243,
1,
l
),
(
277.312,
3,
l
),
(
221.55,
10,
o
),
(
212.589,
22,
o
),
(
212.589,
87,
c
),
(
212.589,
708,
l
),
(
198.649,
706,
o
),
(
183.713,
705,
o
),
(
165.789,
705,
c
),
(
155.832,
705,
l
),
(
103.058,
705,
o
),
(
63.229,
707,
o
),
(
39.331,
708,
c
),
(
39.331,
707,
l
),
(
55.263,
705,
l
),
(
111.024,
698,
o
),
(
119.986,
686,
o
),
(
119.986,
621,
c
),
(
119.986,
87,
l
),
(
119.986,
22,
o
),
(
111.024,
10,
o
),
(
55.263,
3,
c
),
(
39.331,
1,
l
),
(
39.331,
0,
l
),
(
63.229,
1,
o
),
(
103.058,
3,
o
),
(
155.832,
3,
c
)
);
}
);
width = 700;
}
);
metricLeft = I;
unicode = 75;
userData = {
KernOnName = K;
};
}
{
color = 5;
glyphname = L;
kernLeft = KO_H;
kernRight = KO_L;
layers = (
{
guides = (
{
pos = (
116,
230
);
},
{
pos = (
739,
528
);
}
);
layerId = "DF17D77B-A5C4-4843-826A-BC0F1C4CB224";
shapes = (
{
closed = 1;
nodes = (
(
213,
3,
l
),
(
376,
3,
l
),
(
485,
3,
o
),
(
555,
2,
o
),
(
605,
0,
c
),
(
606,
72,
o
),
(
611,
147,
o
),
(
621,
230,
c
),
(
620,
230,
l
),
(
574,
48,
o
),
(
534,
4,
o
),
(
414,
4,
c
),
(
341,
4,
ls
),
(
271,
4,
o
),
(
260,
16,
o
),
(
260,
87,
cs
),
(
260,
458,
l
),
(
167,
458,
l
),
(
167,
87,
l
),
(
167,
22,
o
),
(
158,
10,
o
),
(
102,
3,
c
),
(
86,
1,
l
),
(
86,
0,
l
),
(
110,
1,
o
),
(
150,
3,
o
),
(
203,
3,
c
)
);
},
{
closed = 1;
nodes = (
(
150,
705,
o
),
(
110,
707,
o
),
(
86,
708,
c
),
(
86,
707,
l
),
(
102,
705,
l
),
(
158,
698,
o
),
(
167,
686,
o
),
(
167,
621,
c
),
(
167,
458,
l
),
(
260,
458,
l
),
(
260,
621,
l
),
(
260,
685,
o
),
(
270,
698,
o
),
(
333,
705,
c
),
(
357,
707,
l
),
(
357,
708,
l
),
(
329,
707,
o
),
(
278,
705,
o
),
(
220,
705,
c
),
(
214,
705,
l
),
(
203,
705,
l
)
);
}
);
width = 700;
},
{
guides = (
{
pos = (
70.5,
250
);
},
{
pos = (
693.5,
528
);
}
);
layerId = "7300F074-2CFD-43CC-B20F-1BF1EAE6C2C7";
shapes = (
{
closed = 1;
nodes = (
(
257.5,
3,
l
),
(
420.5,
3,
l
),
(
520.5,
3,
o
),
(
594.5,
2,
o
),
(
649.5,
0,
c
),
(
650.5,
92,
o
),
(
655.5,
174,
o
),
(
665.5,
250,
c
),
(
592.5,
250,
l
),
(
554.5,
104,
o
),
(
522.5,
73,
o
),
(
408.5,
73,
c
),
(
385.5,
73,
ls
),
(
315.5,
73,
o
),
(
304.5,
85,
o
),
(
304.5,
156,
cs
),
(
304.5,
458,
l
),
(
211.5,
458,
l
),
(
211.5,
156,
l
),
(
211.5,
97,
o
),
(
192.5,
81,
o
),
(
116.5,
74,
c
),
(
71.5,
70,
l
),
(
71.5,
0,
l
),
(
107.5,
1,
o
),
(
187.5,
3,
o
),
(
247.5,
3,
c
)
);
},
{
closed = 1;
nodes = (
(
187.5,
705,
o
),
(
107.5,
707,
o
),
(
71.5,
708,
c
),
(
71.5,
638,
l
),
(
116.5,
634,
l
),
(
192.5,
627,
o
),
(
211.5,
611,
o
),
(
211.5,
552,
c
),
(
211.5,
458,
l
),
(
304.5,
458,
l
),
(
304.5,
552,
l
),
(
304.5,
611,
o
),
(
320.5,
625,
o
),
(
390.5,
631,
c
),
(
472.5,
638,
l
),
(
472.5,
708,
l
),
(
424.5,
707,
o
),
(
332.5,
705,
o
),
(
260.5,
705,
c
),
(
258.5,
705,
l
),
(
247.5,
705,
l
)
);
}
);
width = 700;
},
{
guides = (
{
pos = (
115,
280
);
},
{
pos = (
738,
528
);
}
);
layerId = "F497C50F-30EB-4580-9148-0005B36D0333";
shapes = (
{
closed = 1;
nodes = (
(
223,
3,
l
),
(
381,
3,
l
),
(
503,
3,
o
),
(
580,
2,
o
),
(
635,
0,
c
),
(
634,
87,
o
),
(
638,
181,
o
),
(
646,
280,
c
),
(
645,
280,
l
),
(
591,
118,
o
),
(
504,
4,
o
),
(
381,
4,
c
),
(
376,
4,
ls
),
(
332,
4,
o
),
(
325,
13,
o
),
(
325,
67,
cs
),
(
325,
458,
l
),
(
122,
458,
l
),
(
122,
87,
l
),
(
122,
24,
o
),
(
113,
8,
o
),
(
68,
3,
c
),
(
52,
1,
l
),
(
52,
0,
l
),
(
81,
1,
o
),
(
135,
3,
o
),
(
208,
3,
c
)
);
},
{
closed = 1;
nodes = (
(
135,
705,
o
),
(
81,
707,
o
),
(
52,
708,
c
),
(
52,
707,
l
),
(
68,
705,
l
),
(
113,
700,
o
),
(
122,
684,
o
),
(
122,
621,
c
),
(
122,
458,
l
),
(
325,
458,
l
),
(
325,
621,
l
),
(
325,
683,
o
),
(
335,
698,
o
),
(
386,
705,
c
),
(
409,
707,
l
),
(
409,
708,
l
),
(
377,
707,
o
),
(
318,
705,
o
),
(
239,
705,
c
),
(
224,
705,
l
),
(
208,
705,
l
)
);
}
);
width = 700;
},
{
guides = (
{
pos = (
100,
280
);
},
{
pos = (
723,
528
);
}
);
layerId = "29EF49B2-C370-4E88-B36E-A4ACD23E3F3A";
shapes = (
{
closed = 1;
nodes = (
(
238,
3,
l
),
(
416,
3,
l
),
(
528,
3,
o
),
(
599,
2,
o
),
(
650,
0,
c
),
(
649,
87,
o
),
(
653,
181,
o
),
(
661,
280,
c
),
(
588,
280,
l
),
(
546,
150,
o
),
(
477,
73,
o
),
(
404,
73,
c
),
(
391,
73,
ls
),
(
347,
73,
o
),
(
340,
82,
o
),
(
340,
136,
cs
),
(
340,
458,
l
),
(
137,
458,
l
),
(
137,
156,
l
),
(
137,
92,
o
),
(
125,
81,
o
),
(
69,
74,
c
),
(
37,
71,
l
),
(
37,
1,
l
),
(
91,
2,
o
),
(
176,
3,
o
),
(
223,
3,
c
)
);
},
{
closed = 1;
nodes = (
(
176,
705,
o
),
(
91,
706,
o
),
(
37,
707,
c
),
(
37,
637,
l
),
(
69,
634,
l
),
(
125,
627,
o
),
(
137,
616,
o
),
(
137,
552,
c
),
(
137,
458,
l
),
(
340,
458,
l
),
(
340,
552,
l
),
(
340,
614,
o
),
(
352,
626,
o
),
(
407,
632,
c
),
(
460,
638,
l
),
(
460,
708,
l
),
(
393,
706,
o
),
(
306,
705,
o
),
(
254,
705,
c
),
(
240,
705,
l
),
(
223,
706,
l
)
);
}
);
width = 700;
}
);
metricLeft = I;
metricRight = T;
unicode = 76;
userData = {
KernOnName = L;
};
}
{
color = 5;
glyphname = P;
kernLeft = KO_H;
kernRight = KO_P;
layers = (
{
background = {
anchors = (
{
name = bottom;
pos = (
161,
0
);
},
{
name = center;
pos = (
301,
504
);
},
{
name = stroke;
pos = (
161,
504
);
},
{
name = top;
pos = (
301,
708
);
},
{
name = top_low_1;
pos = (
301,
688
);
},
{
name = top_low_2;
pos = (
301,
668
);
},
{
name = top_low_3;
pos = (
301,
648
);
}
);
guides = (
{
pos = (
229,
504
);
},
{
angle = 90;
pos = (
301,
466
);
},
{
pos = (
752,
180
);
}
);
hints = (
{
name = "_corner.UC-serif";
origin = (
0,
24
);
type = Corner;
},
{
name = "_corner.UC-serif";
origin = (
0,
1
);
scale = (
-1.5,
1
);
type = Corner;
},
{
name = "_corner.UC-serif-to-bowl";
origin = (
0,
23
);
scale = (
1,
-1
);
type = Corner;
}
);
shapes = (
{
closed = 1;
nodes = (
(
217.5,
3,
l
),
(
264.5,
0,
l
),
(
264.5,
704,
l
),
(
337.5,
704,
ls
),
(
452.5,
704,
o
),
(
504.5,
642,
o
),
(
504.5,
504,
cs
),
(
504.5,
361,
o
),
(
450.5,
297,
o
),
(
331.5,
297,
cs
),
(
299.5,
297,
o
),
(
272.5,
300,
o
),
(
245.5,
306,
c
),
(
245.5,
305,
l
),
(
274.5,
298,
o
),
(
300.5,
295,
o
),
(
341.5,
295,
cs
),
(
501.5,
295,
o
),
(
604.5,
379,
o
),
(
604.5,
510,
cs
),
(
604.5,
633,
o
),
(
514.5,
708,
o
),
(
365.5,
708,
cs
),
(
171.5,
708,
l
),
(
171.5,
0,
l
)
);
}
);
};
layerId = "DF17D77B-A5C4-4843-826A-BC0F1C4CB224";
shapes = (
{
closed = 1;
nodes = (
(
270.5,
250,
l
),
(
270.5,
704,
l
),
(
343.5,
704,
ls
),
(
458.5,
704,
o
),
(
510.5,
642,
o
),
(
510.5,
504,
cs
),
(
510.5,
361,
o
),
(
456.5,
297,
o
),
(
337.5,
297,
cs
),
(
305.5,
297,
o
),
(
278.5,
300,
o
),
(
251.5,
306,
c
),
(
251.5,
305,
l
),
(
280.5,
298,
o
),
(
306.5,
295,
o
),
(
347.5,
295,
cs
),
(
507.5,
295,
o
),
(
610.5,
379,
o
),
(
610.5,
510,
cs
),
(
610.5,
633,
o
),
(
520.5,
708,
o
),
(
371.5,
708,
cs
),
(
332.5,
708,
l
),
(
310.5,
708,
o
),
(
272.5,
705,
o
),
(
224.5,
705,
c
),
(
167.5,
705,
o
),
(
122.5,
707,
o
),
(
96.5,
708,
c
),
(
96.5,
707,
l
),
(
112.5,
705,
l
),
(
168.5,
698,
o
),
(
177.5,
686,
o
),
(
177.5,
621,
c
),
(
177.5,
250,
l
)
);
},
{
closed = 1;
nodes = (
(
224.5,
3,
l
),
(
230.5,
3,
l
),
(
288.5,
3,
o
),
(
339.5,
1,
o
),
(
367.5,
0,
c
),
(
367.5,
1,
l
),
(
343.5,
3,
l
),
(
280.5,
10,
o
),
(
270.5,
23,
o
),
(
270.5,
87,
c
),
(
270.5,
250,
l
),
(
177.5,
250,
l
),
(
177.5,
87,
l
),
(
177.5,
22,
o
),
(
168.5,
10,
o
),
(
112.5,
3,
c
),
(
96.5,
1,
l
),
(
96.5,
0,
l
),
(
120.5,
1,
o
),
(
160.5,
3,
o
),
(
213.5,
3,
c
)
);
}
);
width = 700;
},
{
background = {
anchors = (
{
name = bottom;
pos = (
251,
0
);
},
{
name = center;
pos = (
391,
489
);
},
{
name = stroke;
pos = (
251,
490
);
},
{
name = top;
pos = (
391,
708
);
},
{
name = top_low_1;
pos = (
391,
688
);
},
{
name = top_low_2;
pos = (
391,
668
);
},
{
name = top_low_3;
pos = (
391,
648
);
}
);
guides = (
{
pos = (
319,
489
);
},
{
angle = 90;
pos = (
391,
451
);
},
{
pos = (
752,
180
);
}
);
hints = (
{
name = "_corner.UC-serif";
origin = (
0,
24
);
type = Corner;
},
{
name = "_corner.UC-serif";
origin = (
0,
1
);
scale = (
-1.5,
1
);
type = Corner;
},
{
name = "_corner.UC-serif-to-bowl";
origin = (
0,
23
);
scale = (
1,
-1
);
type = Corner;
}
);
shapes = (
{
closed = 1;
nodes = (
(
244.452,
3,
l
),
(
291.252,
0,
l
),
(
291.252,
638,
l
),
(
371.906,
638,
ls
),
(
477.454,
638,
o
),
(
530.228,
587,
o
),
(
530.228,
486,
cs
),
(
530.228,
386,
o
),
(
469.488,
331,
o
),
(
357.966,
331,
cs
),
(
325.107,
331,
o
),
(
298.222,
335,
o
),
(
272.333,
344,
c
),
(
272.333,
274,
l
),
(
298.222,
265,
o
),
(
328.094,
261,
o
),
(
367.923,
261,
cs
),
(
532.219,
261,
o
),
(
629.801,
345,
o
),
(
629.801,
488,
cs
),
(
629.801,
626,
o
),
(
541.181,
708,
o
),
(
389.829,
708,
cs
),
(
198.649,
708,
l
),
(
198.649,
0,
l
)
);
}
);
};
guides = (
{
pos = (
312.162,
489
);
},
{
angle = 90;
pos = (
383.855,
451
);
},
{
pos = (
743.314,
180
);
}
);
layerId = "7300F074-2CFD-43CC-B20F-1BF1EAE6C2C7";
shapes = (
{
closed = 1;
nodes = (
(
297.226,
250,
l
),
(
297.226,
638,
l
),
(
377.881,
638,
ls
),
(
483.428,
638,
o
),
(
536.202,
587,
o
),
(
536.202,
486,
cs
),
(
536.202,
386,
o
),
(
475.462,
331,
o
),
(
363.94,
331,
cs
),
(
331.081,
331,
o
),
(
304.196,
335,
o
),
(
278.307,
344,
c
),
(
278.307,
274,
l
),
(
304.196,
265,
o
),
(
334.068,
261,
o
),
(
373.898,
261,
cs
),
(
538.193,
261,
o
),
(
635.775,
345,
o
),
(
635.775,
488,
cs
),
(
635.775,
626,
o
),
(
547.155,
708,
o
),
(
395.804,
708,
cs
),
(
378.876,
708,
l
),
(
352.987,
708,
o
),
(
294.239,
705,
o
),
(
251.422,
705,
c
),
(
188.691,
705,
o
),
(
102.063,
707,
o
),
(
64.225,
708,
c
),
(
64.225,
638,
l
),
(
118.99,
633,
l
),
(
189.687,
627,
o
),
(
204.623,
608,
o
),
(
204.623,
552,
c
),
(
204.623,
250,
l
)
);
},
{
closed = 1;
nodes = (
(
251.422,
3,
l
),
(
253.414,
3,
l
),
(
325.107,
3,
o
),
(
416.714,
1,
o
),
(
464.509,
0,
c
),
(
464.509,
70,
l
),
(
382.859,
77,
l
),
(
313.158,
83,
o
),
(
297.226,
97,
o
),
(
297.226,
156,
c
),
(
297.226,
250,
l
),
(
204.623,
250,
l
),
(
204.623,
156,
l
),
(
204.623,
97,
o
),
(
185.704,
81,
o
),
(
110.028,
74,
c
),
(
65.22,
70,
l
),
(
65.22,
0,
l
),
(
101.067,
1,
o
),
(
180.725,
3,
o
),
(
240.469,
3,
c
)
);
}
);
width = 700;
},
{
background = {
anchors = (
{
name = bottom;
pos = (
210,
0
);
},
{
name = center;
pos = (
365,
504
);
},
{
name = stroke;
pos = (
213,
504
);
},
{
name = top;
pos = (
365,
708
);
},
{
name = top_low_1;
pos = (
365,
688
);
},
{
name = top_low_2;
pos = (
365,
668
);
},
{
name = top_low_3;
pos = (
365,
648
);
}
);
guides = (
{
pos = (
299,
504
);
},
{
pos = (
293,
504
);
},
{
angle = 90;
pos = (
365,
466
);
},
{
pos = (
770,
180
);
}
);
hints = (
{
name = "_corner.UC-serif";
origin = (
0,
24
);
type = Corner;
},
{
name = "_corner.UC-serif";
origin = (
0,
1
);
scale = (
-1.5,
1
);
type = Corner;
},
{
name = "_corner.UC-serif-to-bowl";
origin = (
0,
23
);
scale = (
1,
-1
);
type = Corner;
}
);
shapes = (
{
closed = 1;
nodes = (
(
222,
3,
l
),
(
324,
0,
l
),
(
324,
705,
l
),
(
375,
705,
ls
),
(
444,
705,
o
),
(
474,
646,
o
),
(
474,
508,
cs
),
(
474,
360,
o
),
(
437,
296,
o
),
(
351,
296,
cs
),
(
312,
296,
o
),
(
282,
300,
o
),
(
255,
309,
c
),
(
255,
308,
l
),
(
285,
299,
o
),
(
318,
295,
o
),
(
361,
295,
cs
),
(
569,
295,
o
),
(
684,
371,
o
),
(
684,
508,
cs
),
(
684,
643,
o
),
(
586,
708,
o
),
(
383,
708,
cs
),
(
121,
708,
l
),
(
121,
0,
l
)
);
}
);
};
guides = (
{
pos = (
311,
504
);
},
{
pos = (
305,
504
);
},
{
angle = 90;
pos = (
377,
466
);
},
{
pos = (
782,
180
);
}
);
layerId = "F497C50F-30EB-4580-9148-0005B36D0333";
shapes = (
{
closed = 1;
nodes = (
(
316,
250,
l
),
(
316,
705,
l
),
(
367,
705,
ls
),
(
436,
705,
o
),
(
466,
646,
o
),
(
466,
508,
cs
),
(
466,
360,
o
),
(
429,
296,
o
),
(
343,
296,
cs
),
(
304,
296,
o
),
(
274,
300,
o
),
(
247,
309,
c
),
(
247,
308,
l
),
(
277,
299,
o
),
(
310,
295,
o
),
(
353,
295,
cs
),
(
561,
295,
o
),
(
676,
371,
o
),
(
676,
508,
cs
),
(
676,
643,
o
),
(
578,
708,
o
),
(
375,
708,
cs
),
(
358,
708,
l
),
(
332,
708,
o
),
(
284,
705,
o
),
(
220,
705,
c
),
(
137,
705,
o
),
(
75,
707,
o
),
(
42,
708,
c
),
(
42,
707,
l
),
(
58,
705,
l
),
(
103,
700,
o
),
(
113,
684,
o
),
(
113,
621,
c
),
(
113,
250,
l
)
);
},
{
closed = 1;
nodes = (
(
215,
3,
l
),
(
230,
3,
l
),
(
309,
3,
o
),
(
368,
1,
o
),
(
400,
0,
c
),
(
400,
1,
l
),
(
377,
3,
l
),
(
326,
10,
o
),
(
316,
25,
o
),
(
316,
87,
c
),
(
316,
250,
l
),
(
113,
250,
l
),
(
113,
87,
l
),
(
113,
24,
o
),
(
104,
8,
o
),
(
59,
3,
c
),
(
43,
1,
l
),
(
43,
0,
l
),
(
72,
1,
o
),
(
126,
3,
o
),
(
199,
3,
c
)
);
}
);
width = 700;
},
{
background = {
anchors = (
{
name = bottom;
pos = (
240,
0
);
},
{
name = center;
pos = (
395,
489
);
},
{
name = stroke;
pos = (
243,
489
);
},
{
name = top;
pos = (
395,
708
);
},
{
name = top_low_1;
pos = (
395,
688
);
},
{
name = top_low_2;
pos = (
395,
668
);
},
{
name = top_low_3;
pos = (
395,
648
);
}
);
guides = (
{
pos = (
323,
504
);
},
{
angle = 90;
pos = (
395,
466
);
},
{
pos = (
323,
489
);
},
{
angle = 90;
pos = (
395,
451
);
},
{
pos = (
770,
180
);
}
);
hints = (
{
name = "_corner.UC-serif";
origin = (
0,
24
);
type = Corner;
},
{
name = "_corner.UC-serif";
origin = (
0,
1
);
scale = (
-1.5,
1
);
type = Corner;
},
{
name = "_corner.UC-serif-to-bowl";
origin = (
0,
23
);
scale = (
1,
-1
);
type = Corner;
}
);
shapes = (
{
closed = 1;
nodes = (
(
229.037,
3,
l
),
(
330.17,
0,
l
),
(
330.17,
638,
l
),
(
383.711,
638,
ls
),
(
448.159,
638,
o
),
(
478.895,
590,
o
),
(
478.895,
486,
cs
),
(
478.895,
374,
o
),
(
444.193,
331,
o
),
(
350.992,
331,
cs
),
(
318.272,
331,
o
),
(
284.561,
336,
o
),
(
261.756,
344,
c
),
(
261.756,
274,
l
),
(
283.569,
267,
o
),
(
343.059,
260,
o
),
(
385.694,
260,
cs
),
(
575.071,
260,
o
),
(
687.11,
346,
o
),
(
687.11,
493,
cs
),
(
687.11,
634,
o
),
(
584.986,
708,
o
),
(
388.669,
708,
cs
),
(
128.895,
708,
l
),
(
128.895,
0,
l
)
);
}
);
};
guides = (
{
pos = (
311.331,
504
);
},
{
angle = 90;
pos = (
382.72,
466
);
},
{
pos = (
311.331,
489
);
},
{
angle = 90;
pos = (
382.72,
451
);
},
{
pos = (
754.533,
180
);
}
);
layerId = "29EF49B2-C370-4E88-B36E-A4ACD23E3F3A";
shapes = (
{
closed = 1;
nodes = (
(
322.238,
250,
l
),
(
322.238,
638,
l
),
(
375.779,
638,
ls
),
(
440.227,
638,
o
),
(
470.963,
590,
o
),
(
470.963,
486,
cs
),
(
470.963,
374,
o
),
(
436.261,
331,
o
),
(
343.059,
331,
cs
),
(
310.34,
331,
o
),
(
276.629,
336,
o
),
(
253.824,
344,
c
),
(
253.824,
274,
l
),
(
275.637,
267,
o
),
(
335.127,
260,
o
),
(
377.762,
260,
cs
),
(
567.139,
260,
o
),
(
679.178,
346,
o
),
(
679.178,
493,
cs
),
(
679.178,
634,
o
),
(
577.054,
708,
o
),
(
380.737,
708,
cs
),
(
344.051,
708,
l
),
(
310.34,
708,
o
),
(
256.799,
705,
o
),
(
227.054,
705,
c
),
(
174.504,
705,
o
),
(
80.312,
706,
o
),
(
20.822,
708,
c
),
(
20.822,
638,
l
),
(
53.541,
635,
l
),
(
109.065,
630,
o
),
(
120.963,
616,
o
),
(
120.963,
552,
c
),
(
120.963,
250,
l
)
);
},
{
closed = 1;
nodes = (
(
223.088,
3,
l
),
(
236.969,
3,
l
),
(
288.527,
3,
o
),
(
374.788,
2,
o
),
(
441.218,
0,
c
),
(
441.218,
70,
l
),
(
388.669,
76,
l
),
(
334.136,
82,
o
),
(
322.238,
94,
o
),
(
322.238,
156,
c
),
(
322.238,
250,
l
),
(
120.963,
250,
l
),
(
120.963,
156,
l
),
(
120.963,
92,
o
),
(
109.065,
81,
o
),
(
53.541,
74,
c
),
(
21.813,
71,
l
),
(
21.813,
1,
l
),
(
75.354,
2,
o
),
(
159.632,
3,
o
),
(
206.232,
2,
c
)
);
}
);
width = 700;
}
);
metricLeft = I;
unicode = 80;
userData = {
KernOnName = P;
};
}
{
color = 5;
glyphname = R;
kernLeft = KO_H;
kernRight = KO_R;
layers = (
{
anchors = (
{
name = baseline_left;
pos = (
115.5,
0
);
},
{
name = bottom;
pos = (
329.5,
0
);
},
{
name = center;
pos = (
162.5,
346
);
},
{
name = stem;
pos = (
115.5,
180
);
},
{
name = top;
pos = (
288.5,
708
);
}
);
layerId = "DF17D77B-A5C4-4843-826A-BC0F1C4CB224";
shapes = (
{
closed = 1;
nodes = (
(
208.5,
180,
l
),
(
208.5,
704,
l
),
(
280.5,
704,
ls
),
(
391.5,
704,
o
),
(
448.5,
642,
o
),
(
448.5,
520,
cs
),
(
448.5,
401,
o
),
(
393.5,
346,
o
),
(
275.5,
346,
cs
),
(
159.5,
346,
l
),
(
159.5,
345,
l
),
(
285.5,
345,
ls
),
(
441.5,
345,
o
),
(
548.5,
422,
o
),
(
548.5,
534,
cs
),
(
548.5,
640,
o
),
(
454.5,
708,
o
),
(
307.5,
708,
cs
),
(
283.5,
708,
o
),
(
226.5,
705,
o
),
(
161.5,
705,
c
),
(
151.5,
705,
l
),
(
98.5,
705,
o
),
(
58.5,
707,
o
),
(
34.5,
708,
c
),
(
34.5,
707,
l
),
(
50.5,
705,
l
),
(
106.5,
698,
o
),
(
115.5,
686,
o
),
(
115.5,
621,
c
),
(
115.5,
180,
l
)
);
},
{
closed = 1;
nodes = (
(
604.5,
-14,
o
),
(
632.5,
3,
o
),
(
665.5,
50,
c
),
(
664.5,
51,
l
),
(
641.5,
21,
o
),
(
630.5,
13,
o
),
(
611.5,
12,
cs
),
(
575.5,
10,
o
),
(
559.5,
32,
o
),
(
543.5,
105,
cs
),
(
520.5,
208,
ls
),
(
495.5,
321,
o
),
(
451.5,
346,
o
),
(
278.5,
346,
cs
),
(
175.5,
346,
l
),
(
175.5,
345,
l
),
(
280.5,
345,
ls
),
(
377.5,
345,
o
),
(
397.5,
328,
o
),
(
418.5,
232,
cs
),
(
448.5,
94,
ls
),
(
464.5,
19,
o
),
(
498.5,
-14,
o
),
(
559.5,
-14,
cs
)
);
},
{
closed = 1;
nodes = (
(
162.5,
3,
l
),
(
172.5,
3,
l
),
(
225.5,
3,
o
),
(
265.5,
1,
o
),
(
289.5,
0,
c
),
(
289.5,
1,
l
),
(
273.5,
3,
l
),
(
217.5,
10,
o
),
(
208.5,
22,
o
),
(
208.5,
87,
c
),
(
208.5,
180,
l
),
(
115.5,
180,
l
),
(
115.5,
87,
l
),
(
115.5,
22,
o
),
(
106.5,
10,
o
),
(
50.5,
3,
c
),
(
34.5,
1,
l
),
(
34.5,
0,
l
),
(
58.5,
1,
o
),
(
98.5,
3,
o
),
(
151.5,
3,
c
)
);
}
);
width = 700;
},
{
anchors = (
{
name = baseline_left;
pos = (
163.49,
0
);
},
{
name = bottom;
pos = (
364.564,
0
);
},
{
name = center;
pos = (
207.651,
346
);
},
{
name = stem;
pos = (
163.49,
180
);
},
{
name = top;
pos = (
326.04,
708
);
}
);
layerId = "7300F074-2CFD-43CC-B20F-1BF1EAE6C2C7";
shapes = (
{
closed = 1;
nodes = (
(
250.872,
180,
l
),
(
250.872,
638,
l
),
(
320.403,
638,
ls
),
(
426.577,
638,
o
),
(
476.376,
597,
o
),
(
476.376,
510,
cs
),
(
476.376,
422,
o
),
(
428.456,
381,
o
),
(
323.221,
381,
cs
),
(
214.228,
381,
l
),
(
214.228,
326,
l
),
(
323.221,
326,
ls
),
(
469.799,
326,
o
),
(
570.336,
405,
o
),
(
570.336,
521,
cs
),
(
570.336,
637,
o
),
(
483.893,
708,
o
),
(
343.893,
708,
cs
),
(
322.282,
708,
o
),
(
264.027,
705,
o
),
(
206.711,
705,
c
),
(
197.315,
705,
l
),
(
140.94,
705,
o
),
(
65.772,
707,
o
),
(
31.946,
708,
c
),
(
31.946,
638,
l
),
(
74.228,
634,
l
),
(
145.638,
627,
o
),
(
163.49,
611,
o
),
(
163.49,
552,
c
),
(
163.49,
180,
l
)
);
},
{
closed = 1;
nodes = (
(
609.799,
-14,
o
),
(
643.624,
7,
o
),
(
668.054,
50,
c
),
(
631.409,
94,
l
),
(
615.436,
78,
o
),
(
606.04,
73,
o
),
(
591.946,
73,
cs
),
(
570.336,
73,
o
),
(
556.242,
90,
o
),
(
548.725,
126,
cs
),
(
537.45,
182,
ls
),
(
509.262,
322,
o
),
(
463.221,
358,
o
),
(
312.886,
358,
cs
),
(
210.47,
358,
l
),
(
210.47,
311,
l
),
(
330.738,
311,
ls
),
(
395.57,
311,
o
),
(
430.336,
277,
o
),
(
446.309,
196,
cs
),
(
466.98,
94,
ls
),
(
482.013,
19,
o
),
(
513.02,
-14,
o
),
(
567.517,
-14,
cs
)
);
},
{
closed = 1;
nodes = (
(
207.651,
3,
l
),
(
206.711,
3,
l
),
(
243.356,
3,
o
),
(
294.094,
1,
o
),
(
316.644,
0,
c
),
(
316.644,
70,
l
),
(
302.55,
73,
l
),
(
260.268,
82,
o
),
(
250.872,
97,
o
),
(
250.872,
156,
c
),
(
250.872,
180,
l
),
(
163.49,
180,
l
),
(
163.49,
156,
l
),
(
163.49,
97,
o
),
(
145.638,
81,
o
),
(
74.228,
74,
c
),
(
31.946,
70,
l
),
(
31.946,
0,
l
),
(
65.772,
1,
o
),
(
140.94,
3,
o
),
(
197.315,
3,
c
)
);
}
);
width = 700;
},
{
anchors = (
{
name = baseline_left;
pos = (
69.321,
0
);
},
{
name = bottom;
pos = (
344.668,
0
);
},
{
name = center;
pos = (
168.213,
346
);
},
{
name = stem;
pos = (
69.321,
180
);
},
{
name = top;
pos = (
304.917,
708
);
}
);
layerId = "F497C50F-30EB-4580-9148-0005B36D0333";
shapes = (
{
closed = 1;
nodes = (
(
266.136,
180,
l
),
(
266.136,
705,
l
),
(
304.917,
705,
ls
),
(
390.235,
705,
o
),
(
421.26,
649,
o
),
(
421.26,
532,
cs
),
(
421.26,
406,
o
),
(
379.571,
346,
o
),
(
292.313,
346,
cs
),
(
179.848,
346,
l
),
(
179.848,
345,
l
),
(
302.008,
345,
ls
),
(
500.762,
345,
o
),
(
605.471,
410,
o
),
(
605.471,
533,
cs
),
(
605.471,
654,
o
),
(
518.213,
708,
o
),
(
325.277,
708,
cs
),
(
292.313,
708,
o
),
(
230.263,
705,
o
),
(
167.244,
705,
c
),
(
152.701,
705,
l
),
(
81.925,
705,
o
),
(
29.571,
707,
o
),
(
1.454,
708,
c
),
(
1.454,
707,
l
),
(
16.967,
705,
l
),
(
60.596,
700,
o
),
(
69.321,
684,
o
),
(
69.321,
621,
c
),
(
69.321,
180,
l
)
);
},
{
closed = 1;
nodes = (
(
622.922,
-14,
o
),
(
663.643,
2,
o
),
(
698.546,
40,
c
),
(
697.576,
41,
l
),
(
687.881,
31,
o
),
(
679.155,
27,
o
),
(
668.49,
27,
cs
),
(
638.435,
27,
o
),
(
623.892,
47,
o
),
(
612.258,
105,
cs
),
(
597.715,
179,
ls
),
(
573.476,
304,
o
),
(
496.884,
346,
o
),
(
293.283,
346,
cs
),
(
185.665,
346,
l
),
(
185.665,
345,
l
),
(
309.765,
345,
ls
),
(
359.211,
345,
o
),
(
376.662,
320,
o
),
(
389.266,
234,
cs
),
(
403.809,
134,
ls
),
(
420.291,
21,
o
),
(
457.133,
-14,
o
),
(
562.812,
-14,
cs
)
);
},
{
closed = 1;
nodes = (
(
168.213,
3,
l
),
(
182.756,
3,
l
),
(
253.532,
3,
o
),
(
305.886,
1,
o
),
(
334.003,
0,
c
),
(
334.003,
1,
l
),
(
318.49,
3,
l
),
(
274.861,
8,
o
),
(
266.136,
24,
o
),
(
266.136,
87,
c
),
(
266.136,
180,
l
),
(
69.321,
180,
l
),
(
69.321,
87,
l
),
(
69.321,
24,
o
),
(
60.596,
8,
o
),
(
16.967,
3,
c
),
(
1.454,
1,
l
),
(
1.454,
0,
l
),
(
29.571,
1,
o
),
(
81.925,
3,
o
),
(
152.701,
3,
c
)
);
}
);
width = 700;
},
{
anchors = (
{
name = baseline_left;
pos = (
94.481,
0
);
},
{
name = bottom;
pos = (
358.843,
0
);
},
{
name = center;
pos = (
189.428,
346
);
},
{
name = stem;
pos = (
94.481,
180
);
},
{
name = top;
pos = (
320.678,
708
);
}
);
guides = (
{
angle = 90;
pos = (
5.12,
-105
);
}
);
layerId = "29EF49B2-C370-4E88-B36E-A4ACD23E3F3A";
shapes = (
{
closed = 1;
nodes = (
(
283.444,
180,
l
),
(
283.444,
638,
l
),
(
334.641,
638,
ls
),
(
400.731,
638,
o
),
(
432.38,
600,
o
),
(
432.38,
519,
cs
),
(
432.38,
428,
o
),
(
397.008,
381,
o
),
(
327.194,
381,
cs
),
(
200.598,
381,
l
),
(
200.598,
342,
l
),
(
317.886,
342,
ls
),
(
510.572,
342,
o
),
(
609.242,
408,
o
),
(
609.242,
536,
cs
),
(
609.242,
655,
o
),
(
523.604,
708,
o
),
(
332.779,
708,
cs
),
(
296.476,
708,
o
),
(
272.274,
705,
o
),
(
188.497,
705,
c
),
(
174.535,
705,
l
),
(
130.785,
705,
o
),
(
51.662,
706,
o
),
(
1.396,
708,
c
),
(
1.396,
638,
l
),
(
31.184,
634,
l
),
(
83.311,
627,
o
),
(
94.481,
616,
o
),
(
94.481,
552,
c
),
(
94.481,
180,
l
)
);
},
{
closed = 1;
nodes = (
(
623.205,
-14,
o
),
(
667.886,
4,
o
),
(
698.604,
40,
c
),
(
671.609,
97,
l
),
(
666.024,
92,
o
),
(
659.508,
90,
o
),
(
650.199,
90,
cs
),
(
627.859,
90,
o
),
(
615.758,
108,
o
),
(
606.449,
155,
cs
),
(
601.795,
179,
ls
),
(
575.731,
312,
o
),
(
500.332,
359,
o
),
(
309.508,
359,
cs
),
(
206.184,
359,
l
),
(
206.184,
311,
l
),
(
319.747,
311,
ls
),
(
370.013,
311,
o
),
(
389.561,
291,
o
),
(
397.939,
234,
cs
),
(
411.902,
134,
ls
),
(
426.795,
25,
o
),
(
466.822,
-14,
o
),
(
563.63,
-14,
cs
)
);
},
{
closed = 1;
nodes = (
(
190.359,
3,
l
),
(
202.46,
3,
l
),
(
235.04,
3,
o
),
(
293.684,
2,
o
),
(
329.987,
0,
c
),
(
329.987,
70,
l
),
(
323.471,
71,
l
),
(
289.029,
76,
o
),
(
283.444,
90,
o
),
(
283.444,
156,
c
),
(
283.444,
180,
l
),
(
94.481,
180,
l
),
(
94.481,
156,
l
),
(
94.481,
92,
o
),
(
83.311,
81,
o
),
(
31.184,
74,
c
),
(
1.396,
71,
l
),
(
1.396,
1,
l
),
(
51.662,
2,
o
),
(
130.785,
3,
o
),
(
174.535,
2,
c
)
);
}
);
width = 700;
}
);
metricLeft = I;
note = "Upper bowl sized as the upper bowl in B.";
unicode = 82;
}
{
color = 4;
glyphname = X;
kernLeft = KO_X;
kernRight = KO_X;
layers = (
{
anchors = (
{
name = bottom;
pos = (
346,
0
);
},
{
name = bottomright;
pos = (
670,
0
);
},
{
name = top;
pos = (
346,
708
);
},
{
name = top_low_1;
pos = (
346,
688
);
},
{
name = top_low_2;
pos = (
346,
668
);
},
{
name = top_low_3;
pos = (
346,
648
);
}
);
background = {
anchors = (
{
name = bottom;
pos = (
317,
0
);
},
{
name = bottomright;
pos = (
641,
0
);
},
{
name = top;
pos = (
317,
708
);
},
{
name = top_low_1;
pos = (
317,
688
);
},
{
name = top_low_2;
pos = (
317,
668
);
},
{
name = top_low_3;
pos = (
317,
648
);
}
);
shapes = (
{
closed = 1;
nodes = (
(
427,
1,
o
),
(
478,
3,
o
),
(
542,
3,
cs
),
(
594,
3,
o
),
(
642,
1,
o
),
(
670,
0,
c
),
(
670,
1,
l
),
(
620,
4,
o
),
(
607,
16,
o
),
(
578,
65,
cs
),
(
242,
623,
ls
),
(
204,
686,
o
),
(
221,
701,
o
),
(
308,
707,
c
),
(
308,
708,
l
),
(
279,
707,
o
),
(
228,
705,
o
),
(
164,
705,
cs
),
(
112,
705,
o
),
(
64,
707,
o
),
(
36,
708,
c
),
(
36,
707,
l
),
(
86,
704,
o
),
(
99,
692,
o
),
(
128,
643,
cs
),
(
464,
85,
ls
),
(
502,
22,
o
),
(
485,
7,
o
),
(
398,
1,
c
),
(
398,
0,
l
)
);
},
{
closed = 1;
nodes = (
(
53,
2,
o
),
(
87,
3,
o
),
(
125,
3,
cs
),
(
169,
3,
o
),
(
210,
2,
o
),
(
240,
0,
c
),
(
240,
1,
l
),
(
149,
10,
o
),
(
136,
55,
o
),
(
195,
147,
cs
),
(
320,
341,
l
),
(
319,
342,
l
),
(
178,
124,
ls
),
(
126,
43,
o
),
(
83,
10,
o
),
(
30,
1,
c
),
(
30,
0,
l
)
);
},
{
closed = 1;
nodes = (
(
502,
584,
ls
),
(
554,
665,
o
),
(
597,
698,
o
),
(
650,
707,
c
),
(
650,
708,
l
),
(
627,
706,
o
),
(
593,
705,
o
),
(
555,
705,
cs
),
(
511,
705,
o
),
(
470,
706,
o
),
(
440,
708,
c
),
(
440,
707,
l
),
(
531,
698,
o
),
(
544,
653,
o
),
(
485,
561,
cs
),
(
360,
368,
l
),
(
361,
366,
l
)
);
}
);
};
layerId = "DF17D77B-A5C4-4843-826A-BC0F1C4CB224";
shapes = (
{
closed = 1;
nodes = (
(
427,
1,
o
),
(
478,
3,
o
),
(
542,
3,
cs
),
(
594,
3,
o
),
(
642,
1,
o
),
(
670,
0,
c
),
(
670,
1,
l
),
(
620,
4,
o
),
(
607,
16,
o
),
(
578,
65,
cs
),
(
242,
623,
ls
),
(
204,
686,
o
),
(
221,
701,
o
),
(
308,
707,
c
),
(
308,
708,
l
),
(
279,
707,
o
),
(
228,
705,
o
),
(
164,
705,
cs
),
(
112,
705,
o
),
(
64,
707,
o
),
(
36,
708,
c
),
(
36,
707,
l
),
(
86,
704,
o
),
(
99,
692,
o
),
(
128,
643,
cs
),
(
464,
85,
ls
),
(
502,
22,
o
),
(
485,
7,
o
),
(
398,
1,
c
),
(
398,
0,
l
)
);
},
{
closed = 1;
nodes = (
(
53,
2,
o
),
(
87,
3,
o
),
(
125,
3,
cs
),
(
169,
3,
o
),
(
210,
2,
o
),
(
240,
0,
c
),
(
240,
1,
l
),
(
149,
10,
o
),
(
136,
55,
o
),
(
195,
147,
cs
),
(
320,
341,
l
),
(
319,
342,
l
),
(
178,
124,
ls
),
(
126,
43,
o
),
(
83,
10,
o
),
(
30,
1,
c
),
(
30,
0,
l
)
);
},
{
closed = 1;
nodes = (
(
502,
584,
ls
),
(
554,
665,
o
),
(
597,
698,
o
),
(
650,
707,
c
),
(
650,
708,
l
),
(
627,
706,
o
),
(
593,
705,
o
),
(
555,
705,
cs
),
(
511,
705,
o
),
(
470,
706,
o
),
(
440,
708,
c
),
(
440,
707,
l
),
(
531,
698,
o
),
(
544,
653,
o
),
(
485,
561,
cs
),
(
360,
368,
l
),
(
361,
366,
l
)
);
}
);
width = 700;
},
{
anchors = (
{
name = bottom;
pos = (
350.884,
0
);
},
{
name = bottomright;
pos = (
668.182,
0
);
},
{
name = top;
pos = (
350.884,
708
);
},
{
name = top_low_1;
pos = (
350.884,
688
);
},
{
name = top_low_2;
pos = (
350.884,
668
);
},
{
name = top_low_3;
pos = (
350.884,
648
);
}
);
background = {
anchors = (
{
name = bottom;
pos = (
397,
0
);
},
{
name = bottomright;
pos = (
776,
0
);
},
{
name = top;
pos = (
397,
708
);
},
{
name = top_low_1;
pos = (
397,
688
);
},
{
name = top_low_2;
pos = (
397,
668
);
},
{
name = top_low_3;
pos = (
397,
648
);
}
);
shapes = (
{
closed = 1;
nodes = (
(
415.404,
3,
o
),
(
453.409,
4,
o
),
(
535.606,
4,
cs
),
(
601.01,
4,
o
),
(
656.692,
1,
o
),
(
685.859,
0,
c
),
(
685.859,
70,
l
),
(
616.035,
72,
o
),
(
586.869,
87,
o
),
(
554.167,
136,
cs
),
(
267.803,
568,
ls
),
(
238.636,
612,
o
),
(
252.778,
634,
o
),
(
311.995,
638,
c
),
(
311.995,
708,
l
),
(
288.131,
705,
o
),
(
254.545,
704,
o
),
(
182.955,
704,
cs
),
(
117.551,
704,
o
),
(
61.869,
707,
o
),
(
32.702,
708,
c
),
(
32.702,
638,
l
),
(
101.641,
638,
o
),
(
129.924,
623,
o
),
(
167.045,
567,
cs
),
(
449.874,
140,
ls
),
(
479.04,
96,
o
),
(
461.364,
74,
o
),
(
388.005,
70,
c
),
(
388.005,
0,
l
)
);
},
{
closed = 1;
nodes = (
(
54.798,
2,
o
),
(
98.106,
3,
o
),
(
159.975,
3,
cs
),
(
233.333,
3,
o
),
(
281.944,
2,
o
),
(
305.808,
0,
c
),
(
305.808,
70,
l
),
(
226.263,
72,
o
),
(
210.354,
96,
o
),
(
248.359,
154,
cs
),
(
365.909,
334,
l
),
(
321.717,
383,
l
),
(
175.884,
162,
ls
),
(
133.46,
97,
o
),
(
91.919,
70,
o
),
(
31.818,
70,
c
),
(
31.818,
0,
l
)
);
},
{
closed = 1;
nodes = (
(
515.278,
546,
ls
),
(
555.934,
609,
o
),
(
602.778,
638,
o
),
(
659.343,
638,
c
),
(
659.343,
708,
l
),
(
636.364,
706,
o
),
(
593.056,
705,
o
),
(
531.187,
705,
cs
),
(
478.157,
705,
o
),
(
433.081,
706,
o
),
(
403.03,
708,
c
),
(
403.03,
638,
l
),
(
472.854,
636,
o
),
(
486.111,
618,
o
),
(
453.409,
568,
cs
),
(
335.859,
387,
l
),
(
386.237,
346,
l
)
);
}
);
};
layerId = "7300F074-2CFD-43CC-B20F-1BF1EAE6C2C7";
shapes = (
{
closed = 1;
nodes = (
(
415.404,
3,
o
),
(
453.409,
4,
o
),
(
535.606,
4,
cs
),
(
601.01,
4,
o
),
(
656.692,
1,
o
),
(
668.182,
0,
c
),
(
668.182,
70,
l
),
(
616.035,
72,
o
),
(
586.869,
87,
o
),
(
554.167,
136,
cs
),
(
267.803,
568,
ls
),
(
238.636,
612,
o
),
(
252.778,
634,
o
),
(
311.995,
638,
c
),
(
311.995,
708,
l
),
(
288.131,
705,
o
),
(
254.545,
704,
o
),
(
182.955,
704,
cs
),
(
117.551,
704,
o
),
(
61.869,
707,
o
),
(
32.702,
708,
c
),
(
32.702,
638,
l
),
(
101.641,
638,
o
),
(
129.924,
623,
o
),
(
167.045,
567,
cs
),
(
449.874,
140,
ls
),
(
479.04,
96,
o
),
(
461.364,
74,
o
),
(
388.005,
70,
c
),
(
388.005,
0,
l
)
);
},
{
closed = 1;
nodes = (
(
54.798,
2,
o
),
(
98.106,
3,
o
),
(
159.975,
3,
cs
),
(
233.333,
3,
o
),
(
281.944,
2,
o
),
(
305.808,
0,
c
),
(
305.808,
70,
l
),
(
226.263,
72,
o
),
(
210.354,
96,
o
),
(
248.359,
154,
cs
),
(
365.909,
334,
l
),
(
321.717,
383,
l
),
(
175.884,
162,
ls
),
(
133.46,
97,
o
),
(
91.919,
70,
o
),
(
31.818,
70,
c
),
(
31.818,
0,
l
)
);
},
{
closed = 1;
nodes = (
(
515.278,
546,
ls
),
(
555.934,
609,
o
),
(
602.778,
638,
o
),
(
659.343,
638,
c
),
(
659.343,
708,
l
),
(
636.364,
706,
o
),
(
593.056,
705,
o
),
(
531.187,
705,
cs
),
(
478.157,
705,
o
),
(
433.081,
706,
o
),
(
403.03,
708,
c
),
(
403.03,
638,
l
),
(
472.854,
636,
o
),
(
486.111,
618,
o
),
(
453.409,
568,
cs
),
(
335.859,
387,
l
),
(
386.237,
346,
l
)
);
}
);
width = 700;
},
{
anchors = (
{
name = bottom;
pos = (
367.523,
0
);
},
{
name = bottomright;
pos = (
743.572,
0
);
},
{
name = top;
pos = (
367.523,
708
);
},
{
name = top_low_1;
pos = (
367.523,
688
);
},
{
name = top_low_2;
pos = (
367.523,
668
);
},
{
name = top_low_3;
pos = (
367.523,
648
);
}
);
background = {
anchors = (
{
name = bottom;
pos = (
365,
0
);
},
{
name = bottomright;
pos = (
762,
0
);
},
{
name = top;
pos = (
365,
708
);
},
{
name = top_low_1;
pos = (
365,
688
);
},
{
name = top_low_2;
pos = (
365,
668
);
},
{
name = top_low_3;
pos = (
365,
648
);
}
);
shapes = (
{
closed = 1;
nodes = (
(
426.251,
2,
o
),
(
487.821,
3,
o
),
(
571.177,
3,
cs
),
(
640.325,
3,
o
),
(
697.158,
2,
o
),
(
743.572,
0,
c
),
(
743.572,
1,
l
),
(
708.525,
7,
o
),
(
691.475,
31,
o
),
(
653.586,
89,
cs
),
(
305.954,
623,
ls
),
(
274.695,
671,
o
),
(
301.218,
704,
o
),
(
358.998,
707,
c
),
(
358.998,
708,
l
),
(
325.846,
706,
o
),
(
264.276,
705,
o
),
(
180.92,
705,
cs
),
(
111.772,
705,
o
),
(
54.939,
706,
o
),
(
8.525,
708,
c
),
(
8.525,
707,
l
),
(
43.572,
701,
o
),
(
60.622,
677,
o
),
(
98.511,
619,
cs
),
(
446.143,
85,
ls
),
(
477.402,
37,
o
),
(
450.879,
4,
o
),
(
393.099,
1,
c
),
(
393.099,
0,
l
)
);
},
{
closed = 1;
nodes = (
(
64.411,
2,
o
),
(
90.933,
3,
o
),
(
119.35,
3,
cs
),
(
158.187,
3,
o
),
(
208.39,
2,
o
),
(
274.695,
0,
c
),
(
274.695,
1,
l
),
(
166.712,
9,
o
),
(
152.503,
114,
o
),
(
235.859,
222,
cs
),
(
321.109,
332,
l
),
(
320.162,
333,
l
),
(
184.709,
158,
ls
),
(
115.561,
69,
o
),
(
67.253,
29,
o
),
(
0,
1,
c
),
(
0,
0,
l
)
);
},
{
closed = 1;
nodes = (
(
520.027,
550,
ls
),
(
589.174,
639,
o
),
(
637.483,
673,
o
),
(
704.736,
707,
c
),
(
704.736,
708,
l
),
(
640.325,
706,
o
),
(
613.802,
705,
o
),
(
585.385,
705,
cs
),
(
546.549,
705,
o
),
(
496.346,
706,
o
),
(
430.04,
708,
c
),
(
430.04,
707,
l
),
(
538.024,
699,
o
),
(
552.233,
594,
o
),
(
468.877,
486,
cs
),
(
383.626,
376,
l
),
(
384.574,
375,
l
)
);
}
);
};
layerId = "F497C50F-30EB-4580-9148-0005B36D0333";
shapes = (
{
closed = 1;
nodes = (
(
426.251,
2,
o
),
(
487.821,
3,
o
),
(
571.177,
3,
cs
),
(
640.325,
3,
o
),
(
697.158,
2,
o
),
(
743.572,
0,
c
),
(
743.572,
1,
l
),
(
708.525,
7,
o
),
(
691.475,
31,
o
),
(
653.586,
89,
cs
),
(
305.954,
623,
ls
),
(
274.695,
671,
o
),
(
301.218,
704,
o
),
(
358.998,
707,
c
),
(
358.998,
708,
l
),
(
325.846,
706,
o
),
(
264.276,
705,
o
),
(
180.92,
705,
cs
),
(
111.772,
705,
o
),
(
54.939,
706,
o
),
(
8.525,
708,
c
),
(
8.525,
707,
l
),
(
43.572,
701,
o
),
(
60.622,
677,
o
),
(
98.511,
619,
cs
),
(
446.143,
85,
ls
),
(
477.402,
37,
o
),
(
450.879,
4,
o
),
(
393.099,
1,
c
),
(
393.099,
0,
l
)
);
},
{
closed = 1;
nodes = (
(
64.411,
2,
o
),
(
90.933,
3,
o
),
(
119.35,
3,
cs
),
(
158.187,
3,
o
),
(
208.39,
2,
o
),
(
274.695,
0,
c
),
(
274.695,
1,
l
),
(
166.712,
9,
o
),
(
152.503,
114,
o
),
(
235.859,
222,
cs
),
(
321.109,
332,
l
),
(
320.162,
333,
l
),
(
184.709,
158,
ls
),
(
115.561,
69,
o
),
(
67.253,
29,
o
),
(
0,
1,
c
),
(
0,
0,
l
)
);
},
{
closed = 1;
nodes = (
(
520.027,
550,
ls
),
(
589.174,
639,
o
),
(
637.483,
673,
o
),
(
704.736,
707,
c
),
(
704.736,
708,
l
),
(
640.325,
706,
o
),
(
613.802,
705,
o
),
(
585.385,
705,
cs
),
(
546.549,
705,
o
),
(
496.346,
706,
o
),
(
430.04,
708,
c
),
(
430.04,
707,
l
),
(
538.024,
699,
o
),
(
552.233,
594,
o
),
(
468.877,
486,
cs
),
(
383.626,
376,
l
),
(
384.574,
375,
l
)
);
}
);
width = 700;
},
{
anchors = (
{
name = bottom;
pos = (
354.895,
0
);
},
{
name = bottomright;
pos = (
686.946,
0
);
},
{
name = top;
pos = (
354.895,
708
);
},
{
name = top_low_1;
pos = (
354.895,
688
);
},
{
name = top_low_2;
pos = (
354.895,
668
);
},
{
name = top_low_3;
pos = (
354.895,
648
);
}
);
background = {
anchors = (
{
name = bottom;
pos = (
435,
0
);
},
{
name = bottomright;
pos = (
872,
0
);
},
{
name = top;
pos = (
435,
708
);
},
{
name = top_low_1;
pos = (
435,
688
);
},
{
name = top_low_2;
pos = (
435,
668
);
},
{
name = top_low_3;
pos = (
435,
648
);
}
);
shapes = (
{
closed = 1;
nodes = (
(
405.478,
2,
o
),
(
465.851,
3,
o
),
(
536.014,
3,
cs
),
(
590.676,
3,
o
),
(
646.154,
2,
o
),
(
711.422,
0,
c
),
(
711.422,
70,
l
),
(
660.839,
70,
o
),
(
637.179,
86,
o
),
(
609.441,
127,
cs
),
(
325.524,
556,
ls
),
(
287.995,
612,
o
),
(
294.522,
638,
o
),
(
348.368,
638,
c
),
(
348.368,
708,
l
),
(
307.576,
705,
o
),
(
252.098,
705,
o
),
(
188.462,
705,
cs
),
(
133.8,
705,
o
),
(
78.322,
705,
o
),
(
13.054,
708,
c
),
(
13.054,
638,
l
),
(
63.636,
638,
o
),
(
87.296,
622,
o
),
(
115.035,
581,
cs
),
(
398.951,
152,
ls
),
(
436.48,
96,
o
),
(
428.322,
70,
o
),
(
359.79,
70,
c
),
(
359.79,
0,
l
)
);
},
{
closed = 1;
nodes = (
(
83.217,
2,
o
),
(
111.772,
3,
o
),
(
141.958,
3,
cs
),
(
201.515,
3,
o
),
(
254.545,
2,
o
),
(
292.075,
0,
c
),
(
292.075,
70,
l
),
(
192.541,
73,
o
),
(
181.935,
110,
o
),
(
245.571,
200,
cs
),
(
337.762,
332,
l
),
(
281.469,
357,
l
),
(
145.221,
159,
ls
),
(
106.061,
103,
o
),
(
79.953,
86,
o
),
(
14.685,
70,
c
),
(
14.685,
0,
l
)
);
},
{
closed = 1;
nodes = (
(
522.145,
549,
ls
),
(
561.305,
605,
o
),
(
587.413,
622,
o
),
(
652.681,
638,
c
),
(
652.681,
708,
l
),
(
584.149,
706,
o
),
(
555.594,
705,
o
),
(
525.408,
705,
cs
),
(
478.904,
705,
o
),
(
437.296,
706,
o
),
(
407.925,
708,
c
),
(
407.925,
638,
l
),
(
478.089,
635,
o
),
(
485.431,
598,
o
),
(
421.795,
508,
cs
),
(
345.921,
400,
l
),
(
402.214,
375,
l
)
);
}
);
};
layerId = "29EF49B2-C370-4E88-B36E-A4ACD23E3F3A";
shapes = (
{
closed = 1;
nodes = (
(
405.478,
2,
o
),
(
465.851,
3,
o
),
(
536.014,
3,
cs
),
(
590.676,
3,
o
),
(
646.154,
2,
o
),
(
686.946,
0,
c
),
(
686.946,
70,
l
),
(
652.681,
75,
o
),
(
637.179,
86,
o
),
(
609.441,
127,
cs
),
(
325.524,
556,
ls
),
(
287.995,
612,
o
),
(
294.522,
638,
o
),
(
348.368,
638,
c
),
(
348.368,
708,
l
),
(
307.576,
705,
o
),
(
252.098,
705,
o
),
(
188.462,
705,
cs
),
(
133.8,
705,
o
),
(
78.322,
705,
o
),
(
13.054,
708,
c
),
(
13.054,
638,
l
),
(
63.636,
638,
o
),
(
87.296,
622,
o
),
(
115.035,
581,
cs
),
(
398.951,
152,
ls
),
(
436.48,
96,
o
),
(
428.322,
70,
o
),
(
359.79,
70,
c
),
(
359.79,
0,
l
)
);
},
{
closed = 1;
nodes = (
(
83.217,
2,
o
),
(
111.772,
3,
o
),
(
141.958,
3,
cs
),
(
201.515,
3,
o
),
(
254.545,
2,
o
),
(
292.075,
0,
c
),
(
292.075,
70,
l
),
(
192.541,
73,
o
),
(
181.935,
110,
o
),
(
245.571,
200,
cs
),
(
337.762,
332,
l
),
(
281.469,
357,
l
),
(
145.221,
159,
ls
),
(
106.061,
103,
o
),
(
79.953,
86,
o
),
(
14.685,
70,
c
),
(
14.685,
0,
l
)
);
},
{
closed = 1;
nodes = (
(
522.145,
549,
ls
),
(
561.305,
605,
o
),
(
587.413,
622,
o
),
(
652.681,
638,
c
),
(
652.681,
708,
l
),
(
584.149,
706,
o
),
(
555.594,
705,
o
),
(
525.408,
705,
cs
),
(
478.904,
705,
o
),
(
437.296,
706,
o
),
(
407.925,
708,
c
),
(
407.925,
638,
l
),
(
478.089,
635,
o
),
(
485.431,
598,
o
),
(
421.795,
508,
cs
),
(
345.921,
400,
l
),
(
402.214,
375,
l
)
);
}
);
width = 700;
},
{
anchors = (
{
name = bottom;
pos = (
350,
0
);
},
{
name = bottomright;
pos = (
674,
0
);
},
{
name = top;
pos = (
350,
708
);
},
{
name = top_low_1;
pos = (
350,
688
);
},
{
name = top_low_2;
pos = (
350,
668
);
},
{
name = top_low_3;
pos = (
350,
648
);
}
);
associatedMasterId = "DF17D77B-A5C4-4843-826A-BC0F1C4CB224";
background = {
anchors = (
{
name = bottom;
pos = (
317,
0
);
},
{
name = bottomright;
pos = (
641,
0
);
},
{
name = top;
pos = (
317,
708
);
},
{
name = top_low_1;
pos = (
317,
688
);
},
{
name = top_low_2;
pos = (
317,
668
);
},
{
name = top_low_3;
pos = (
317,
648
);
}
);
hints = (
{
name = "_cap.UC-thin-diagonal-flare";
options = 2;
type = Cap;
},
{
name = "_cap.UC-thin-diagonal-flare";
options = 2;
type = Cap;
},
{
name = "_corner.UC-right-diagonal-serif";
options = 1;
type = Corner;
},
{
name = "_corner.UC-left-diagonal-serif";
type = Corner;
},
{
name = "_corner.UC-left-diagonal-serif";
type = Corner;
},
{
name = "_corner.UC-right-diagonal-serif";
options = 1;
type = Corner;
}
);
shapes = (
{
closed = 1;
nodes = (
(
570,
3,
l
),
(
621,
0,
l
),
(
195,
708,
l
),
(
144,
705,
l
),
(
93,
708,
l
),
(
519,
0,
l
)
);
},
{
closed = 1;
nodes = (
(
104,
0,
l
),
(
324,
341,
l
),
(
323,
342,
l
),
(
102,
0,
l
)
);
},
{
closed = 1;
nodes = (
(
587,
708,
l
),
(
585,
708,
l
),
(
364,
368,
l
),
(
365,
366,
l
)
);
}
);
};
layerId = "AFC96F23-47F0-425A-B0F2-EF4F30B912F5";
name = "Cap & Corner";
shapes = (
{
closed = 1;
nodes = (
(
570,
3,
l
),
(
576,
3,
l
),
(
621,
3,
o
),
(
655,
1,
o
),
(
677,
0,
c
),
(
677,
1,
l
),
(
666,
2,
l
),
(
627,
6,
o
),
(
609,
21,
o
),
(
577,
72,
c
),
(
244,
626,
l
),
(
212,
688,
o
),
(
218,
698,
o
),
(
274,
704,
c
),
(
290,
706,
l
),
(
290,
707,
l
),
(
261,
706,
o
),
(
214,
705,
o
),
(
150,
705,
c
),
(
144,
705,
l
),
(
138,
705,
l
),
(
93,
705,
o
),
(
59,
707,
o
),
(
37,
708,
c
),
(
37,
707,
l
),
(
48,
706,
l
),
(
87,
702,
o
),
(
105,
687,
o
),
(
137,
636,
c
),
(
470,
82,
l
),
(
502,
20,
o
),
(
496,
10,
o
),
(
440,
4,
c
),
(
424,
2,
l
),
(
424,
1,
l
),
(
453,
2,
o
),
(
500,
3,
o
),
(
564,
3,
c
)
);
},
{
closed = 1;
nodes = (
(
324,
341,
l
),
(
323,
342,
l
),
(
181,
122,
l
),
(
129,
40,
o
),
(
89,
13,
o
),
(
39,
3,
c
),
(
29,
1,
l
),
(
29,
0,
l
),
(
46,
1,
o
),
(
73,
3,
o
),
(
114,
3,
c
),
(
151,
3,
o
),
(
212,
2,
o
),
(
254,
0,
c
),
(
254,
1,
l
),
(
244,
2,
l
),
(
156,
11,
o
),
(
140,
54,
o
),
(
189,
131,
c
)
);
},
{
closed = 1;
nodes = (
(
508,
587,
l
),
(
560,
668,
o
),
(
600,
695,
o
),
(
650,
705,
c
),
(
660,
707,
l
),
(
660,
708,
l
),
(
643,
707,
o
),
(
616,
705,
o
),
(
575,
705,
c
),
(
538,
705,
o
),
(
477,
706,
o
),
(
435,
708,
c
),
(
435,
707,
l
),
(
445,
706,
l
),
(
533,
697,
o
),
(
549,
654,
o
),
(
500,
577,
c
),
(
364,
368,
l
),
(
365,
366,
l
)
);
}
);
width = 700;
},
{
anchors = (
{
name = bottom;
pos = (
382.167,
0
);
},
{
name = bottomright;
pos = (
763.374,
0
);
},
{
name = top;
pos = (
382.167,
708
);
},
{
name = top_low_1;
pos = (
382.167,
688
);
},
{
name = top_low_2;
pos = (
382.167,
668
);
},
{
name = top_low_3;
pos = (
382.167,
648
);
}
);
associatedMasterId = "F497C50F-30EB-4580-9148-0005B36D0333";
background = {
anchors = (
{
name = bottom;
pos = (
365,
0
);
},
{
name = bottomright;
pos = (
762,
0
);
},
{
name = top;
pos = (
365,
708
);
},
{
name = top_low_1;
pos = (
365,
688
);
},
{
name = top_low_2;
pos = (
365,
668
);
},
{
name = top_low_3;
pos = (
365,
648
);
}
);
hints = (
{
name = "_cap.UC-thin-diagonal-flare";
options = 2;
type = Cap;
},
{
name = "_cap.UC-thin-diagonal-flare";
options = 2;
type = Cap;
},
{
name = "_corner.UC-right-diagonal-serif";
options = 1;
type = Corner;
},
{
name = "_corner.UC-left-diagonal-serif";
type = Corner;
},
{
name = "_corner.UC-left-diagonal-serif";
type = Corner;
},
{
name = "_corner.UC-right-diagonal-serif";
options = 1;
type = Corner;
}
);
shapes = (
{
closed = 1;
nodes = (
(
624.142,
3,
l
),
(
730.727,
0,
l
),
(
264.06,
708,
l
),
(
157.476,
705,
l
),
(
50.891,
708,
l
),
(
517.558,
0,
l
)
);
},
{
closed = 1;
nodes = (
(
74.897,
0,
l
),
(
335.116,
332,
l
),
(
334.156,
333,
l
),
(
72.976,
0,
l
)
);
},
{
closed = 1;
nodes = (
(
660.631,
708,
l
),
(
658.71,
708,
l
),
(
398.491,
376,
l
),
(
399.451,
375,
l
)
);
}
);
};
layerId = "1EB0132F-2464-4549-A2CE-9AC297F4269F";
name = "Cap & Corner";
shapes = (
{
closed = 1;
nodes = (
(
624.142,
3,
l
),
(
640.466,
3,
l
),
(
705.761,
3,
o
),
(
755.692,
1,
o
),
(
781.618,
0,
c
),
(
781.618,
1,
l
),
(
768.175,
3,
l
),
(
735.528,
8,
o
),
(
717.284,
19,
o
),
(
697.119,
52,
c
),
(
316.872,
628,
l
),
(
278.463,
686,
o
),
(
286.145,
701,
o
),
(
327.435,
705,
c
),
(
346.639,
707,
l
),
(
346.639,
708,
l
),
(
313.031,
707,
o
),
(
251.577,
705,
o
),
(
167.078,
705,
c
),
(
157.476,
705,
l
),
(
141.152,
705,
l
),
(
75.857,
705,
o
),
(
25.926,
707,
o
),
(
0,
708,
c
),
(
0,
707,
l
),
(
13.443,
705,
l
),
(
46.09,
700,
o
),
(
64.334,
689,
o
),
(
84.499,
656,
c
),
(
464.746,
80,
l
),
(
503.155,
22,
o
),
(
495.473,
7,
o
),
(
454.183,
3,
c
),
(
434.979,
1,
l
),
(
434.979,
0,
l
),
(
468.587,
1,
o
),
(
530.041,
3,
o
),
(
614.54,
3,
c
)
);
},
{
closed = 1;
nodes = (
(
335.116,
332,
l
),
(
334.156,
333,
l
),
(
236.214,
209,
l
),
(
118.107,
58,
o
),
(
71.056,
24,
o
),
(
16.323,
5,
c
),
(
4.801,
1,
l
),
(
4.801,
0,
l
),
(
42.249,
2,
o
),
(
64.334,
3,
o
),
(
101.783,
3,
c
),
(
141.152,
3,
o
),
(
166.118,
2,
o
),
(
223.731,
0,
c
),
(
223.731,
1,
l
),
(
217.009,
2,
l
),
(
133.47,
14,
o
),
(
144.993,
89,
o
),
(
238.134,
209,
c
)
);
},
{
closed = 1;
nodes = (
(
497.393,
499,
l
),
(
615.5,
650,
o
),
(
662.551,
684,
o
),
(
717.284,
703,
c
),
(
728.806,
707,
l
),
(
728.806,
708,
l
),
(
691.358,
706,
o
),
(
669.273,
705,
o
),
(
631.824,
705,
c
),
(
592.455,
705,
o
),
(
567.489,
706,
o
),
(
509.876,
708,
c
),
(
509.876,
707,
l
),
(
516.598,
706,
l
),
(
600.137,
694,
o
),
(
588.614,
619,
o
),
(
495.473,
499,
c
),
(
398.491,
376,
l
),
(
399.451,
375,
l
)
);
}
);
width = 700;
},
{
anchors = (
{
name = bottom;
pos = (
353.482,
0
);
},
{
name = bottomright;
pos = (
683.457,
0
);
},
{
name = top;
pos = (
353.482,
708
);
},
{
name = top_low_1;
pos = (
353.482,
688
);
},
{
name = top_low_2;
pos = (
353.482,
668
);
},
{
name = top_low_3;
pos = (
353.482,
648
);
}
);
associatedMasterId = "7300F074-2CFD-43CC-B20F-1BF1EAE6C2C7";
background = {
anchors = (
{
name = bottom;
pos = (
397,
0
);
},
{
name = bottomright;
pos = (
776,
0
);
},
{
name = top;
pos = (
397,
708
);
},
{
name = top_low_1;
pos = (
397,
688
);
},
{
name = top_low_2;
pos = (
397,
668
);
},
{
name = top_low_3;
pos = (
397,
648
);
}
);
hints = (
{
name = "_cap.UC-thin-diagonal-flare";
options = 2;
type = Cap;
},
{
name = "_cap.UC-thin-diagonal-flare";
options = 2;
type = Cap;
},
{
name = "_corner.UC-right-diagonal-serif";
options = 1;
type = Corner;
},
{
name = "_corner.UC-left-diagonal-serif";
options = 4;
scale = (
-1,
-1
);
type = Corner;
},
{
name = "_corner.UC-left-diagonal-serif";
options = 4;
type = Corner;
},
{
name = "_corner.UC-right-diagonal-serif";
options = 1;
type = Corner;
}
);
shapes = (
{
closed = 1;
nodes = (
(
592.04,
3,
l
),
(
642.537,
0,
l
),
(
180.224,
708,
l
),
(
130.597,
705,
l
),
(
80.099,
708,
l
),
(
542.413,
0,
l
)
);
},
{
closed = 1;
nodes = (
(
152.363,
0,
l
),
(
368.283,
334,
l
),
(
324.751,
383,
l
),
(
75.746,
0,
l
)
);
},
{
closed = 1;
nodes = (
(
618.159,
708,
l
),
(
543.283,
708,
l
),
(
338.681,
387,
l
),
(
388.308,
346,
l
)
);
}
);
};
layerId = "8B152FE0-A013-4DDE-9046-6CF3019E1322";
name = "Cap & Corner";
shapes = (
{
closed = 1;
nodes = (
(
592.04,
3,
l
),
(
599.875,
3,
l
),
(
626.865,
3,
o
),
(
667.786,
2,
o
),
(
708.706,
1,
c
),
(
707.836,
71,
l
),
(
660.821,
75,
l
),
(
621.642,
79,
o
),
(
588.557,
82,
o
),
(
554.602,
135,
c
),
(
268.159,
573,
l
),
(
236.816,
622,
o
),
(
229.851,
627,
o
),
(
291.666,
633,
c
),
(
339.552,
638,
l
),
(
339.552,
708,
l
),
(
298.632,
707,
o
),
(
205.472,
705,
o
),
(
138.433,
705,
c
),
(
130.597,
705,
l
),
(
122.761,
705,
l
),
(
95.771,
705,
o
),
(
54.851,
706,
o
),
(
13.93,
707,
c
),
(
14.801,
637,
l
),
(
61.816,
633,
l
),
(
100.995,
629,
o
),
(
134.079,
626,
o
),
(
168.035,
573,
c
),
(
454.477,
135,
l
),
(
485.821,
86,
o
),
(
492.786,
81,
o
),
(
430.97,
75,
c
),
(
383.084,
70,
l
),
(
383.084,
0,
l
),
(
424.005,
1,
o
),
(
517.164,
3,
o
),
(
584.204,
3,
c
)
);
},
{
closed = 1;
nodes = (
(
368.283,
334,
l
),
(
324.751,
383,
l
),
(
187.189,
171,
l
),
(
134.95,
90,
o
),
(
86.194,
80,
o
),
(
16.542,
72,
c
),
(
0,
70,
l
),
(
0,
0,
l
),
(
40.92,
2,
o
),
(
87.935,
3,
o
),
(
134.95,
3,
c
),
(
181.094,
3,
o
),
(
235.074,
2,
o
),
(
289.925,
0,
c
),
(
289.925,
70,
l
),
(
266.418,
73,
l
),
(
201.119,
81,
o
),
(
211.567,
105,
o
),
(
258.582,
180,
c
)
);
},
{
closed = 1;
nodes = (
(
508.457,
536,
l
),
(
559.826,
617,
o
),
(
607.711,
628,
o
),
(
677.363,
636,
c
),
(
693.905,
638,
l
),
(
693.905,
708,
l
),
(
652.985,
706,
o
),
(
605.97,
705,
o
),
(
558.955,
705,
c
),
(
512.811,
705,
o
),
(
458.831,
706,
o
),
(
403.98,
708,
c
),
(
403.98,
638,
l
),
(
427.487,
635,
l
),
(
492.786,
627,
o
),
(
482.338,
602,
o
),
(
436.194,
527,
c
),
(
338.681,
387,
l
),
(
388.308,
346,
l
)
);
}
);
width = 700;
},
{
anchors = (
{
name = bottom;
pos = (
386.651,
0
);
},
{
name = bottomright;
pos = (
738.665,
0
);
},
{
name = top;
pos = (
386.651,
708
);
},
{
name = top_low_1;
pos = (
386.651,
688
);
},
{
name = top_low_2;
pos = (
386.651,
668
);
},
{
name = top_low_3;
pos = (
386.651,
648
);
}
);
associatedMasterId = "29EF49B2-C370-4E88-B36E-A4ACD23E3F3A";
background = {
anchors = (
{
name = bottom;
pos = (
435,
0
);
},
{
name = bottomright;
pos = (
872,
0
);
},
{
name = top;
pos = (
435,
708
);
},
{
name = top_low_1;
pos = (
435,
688
);
},
{
name = top_low_2;
pos = (
435,
668
);
},
{
name = top_low_3;
pos = (
435,
648
);
}
);
hints = (
{
name = "_cap.UC-thin-diagonal-flare";
options = 2;
type = Cap;
},
{
name = "_cap.UC-thin-diagonal-flare";
options = 2;
type = Cap;
},
{
name = "_corner.UC-right-diagonal-serif";
options = 1;
type = Corner;
},
{
name = "_corner.UC-left-diagonal-serif";
type = Corner;
},
{
name = "_corner.UC-left-diagonal-serif";
type = Corner;
},
{
name = "_corner.UC-right-diagonal-serif";
options = 1;
type = Corner;
}
);
shapes = (
{
closed = 1;
nodes = (
(
625.086,
3,
l
),
(
720.943,
0,
l
),
(
258.573,
708,
l
),
(
162.715,
705,
l
),
(
66.858,
708,
l
),
(
529.229,
0,
l
)
);
},
{
closed = 1;
nodes = (
(
140.966,
0,
l
),
(
369.735,
332,
l
),
(
314.154,
357,
l
),
(
70.08,
0,
l
)
);
},
{
closed = 1;
nodes = (
(
662.945,
708,
l
),
(
592.059,
708,
l
),
(
377.79,
400,
l
),
(
433.371,
375,
l
)
);
}
);
};
layerId = "8490621E-1D49-4E30-BAF4-01EC43CE7754";
name = "Cap & Corner";
shapes = (
{
closed = 1;
nodes = (
(
625.086,
3,
l
),
(
642.002,
2,
l
),
(
673.417,
3,
o
),
(
728.998,
2,
o
),
(
766.052,
0,
c
),
(
765.247,
70,
l
),
(
736.248,
73,
l
),
(
700,
77,
o
),
(
671.806,
76,
o
),
(
643.613,
118,
c
),
(
347.18,
573,
l
),
(
310.932,
628,
o
),
(
304.487,
630,
o
),
(
348.791,
634,
c
),
(
375.374,
637,
l
),
(
375.374,
707,
l
),
(
319.792,
705,
o
),
(
231.99,
705,
o
),
(
182.853,
706,
c
),
(
162.715,
705,
l
),
(
145.799,
706,
l
),
(
114.384,
705,
o
),
(
58.803,
706,
o
),
(
21.749,
708,
c
),
(
22.554,
638,
l
),
(
51.553,
635,
l
),
(
87.802,
631,
o
),
(
115.995,
632,
o
),
(
144.188,
590,
c
),
(
440.621,
135,
l
),
(
476.869,
80,
o
),
(
483.314,
78,
o
),
(
439.01,
74,
c
),
(
412.428,
71,
l
),
(
412.428,
1,
l
),
(
468.009,
3,
o
),
(
555.811,
3,
o
),
(
604.948,
2,
c
)
);
},
{
closed = 1;
nodes = (
(
369.735,
332,
l
),
(
314.154,
357,
l
),
(
181.242,
163,
l
),
(
128.883,
86,
o
),
(
79.746,
80,
o
),
(
15.304,
72,
c
),
(
0,
70,
l
),
(
0,
0,
l
),
(
37.859,
2,
o
),
(
81.357,
3,
o
),
(
124.856,
3,
c
),
(
167.548,
3,
o
),
(
217.491,
2,
o
),
(
268.239,
0,
c
),
(
268.239,
70,
l
),
(
246.49,
73,
l
),
(
186.075,
81,
o
),
(
201.38,
100,
o
),
(
248.906,
170,
c
)
);
},
{
closed = 1;
nodes = (
(
550.978,
546,
l
),
(
603.337,
623,
o
),
(
653.279,
628,
o
),
(
717.721,
636,
c
),
(
733.026,
638,
l
),
(
733.026,
708,
l
),
(
695.166,
706,
o
),
(
651.668,
705,
o
),
(
608.17,
705,
c
),
(
565.477,
705,
o
),
(
515.535,
706,
o
),
(
464.787,
708,
c
),
(
464.787,
638,
l
),
(
486.536,
635,
l
),
(
546.95,
627,
o
),
(
530.84,
609,
o
),
(
483.314,
539,
c
),
(
377.79,
400,
l
),
(
433.371,
375,
l
)
);
}
);
width = 700;
}
);
metricRight = "=|";
unicode = 88;
}
{
color = 6;
glyphname = bracketleft;
kernRight = KO_bracketleft;
layers = (
{
guides = (
{
pos = (
641,
772
);
}
);
layerId = "DF17D77B-A5C4-4843-826A-BC0F1C4CB224";
shapes = (
{
closed = 1;
nodes = (
(
445,
-181,
l
),
(
445,
-180,
l
),
(
364,
-180,
l
),
(
364,
771,
l
),
(
445,
771,
l
),
(
445,
772,
l
),
(
274,
772,
l
),
(
274,
-181,
l
)
);
}
);
width = 700;
},
{
guides = (
{
pos = (
660,
772
);
}
);
layerId = "7300F074-2CFD-43CC-B20F-1BF1EAE6C2C7";
shapes = (
{
closed = 1;
nodes = (
(
464,
-181,
l
),
(
464,
-112,
l
),
(
383,
-112,
l
),
(
383,
703,
l
),
(
464,
703,
l
),
(
464,
772,
l
),
(
293,
772,
l
),
(
293,
-181,
l
)
);
}
);
width = 700;
},
{
guides = (
{
pos = (
634,
772
);
}
);
layerId = "F497C50F-30EB-4580-9148-0005B36D0333";
shapes = (
{
closed = 1;
nodes = (
(
474,
-181,
l
),
(
474,
-180,
l
),
(
433,
-180,
l
),
(
433,
771,
l
),
(
474,
771,
l
),
(
474,
772,
l
),
(
253,
772,
l
),
(
253,
-181,
l
)
);
}
);
width = 700;
},
{
guides = (
{
pos = (
644.5,
772
);
}
);
layerId = "29EF49B2-C370-4E88-B36E-A4ACD23E3F3A";
shapes = (
{
closed = 1;
nodes = (
(
484.5,
-181,
l
),
(
484.5,
-112,
l
),
(
443.5,
-112,
l
),
(
443.5,
703,
l
),
(
484.5,
703,
l
),
(
484.5,
772,
l
),
(
263.5,
772,
l
),
(
263.5,
-181,
l
)
);
}
);
width = 700;
}
);
unicode = 91;
userData = {
KernOnSpecialSpacing = {
L = parenthesis;
R = parenthesis;
};
};
}
{
color = 5;
glyphname = bracketright;
kernLeft = KO_bracketright;
layers = (
{
layerId = "DF17D77B-A5C4-4843-826A-BC0F1C4CB224";
shapes = (
{
closed = 1;
nodes = (
(
426,
772,
l
),
(
255,
772,
l
),
(
255,
771,
l
),
(
336,
771,
l
),
(
336,
-180,
l
),
(
255,
-180,
l
),
(
255,
-181,
l
),
(
426,
-181,
l
)
);
}
);
width = 700;
},
{
layerId = "7300F074-2CFD-43CC-B20F-1BF1EAE6C2C7";
shapes = (
{
closed = 1;
nodes = (
(
407,
772,
l
),
(
236,
772,
l
),
(
236,
703,
l
),
(
317,
703,
l
),
(
317,
-112,
l
),
(
236,
-112,
l
),
(
236,
-181,
l
),
(
407,
-181,
l
)
);
}
);
width = 700;
},
{
layerId = "F497C50F-30EB-4580-9148-0005B36D0333";
shapes = (
{
closed = 1;
nodes = (
(
447,
772,
l
),
(
226,
772,
l
),
(
226,
771,
l
),
(
267,
771,
l
),
(
267,
-180,
l
),
(
226,
-180,
l
),
(
226,
-181,
l
),
(
447,
-181,
l
)
);
}
);
width = 700;
},
{
layerId = "29EF49B2-C370-4E88-B36E-A4ACD23E3F3A";
shapes = (
{
closed = 1;
nodes = (
(
436.5,
772,
l
),
(
215.5,
772,
l
),
(
215.5,
703,
l
),
(
256.5,
703,
l
),
(
256.5,
-112,
l
),
(
215.5,
-112,
l
),
(
215.5,
-181,
l
),
(
436.5,
-181,
l
)
);
}
);
width = 700;
}
);
metricLeft = "=|bracketleft";
metricRight = "=|bracketleft";
unicode = 93;
userData = {
KernOnSpecialSpacing = {
L = parenthesis;
R = parenthesis;
};
};
}
{
color = 4;
glyphname = asciicircum;
layers = (
{
layerId = "DF17D77B-A5C4-4843-826A-BC0F1C4CB224";
shapes = (
{
closed = 1;
nodes = (
(
330.5,
443,
l
),
(
542.5,
323,
l
),
(
542.5,
324,
l
),
(
351.5,
539,
l
),
(
350.5,
539,
l
),
(
157.5,
322,
l
),
(
157.5,
321,
l
)
);
}
);
width = 700;
},
{
layerId = "7300F074-2CFD-43CC-B20F-1BF1EAE6C2C7";
shapes = (
{
closed = 1;
nodes = (
(
343,
408,
l
),
(
524,
300,
l
),
(
559,
358,
l
),
(
379,
514,
l
),
(
321,
514,
l
),
(
141,
348,
l
),
(
174,
299,
l
)
);
}
);
width = 700;
},
{
layerId = "F497C50F-30EB-4580-9148-0005B36D0333";
shapes = (
{
closed = 1;
nodes = (
(
320,
377,
l
),
(
550,
294,
l
),
(
550,
295,
l
),
(
350,
543,
l
),
(
349,
543,
l
),
(
150,
293,
l
),
(
150,
292,
l
)
);
}
);
width = 700;
},
{
layerId = "29EF49B2-C370-4E88-B36E-A4ACD23E3F3A";
shapes = (
{
closed = 1;
nodes = (
(
323,
377,
l
),
(
551,
290,
l
),
(
579,
341,
l
),
(
382,
533,
l
),
(
324,
533,
l
),
(
121,
341,
l
),
(
149,
290,
l
)
);
}
);
width = 700;
}
);
unicode = 94;
userData = {
KernOnSpecialSpacing = {
L = NoKerning;
R = NoKerning;
};
};
}
{
color = 5;
glyphname = a;
kernLeft = KO_a;
kernRight = KO_a;
layers = (
{
anchors = (
{
name = "^entry";
pos = (
60,
0
);
}
);
layerId = "DF17D77B-A5C4-4843-826A-BC0F1C4CB224";
shapes = (
{
closed = 1;
nodes = (
(
516,
256,
l
),
(
516,
351,
ls
),
(
516,
476,
o
),
(
470,
529,
o
),
(
357,
529,
cs
),
(
252,
529,
o
),
(
168,
477,
o
),
(
168,
412,
cs
),
(
168,
380,
o
),
(
188,
358,
o
),
(
218,
358,
cs
),
(
245,
358,
o
),
(
263,
375,
o
),
(
263,
399,
cs
),
(
263,
431,
o
),
(
233,
458,
o
),
(
233,
479,
cs
),
(
233,
504,
o
),
(
281,
526,
o
),
(
335,
526,
cs
),
(
396,
526,
o
),
(
426,
493,
o
),
(
426,
427,
cs
),
(
426,
256,
l
)
);
},
{
closed = 1;
nodes = (
(
341,
-14,
o
),
(
390,
15,
o
),
(
429,
80,
c
),
(
429,
82,
l
),
(
403,
39,
o
),
(
367,
16,
o
),
(
327,
16,
cs
),
(
275,
16,
o
),
(
242,
55,
o
),
(
242,
117,
cs
),
(
242,
258,
o
),
(
412,
262,
o
),
(
427,
333,
c
),
(
427,
345,
l
),
(
427,
240,
o
),
(
145,
281,
o
),
(
145,
105,
cs
),
(
145,
32,
o
),
(
195,
-14,
o
),
(
276,
-14,
cs
)
);
},
{
closed = 1;
nodes = (
(
516,
256,
l
),
(
426,
256,
l
),
(
426,
75,
l
),
(
426,
15,
o
),
(
454,
-14,
o
),
(
513,
-14,
c
),
(
555,
-14,
o
),
(
575,
2,
o
),
(
603,
23,
c
),
(
602,
24,
l
),
(
588,
14,
o
),
(
567,
-4,
o
),
(
545,
-4,
c
),
(
525,
-4,
o
),
(
516,
11,
o
),
(
516,
43,
c
)
);
}
);
width = 700;
},
{
anchors = (
{
name = "^entry";
pos = (
-83.5,
0
);
}
);
layerId = "7300F074-2CFD-43CC-B20F-1BF1EAE6C2C7";
shapes = (
{
closed = 1;
nodes = (
(
497.5,
256,
l
),
(
497.5,
351,
ls
),
(
497.5,
474,
o
),
(
443.5,
529,
o
),
(
321.5,
529,
cs
),
(
202.5,
529,
o
),
(
119.5,
475,
o
),
(
119.5,
396,
cs
),
(
119.5,
352,
o
),
(
145.5,
323,
o
),
(
184.5,
323,
cs
),
(
214.5,
323,
o
),
(
234.5,
340,
o
),
(
234.5,
367,
cs
),
(
234.5,
393,
o
),
(
214.5,
411,
o
),
(
214.5,
427,
cs
),
(
214.5,
446,
o
),
(
248.5,
459,
o
),
(
298.5,
459,
cs
),
(
371.5,
459,
o
),
(
407.5,
432,
o
),
(
407.5,
378,
cs
),
(
407.5,
256,
l
)
);
},
{
closed = 1;
nodes = (
(
329.5,
-14,
o
),
(
382.5,
22,
o
),
(
420.5,
98,
c
),
(
421.5,
173,
l
),
(
379.5,
106,
o
),
(
327.5,
69,
o
),
(
275.5,
69,
cs
),
(
231.5,
69,
o
),
(
203.5,
95,
o
),
(
203.5,
135,
cs
),
(
203.5,
239,
o
),
(
387.5,
222,
o
),
(
414.5,
270,
c
),
(
408.5,
351,
l
),
(
407.5,
266,
o
),
(
106.5,
318,
o
),
(
106.5,
127,
cs
),
(
106.5,
42,
o
),
(
166.5,
-14,
o
),
(
257.5,
-14,
cs
)
);
},
{
closed = 1;
nodes = (
(
497.5,
256,
l
),
(
407.5,
256,
l
),
(
407.5,
81,
l
),
(
407.5,
15,
o
),
(
436.5,
-14,
o
),
(
502.5,
-14,
c
),
(
554.5,
-14,
o
),
(
596.5,
4,
o
),
(
634.5,
43,
c
),
(
599.5,
100,
l
),
(
575.5,
80,
o
),
(
551.5,
69,
o
),
(
530.5,
69,
c
),
(
507.5,
69,
o
),
(
497.5,
83,
o
),
(
497.5,
116,
c
)
);
}
);
width = 700;
},
{
anchors = (
{
name = "^entry";
pos = (
39.5,
0
);
}
);
layerId = "F497C50F-30EB-4580-9148-0005B36D0333";
shapes = (
{
closed = 1;
nodes = (
(
565.5,
260,
l
),
(
565.5,
313,
ls
),
(
565.5,
475,
o
),
(
510.5,
533,
o
),
(
358.5,
533,
cs
),
(
214.5,
533,
o
),
(
122.5,
481,
o
),
(
122.5,
400,
cs
),
(
122.5,
352,
o
),
(
154.5,
322,
o
),
(
207.5,
322,
cs
),
(
256.5,
322,
o
),
(
289.5,
348,
o
),
(
289.5,
385,
cs
),
(
289.5,
430,
o
),
(
240.5,
461,
o
),
(
240.5,
492,
cs
),
(
240.5,
514,
o
),
(
266.5,
528,
o
),
(
307.5,
528,
cs
),
(
366.5,
528,
o
),
(
385.5,
497,
o
),
(
385.5,
402,
cs
),
(
385.5,
260,
l
)
);
},
{
closed = 1;
nodes = (
(
301.5,
-14,
o
),
(
353.5,
13,
o
),
(
386.5,
63,
c
),
(
386.5,
65,
l
),
(
376.5,
52,
o
),
(
363.5,
46,
o
),
(
346.5,
46,
cs
),
(
303.5,
46,
o
),
(
281.5,
76,
o
),
(
281.5,
131,
cs
),
(
281.5,
244,
o
),
(
379.5,
266,
o
),
(
386.5,
329,
c
),
(
386.5,
337,
l
),
(
385.5,
241,
o
),
(
94.5,
276,
o
),
(
94.5,
106,
cs
),
(
94.5,
32,
o
),
(
148.5,
-14,
o
),
(
235.5,
-14,
cs
)
);
},
{
closed = 1;
nodes = (
(
565.5,
260,
l
),
(
385.5,
260,
l
),
(
385.5,
67,
l
),
(
385.5,
13,
o
),
(
422.5,
-14,
o
),
(
498.5,
-14,
c
),
(
550.5,
-14,
o
),
(
593.5,
-1,
o
),
(
621.5,
23,
c
),
(
620.5,
24,
l
),
(
605.5,
12,
o
),
(
593.5,
6,
o
),
(
583.5,
6,
c
),
(
570.5,
6,
o
),
(
565.5,
17,
o
),
(
565.5,
46,
c
)
);
}
);
width = 700;
},
{
anchors = (
{
name = "^entry";
pos = (
-22,
0
);
}
);
guides = (
{
pos = (
59,
98
);
},
{
pos = (
85,
143
);
}
);
layerId = "29EF49B2-C370-4E88-B36E-A4ACD23E3F3A";
shapes = (
{
closed = 1;
nodes = (
(
550,
260,
l
),
(
550,
323,
ls
),
(
550,
469,
o
),
(
482,
533,
o
),
(
330,
533,
cs
),
(
188,
533,
o
),
(
96,
477,
o
),
(
96,
391,
cs
),
(
96,
341,
o
),
(
128,
312,
o
),
(
183,
312,
cs
),
(
230,
312,
o
),
(
263,
332,
o
),
(
263,
361,
cs
),
(
263,
384,
o
),
(
244,
410,
o
),
(
244,
431,
cs
),
(
244,
451,
o
),
(
263,
463,
o
),
(
296,
463,
cs
),
(
346,
463,
o
),
(
370,
436,
o
),
(
370,
381,
cs
),
(
370,
260,
l
)
);
},
{
closed = 1;
nodes = (
(
296,
-14,
o
),
(
348,
17,
o
),
(
385,
82,
c
),
(
384,
158,
l
),
(
362,
114,
o
),
(
342,
97,
o
),
(
315,
97,
cs
),
(
285,
97,
o
),
(
267,
117,
o
),
(
267,
151,
cs
),
(
267,
231,
o
),
(
362,
230,
o
),
(
376,
284,
c
),
(
371,
371,
l
),
(
370,
264,
o
),
(
80,
291,
o
),
(
80,
112,
cs
),
(
80,
34,
o
),
(
135,
-14,
o
),
(
224,
-14,
cs
)
);
},
{
closed = 1;
nodes = (
(
550,
260,
l
),
(
370,
260,
l
),
(
370,
101,
l
),
(
370,
20,
o
),
(
405,
-14,
o
),
(
491,
-14,
c
),
(
554,
-14,
o
),
(
613,
3,
o
),
(
646,
31,
c
),
(
621,
89,
l
),
(
611,
81,
o
),
(
600,
78,
o
),
(
583,
78,
c
),
(
558,
78,
o
),
(
550,
87,
o
),
(
550,
118,
c
)
);
}
);
width = 700;
},
{
anchors = (
{
name = bottom;
pos = (
335.5,
0
);
},
{
name = ogonek;
pos = (
554.5,
0
);
},
{
name = top;
pos = (
338.5,
519
);
},
{
name = top_low_1;
pos = (
338.5,
499
);
},
{
name = top_low_2;
pos = (
338.5,
479
);
},
{
name = top_low_3;
pos = (
338.5,
459
);
}
);
associatedMasterId = "29EF49B2-C370-4E88-B36E-A4ACD23E3F3A";
guides = (
{
pos = (
46.5,
98
);
},
{
pos = (
72.5,
143
);
}
);
layerId = "B50A8E10-6C5C-469E-B895-315E4B8F9E52";
name = "4 May 23 at 10:07";
shapes = (
{
closed = 1;
nodes = (
(
539.5,
-14,
o
),
(
598.5,
2,
o
),
(
633.5,
31,
c
),
(
608.5,
89,
l
),
(
597.5,
81,
o
),
(
586.5,
78,
o
),
(
569.5,
78,
cs
),
(
545.5,
78,
o
),
(
537.5,
88,
o
),
(
537.5,
118,
cs
),
(
537.5,
333,
ls
),
(
537.5,
477,
o
),
(
480.5,
533,
o
),
(
334.5,
533,
cs
),
(
193.5,
533,
o
),
(
109.5,
481,
o
),
(
109.5,
393,
cs
),
(
109.5,
342,
o
),
(
137.5,
312,
o
),
(
186.5,
312,
cs
),
(
227.5,
312,
o
),
(
256.5,
332,
o
),
(
256.5,
361,
cs
),
(
256.5,
384,
o
),
(
237.5,
411,
o
),
(
237.5,
430,
cs
),
(
237.5,
450,
o
),
(
257.5,
463,
o
),
(
290.5,
463,
cs
),
(
336.5,
463,
o
),
(
357.5,
437,
o
),
(
357.5,
381,
cs
),
(
357.5,
91,
ls
),
(
357.5,
15,
o
),
(
389.5,
-14,
o
),
(
473.5,
-14,
cs
)
);
},
{
closed = 1;
nodes = (
(
289.5,
-14,
o
),
(
337.5,
15,
o
),
(
372.5,
82,
c
),
(
371.5,
158,
l
),
(
349.5,
114,
o
),
(
332.5,
97,
o
),
(
307.5,
97,
cs
),
(
281.5,
97,
o
),
(
265.5,
117,
o
),
(
265.5,
151,
cs
),
(
265.5,
231,
o
),
(
350.5,
230,
o
),
(
363.5,
284,
c
),
(
358.5,
371,
l
),
(
357.5,
264,
o
),
(
91.5,
291,
o
),
(
91.5,
112,
cs
),
(
91.5,
35,
o
),
(
141.5,
-14,
o
),
(
222.5,
-14,
cs
)
);
}
);
width = 700;
},
{
anchors = (
{
name = "#entry";
pos = (
-51.5,
256
);
},
{
name = bottom;
pos = (
362.5,
0
);
},
{
name = center;
pos = (
354.5,
257
);
},
{
name = ogonek;
pos = (
581.5,
0
);
},
{
name = top;
pos = (
355.5,
512
);
},
{
name = top_low_1;
pos = (
355.5,
492
);
},
{
name = top_low_2;
pos = (
355.5,
472
);
},
{
name = top_low_3;
pos = (
355.5,
452
);
}
);
associatedMasterId = "DF17D77B-A5C4-4843-826A-BC0F1C4CB224";
hints = (
{
name = "_cap.a-tail";
origin = (
0,
23
);
type = Cap;
}
);
layerId = "5E19A6A6-9CE0-4FDF-B96D-0F0943DA820D";
name = "11 Aug 24 at 10:41";
shapes = (
{
closed = 1;
nodes = (
(
523.5,
351,
ls
),
(
523.5,
476,
o
),
(
477.5,
529,
o
),
(
364.5,
529,
cs
),
(
259.5,
529,
o
),
(
175.5,
477,
o
),
(
175.5,
412,
cs
),
(
175.5,
380,
o
),
(
195.5,
358,
o
),
(
225.5,
358,
cs
),
(
252.5,
358,
o
),
(
270.5,
375,
o
),
(
270.5,
399,
cs
),
(
270.5,
431,
o
),
(
240.5,
458,
o
),
(
240.5,
479,
cs
),
(
240.5,
504,
o
),
(
288.5,
526,
o
),
(
342.5,
526,
cs
),
(
403.5,
526,
o
),
(
433.5,
493,
o
),
(
433.5,
427,
cs
),
(
433.5,
75,
l
),
(
433.5,
15,
o
),
(
461.5,
-14,
o
),
(
520.5,
-14,
c
),
(
562.5,
-14,
o
),
(
582.5,
2,
o
),
(
610.5,
23,
c
),
(
609.5,
24,
l
),
(
595.5,
14,
o
),
(
574.5,
-4,
o
),
(
552.5,
-4,
c
),
(
532.5,
-4,
o
),
(
523.5,
11,
o
),
(
523.5,
43,
c
)
);
},
{
closed = 1;
nodes = (
(
348.5,
-14,
o
),
(
397.5,
15,
o
),
(
436.5,
80,
c
),
(
436.5,
82,
l
),
(
410.5,
39,
o
),
(
374.5,
16,
o
),
(
334.5,
16,
cs
),
(
282.5,
16,
o
),
(
249.5,
55,
o
),
(
249.5,
117,
cs
),
(
249.5,
258,
o
),
(
419.5,
262,
o
),
(
434.5,
333,
c
),
(
434.5,
345,
l
),
(
434.5,
240,
o
),
(
152.5,
281,
o
),
(
152.5,
105,
cs
),
(
152.5,
32,
o
),
(
202.5,
-14,
o
),
(
283.5,
-14,
cs
)
);
}
);
width = 700;
},
{
anchors = (
{
name = "#entry";
pos = (
-27,
260
);
},
{
name = bottom;
pos = (
368,
0
);
},
{
name = center;
pos = (
352,
259
);
},
{
name = ogonek;
pos = (
587,
0
);
},
{
name = top;
pos = (
352,
520
);
},
{
name = top_low_1;
pos = (
352,
500
);
},
{
name = top_low_2;
pos = (
352,
480
);
},
{
name = top_low_3;
pos = (
352,
460
);
}
);
associatedMasterId = "F497C50F-30EB-4580-9148-0005B36D0333";
hints = (
{
name = "_cap.a-tail";
origin = (
0,
23
);
type = Cap;
}
);
layerId = "A5453876-7ADA-481F-A112-56199DBED1E7";
name = "11 Aug 24 at 10:41";
shapes = (
{
closed = 1;
nodes = (
(
570,
313,
ls
),
(
570,
475,
o
),
(
515,
533,
o
),
(
363,
533,
cs
),
(
219,
533,
o
),
(
127,
481,
o
),
(
127,
400,
cs
),
(
127,
352,
o
),
(
159,
322,
o
),
(
212,
322,
cs
),
(
261,
322,
o
),
(
294,
348,
o
),
(
294,
385,
cs
),
(
294,
430,
o
),
(
245,
461,
o
),
(
245,
492,
cs
),
(
245,
514,
o
),
(
271,
528,
o
),
(
312,
528,
cs
),
(
371,
528,
o
),
(
390,
497,
o
),
(
390,
402,
cs
),
(
390,
67,
l
),
(
390,
13,
o
),
(
427,
-14,
o
),
(
503,
-14,
c
),
(
555,
-14,
o
),
(
598,
-1,
o
),
(
626,
23,
c
),
(
625,
24,
l
),
(
610,
12,
o
),
(
598,
6,
o
),
(
588,
6,
c
),
(
575,
6,
o
),
(
570,
17,
o
),
(
570,
46,
c
)
);
},
{
closed = 1;
nodes = (
(
306,
-14,
o
),
(
358,
13,
o
),
(
391,
63,
c
),
(
391,
65,
l
),
(
381,
52,
o
),
(
368,
46,
o
),
(
351,
46,
cs
),
(
308,
46,
o
),
(
286,
76,
o
),
(
286,
131,
cs
),
(
286,
244,
o
),
(
384,
266,
o
),
(
391,
329,
c
),
(
391,
337,
l
),
(
390,
241,
o
),
(
99,
276,
o
),
(
99,
106,
cs
),
(
99,
32,
o
),
(
153,
-14,
o
),
(
240,
-14,
cs
)
);
}
);
width = 700;
},
{
anchors = (
{
name = "#entry";
pos = (
-126.5,
256
);
},
{
name = bottom;
pos = (
348.5,
0
);
},
{
name = center;
pos = (
327.5,
257
);
},
{
name = ogonek;
pos = (
566.5,
0
);
},
{
name = top;
pos = (
327.5,
512
);
},
{
name = top_low_1;
pos = (
327.5,
492
);
},
{
name = top_low_2;
pos = (
327.5,
472
);
},
{
name = top_low_3;
pos = (
327.5,
452
);
}
);
associatedMasterId = "7300F074-2CFD-43CC-B20F-1BF1EAE6C2C7";
hints = (
{
name = "_cap.a-tail";
origin = (
0,
23
);
type = Cap;
}
);
layerId = "52D71A4B-A062-47C0-8ADE-4F0ACB1F0D1E";
name = "11 Aug 24 at 10:41";
shapes = (
{
closed = 1;
nodes = (
(
509.5,
351,
ls
),
(
509.5,
474,
o
),
(
455.5,
529,
o
),
(
333.5,
529,
cs
),
(
214.5,
529,
o
),
(
131.5,
475,
o
),
(
131.5,
396,
cs
),
(
131.5,
352,
o
),
(
157.5,
323,
o
),
(
196.5,
323,
cs
),
(
226.5,
323,
o
),
(
246.5,
340,
o
),
(
246.5,
367,
cs
),
(
246.5,
393,
o
),
(
226.5,
411,
o
),
(
226.5,
427,
cs
),
(
226.5,
446,
o
),
(
260.5,
459,
o
),
(
310.5,
459,
cs
),
(
383.5,
459,
o
),
(
419.5,
432,
o
),
(
419.5,
378,
cs
),
(
419.5,
81,
l
),
(
419.5,
15,
o
),
(
448.5,
-14,
o
),
(
514.5,
-14,
c
),
(
566.5,
-14,
o
),
(
608.5,
4,
o
),
(
646.5,
43,
c
),
(
611.5,
100,
l
),
(
587.5,
80,
o
),
(
563.5,
69,
o
),
(
542.5,
69,
c
),
(
519.5,
69,
o
),
(
509.5,
83,
o
),
(
509.5,
116,
c
)
);
},
{
closed = 1;
nodes = (
(
341.5,
-14,
o
),
(
394.5,
22,
o
),
(
432.5,
98,
c
),
(
433.5,
173,
l
),
(
391.5,
106,
o
),
(
339.5,
69,
o
),
(
287.5,
69,
cs
),
(
243.5,
69,
o
),
(
215.5,
95,
o
),
(
215.5,
135,
cs
),
(
215.5,
239,
o
),
(
399.5,
222,
o
),
(
426.5,
270,
c
),
(
420.5,
351,
l
),
(
419.5,
266,
o
),
(
118.5,
318,
o
),
(
118.5,
127,
cs
),
(
118.5,
42,
o
),
(
178.5,
-14,
o
),
(
269.5,
-14,
cs
)
);
}
);
width = 700;
},
{
anchors = (
{
name = "#entry";
pos = (
-76.5,
260
);
},
{
name = bottom;
pos = (
352.5,
0
);
},
{
name = center;
pos = (
347.5,
259
);
},
{
name = ogonek;
pos = (
571.5,
0
);
},
{
name = top;
pos = (
325.5,
520
);
},
{
name = top_low_1;
pos = (
325.5,
500
);
},
{
name = top_low_2;
pos = (
325.5,
480
);
},
{
name = top_low_3;
pos = (
325.5,
460
);
}
);
associatedMasterId = "29EF49B2-C370-4E88-B36E-A4ACD23E3F3A";
guides = (
{
pos = (
63.5,
98
);
},
{
pos = (
89.5,
143
);
}
);
hints = (
{
name = "_cap.a-tail";
origin = (
0,
23
);
type = Cap;
}
);
layerId = "A7619150-EB68-46CB-A328-3D2B39DE1039";
name = "11 Aug 24 at 10:41";
shapes = (
{
closed = 1;
nodes = (
(
554.5,
323,
ls
),
(
554.5,
469,
o
),
(
486.5,
533,
o
),
(
334.5,
533,
cs
),
(
192.5,
533,
o
),
(
100.5,
477,
o
),
(
100.5,
391,
cs
),
(
100.5,
341,
o
),
(
132.5,
312,
o
),
(
187.5,
312,
cs
),
(
234.5,
312,
o
),
(
267.5,
332,
o
),
(
267.5,
361,
cs
),
(
267.5,
384,
o
),
(
248.5,
410,
o
),
(
248.5,
431,
cs
),
(
248.5,
451,
o
),
(
267.5,
463,
o
),
(
300.5,
463,
cs
),
(
350.5,
463,
o
),
(
374.5,
436,
o
),
(
374.5,
381,
cs
),
(
374.5,
101,
l
),
(
374.5,
20,
o
),
(
409.5,
-14,
o
),
(
495.5,
-14,
c
),
(
558.5,
-14,
o
),
(
617.5,
3,
o
),
(
650.5,
31,
c
),
(
625.5,
89,
l
),
(
615.5,
81,
o
),
(
604.5,
78,
o
),
(
587.5,
78,
c
),
(
562.5,
78,
o
),
(
554.5,
87,
o
),
(
554.5,
118,
c
)
);
},
{
closed = 1;
nodes = (
(
300.5,
-14,
o
),
(
352.5,
17,
o
),
(
389.5,
82,
c
),
(
388.5,
158,
l
),
(
366.5,
114,
o
),
(
346.5,
97,
o
),
(
319.5,
97,
cs
),
(
289.5,
97,
o
),
(
271.5,
117,
o
),
(
271.5,
151,
cs
),
(
271.5,
231,
o
),
(
366.5,
230,
o
),
(
380.5,
284,
c
),
(
375.5,
371,
l
),
(
374.5,
264,
o
),
(
84.5,
291,
o
),
(
84.5,
112,
cs
),
(
84.5,
34,
o
),
(
139.5,
-14,
o
),
(
228.5,
-14,
cs
)
);
}
);
width = 700;
}
);
unicode = 97;
userData = {
KernOnName = a;
};
}
{
color = 5;
glyphname = b;
kernLeft = KO_b;
kernRight = KO_p;
layers = (
{
anchors = (
{
name = "#entry";
pos = (
246,
256
);
},
{
name = "#exit";
pos = (
246,
256
);
},
{
name = bottom;
pos = (
355,
0
);
},
{
name = center;
pos = (
363,
255
);
},
{
name = top;
pos = (
354,
771
);
},
{
name = "top-left";
pos = (
156,
512
);
}
);
layerId = "DF17D77B-A5C4-4843-826A-BC0F1C4CB224";
shapes = (
{
closed = 1;
nodes = (
(
246,
256,
l
),
(
246,
773,
l
),
(
246,
785,
l
),
(
218,
775,
o
),
(
181,
771,
o
),
(
140,
771,
c
),
(
124,
771,
o
),
(
111,
771,
o
),
(
80,
773,
c
),
(
80,
772,
l
),
(
89,
771,
l
),
(
141,
765,
o
),
(
156,
749,
o
),
(
156,
700,
c
),
(
156,
256,
l
)
);
},
{
closed = 1;
nodes = (
(
246,
0,
l
),
(
246,
256,
l
),
(
156,
256,
l
),
(
156,
50,
l
),
(
156,
17,
o
),
(
152,
-3,
o
),
(
143,
-18,
c
),
(
144,
-19,
l
),
(
163,
10,
o
),
(
203,
36,
o
),
(
246,
45,
c
)
);
},
{
closed = 1;
nodes = (
(
308,
526,
o
),
(
254,
483,
o
),
(
233,
431,
c
),
(
234,
431,
l
),
(
255,
478,
o
),
(
295,
511,
o
),
(
354,
511,
cs
),
(
443,
511,
o
),
(
495,
416,
o
),
(
495,
255,
cs
),
(
495,
91,
o
),
(
441,
-5,
o
),
(
348,
-5,
cs
),
(
289,
-5,
o
),
(
248,
29,
o
),
(
240,
60,
c
),
(
239,
61,
l
),
(
244,
30,
o
),
(
295,
-17,
o
),
(
371,
-17,
cs
),
(
508,
-17,
o
),
(
592,
83,
o
),
(
592,
255,
cs
),
(
592,
426,
o
),
(
516,
526,
o
),
(
391,
526,
cs
)
);
}
);
width = 700;
},
{
anchors = (
{
name = "#entry";
pos = (
270,
256
);
},
{
name = "#exit";
pos = (
270,
256
);
},
{
name = bottom;
pos = (
352,
0
);
},
{
name = center;
pos = (
385,
255
);
},
{
name = top;
pos = (
352,
773
);
},
{
name = "top-left";
pos = (
180,
512
);
}
);
layerId = "7300F074-2CFD-43CC-B20F-1BF1EAE6C2C7";
shapes = (
{
closed = 1;
nodes = (
(
270,
256,
l
),
(
270,
773,
l
),
(
270,
785,
l
),
(
230,
776,
o
),
(
179,
771,
o
),
(
112,
771,
c
),
(
87,
771,
o
),
(
62,
772,
o
),
(
44,
773,
c
),
(
44,
703,
l
),
(
99,
698,
l
),
(
158,
693,
o
),
(
180,
672,
o
),
(
180,
611,
c
),
(
180,
256,
l
)
);
},
{
closed = 1;
nodes = (
(
270,
0,
l
),
(
270,
256,
l
),
(
180,
256,
l
),
(
180,
165,
l
),
(
180,
101,
o
),
(
170,
76,
o
),
(
130,
44,
c
),
(
181,
-14,
l
),
(
210,
13,
o
),
(
239,
34,
o
),
(
270,
52,
c
)
);
},
{
closed = 1;
nodes = (
(
328,
526,
o
),
(
256,
465,
o
),
(
242,
375,
c
),
(
263,
336,
l
),
(
277,
402,
o
),
(
330,
446,
o
),
(
396,
446,
cs
),
(
477,
446,
o
),
(
519,
382,
o
),
(
519,
258,
cs
),
(
519,
127,
o
),
(
469,
56,
o
),
(
379,
56,
cs
),
(
326,
56,
o
),
(
286,
85,
o
),
(
269,
136,
c
),
(
246,
66,
l
),
(
274,
12,
o
),
(
325,
-17,
o
),
(
393,
-17,
cs
),
(
529,
-17,
o
),
(
616,
92,
o
),
(
616,
264,
cs
),
(
616,
422,
o
),
(
539,
526,
o
),
(
423,
526,
cs
)
);
}
);
width = 700;
},
{
anchors = (
{
name = "#entry";
pos = (
295,
260
);
},
{
name = "#exit";
pos = (
295,
260
);
},
{
name = bottom;
pos = (
362,
0
);
},
{
name = center;
pos = (
368,
261
);
},
{
name = top;
pos = (
362,
771
);
},
{
name = "top-left";
pos = (
115,
520
);
}
);
layerId = "F497C50F-30EB-4580-9148-0005B36D0333";
shapes = (
{
closed = 1;
nodes = (
(
295,
260,
l
),
(
295,
771,
l
),
(
295,
782,
l
),
(
247,
772,
o
),
(
204,
768,
o
),
(
159,
768,
c
),
(
129,
768,
o
),
(
100,
768,
o
),
(
59,
771,
c
),
(
59,
770,
l
),
(
67,
769,
l
),
(
104,
764,
o
),
(
115,
747,
o
),
(
115,
698,
c
),
(
115,
260,
l
)
);
},
{
closed = 1;
nodes = (
(
295,
0,
l
),
(
295,
260,
l
),
(
115,
260,
l
),
(
115,
49,
l
),
(
115,
16,
o
),
(
111,
-4,
o
),
(
102,
-19,
c
),
(
103,
-20,
l
),
(
141,
12,
o
),
(
231,
36,
o
),
(
295,
13,
c
)
);
},
{
closed = 1;
nodes = (
(
351,
534,
o
),
(
305,
505,
o
),
(
282,
440,
c
),
(
283,
439,
l
),
(
303,
492,
o
),
(
327,
507,
o
),
(
352,
507,
cs
),
(
412,
507,
o
),
(
434,
421,
o
),
(
434,
260,
cs
),
(
434,
81,
o
),
(
405,
2,
o
),
(
339,
2,
cs
),
(
315,
2,
o
),
(
293,
12,
o
),
(
279,
27,
c
),
(
279,
26,
l
),
(
300,
3,
o
),
(
341,
-13,
o
),
(
397,
-13,
cs
),
(
540,
-13,
o
),
(
621,
87,
o
),
(
621,
264,
cs
),
(
621,
434,
o
),
(
547,
534,
o
),
(
420,
534,
cs
)
);
}
);
width = 700;
},
{
anchors = (
{
name = "#entry";
pos = (
314.5,
260
);
},
{
name = "#exit";
pos = (
314.5,
260
);
},
{
name = bottom;
pos = (
362.5,
0
);
},
{
name = center;
pos = (
384.5,
261
);
},
{
name = top;
pos = (
363.5,
773
);
},
{
name = "top-left";
pos = (
134.5,
520
);
}
);
layerId = "29EF49B2-C370-4E88-B36E-A4ACD23E3F3A";
shapes = (
{
closed = 1;
nodes = (
(
314.5,
260,
l
),
(
314.5,
771,
l
),
(
314.5,
782,
l
),
(
269.5,
774,
o
),
(
215.5,
769,
o
),
(
143.5,
769,
c
),
(
103.5,
769,
o
),
(
77.5,
770,
o
),
(
48.5,
771,
c
),
(
48.5,
701,
l
),
(
72.5,
698,
l
),
(
125.5,
691,
o
),
(
134.5,
680,
o
),
(
134.5,
634,
c
),
(
134.5,
260,
l
)
);
},
{
closed = 1;
nodes = (
(
314.5,
0,
l
),
(
314.5,
260,
l
),
(
134.5,
260,
l
),
(
134.5,
163,
l
),
(
134.5,
103,
o
),
(
126.5,
75,
o
),
(
99.5,
44,
c
),
(
150.5,
-14,
l
),
(
188.5,
18,
o
),
(
253.5,
31,
o
),
(
314.5,
18,
c
)
);
},
{
closed = 1;
nodes = (
(
376.5,
534,
o
),
(
322.5,
499,
o
),
(
296.5,
427,
c
),
(
308.5,
375,
l
),
(
319.5,
407,
o
),
(
350.5,
432,
o
),
(
381.5,
432,
cs
),
(
431.5,
432,
o
),
(
453.5,
380,
o
),
(
453.5,
260,
cs
),
(
453.5,
131,
o
),
(
424.5,
73,
o
),
(
358.5,
73,
cs
),
(
334.5,
73,
o
),
(
312.5,
83,
o
),
(
298.5,
98,
c
),
(
287.5,
39,
l
),
(
310.5,
5,
o
),
(
355.5,
-13,
o
),
(
416.5,
-13,
cs
),
(
559.5,
-13,
o
),
(
640.5,
87,
o
),
(
640.5,
264,
cs
),
(
640.5,
433,
o
),
(
566.5,
534,
o
),
(
447.5,
534,
cs
)
);
}
);
width = 700;
}
);
metricRight = o;
unicode = 98;
}
{
color = 5;
glyphname = d;
kernLeft = KO_d;
kernRight = KO_l;
layers = (
{
anchors = (
{
name = "#entry";
pos = (
459,
256
);
},
{
name = "#exit";
pos = (
459,
256
);
},
{
name = "%entry";
pos = (
210,
0
);
},
{
name = "^entry";
pos = (
354,
0
);
},
{
name = "^exit";
pos = (
625,
0
);
},
{
name = bottom;
pos = (
382,
0
);
},
{
name = "bottom-right";
pos = (
549,
0
);
},
{
name = center;
pos = (
342,
257
);
},
{
name = stem;
pos = (
459,
256
);
}
);
guides = (
{
angle = 90;
pos = (
641,
0
);
}
);
layerId = "DF17D77B-A5C4-4843-826A-BC0F1C4CB224";
shapes = (
{
closed = 1;
nodes = (
(
397,
-14,
o
),
(
451,
29,
o
),
(
472,
81,
c
),
(
471,
81,
l
),
(
450,
34,
o
),
(
410,
1,
o
),
(
351,
1,
cs
),
(
262,
1,
o
),
(
210,
96,
o
),
(
210,
257,
cs
),
(
210,
421,
o
),
(
264,
517,
o
),
(
357,
517,
cs
),
(
416,
517,
o
),
(
457,
483,
o
),
(
465,
452,
c
),
(
466,
451,
l
),
(
461,
482,
o
),
(
410,
529,
o
),
(
334,
529,
cs
),
(
197,
529,
o
),
(
113,
429,
o
),
(
113,
257,
cs
),
(
113,
86,
o
),
(
189,
-14,
o
),
(
314,
-14,
cs
)
);
},
{
closed = 1;
nodes = (
(
459,
-12,
l
),
(
487,
-2,
o
),
(
524,
2,
o
),
(
565,
2,
c
),
(
581,
2,
o
),
(
594,
2,
o
),
(
625,
0,
c
),
(
625,
1,
l
),
(
616,
2,
l
),
(
564,
8,
o
),
(
549,
24,
o
),
(
549,
73,
c
),
(
549,
256,
l
),
(
459,
256,
l
),
(
459,
0,
l
)
);
},
{
closed = 1;
nodes = (
(
549,
256,
l
),
(
549,
773,
l
),
(
549,
785,
l
),
(
521,
775,
o
),
(
484,
771,
o
),
(
443,
771,
c
),
(
427,
771,
o
),
(
414,
771,
o
),
(
383,
773,
c
),
(
383,
772,
l
),
(
392,
771,
l
),
(
444,
765,
o
),
(
459,
749,
o
),
(
459,
700,
c
),
(
459,
256,
l
)
);
}
);
width = 700;
},
{
anchors = (
{
name = "#entry";
pos = (
435,
256
);
},
{
name = "#exit";
pos = (
435,
256
);
},
{
name = "%entry";
pos = (
97,
0
);
},
{
name = "^entry";
pos = (
259,
0
);
},
{
name = "^exit";
pos = (
611,
0
);
},
{
name = bottom;
pos = (
372,
0
);
},
{
name = "bottom-right";
pos = (
525,
0
);
},
{
name = center;
pos = (
320,
257
);
},
{
name = stem;
pos = (
435,
256
);
}
);
guides = (
{
angle = 90;
pos = (
672,
0
);
}
);
layerId = "7300F074-2CFD-43CC-B20F-1BF1EAE6C2C7";
shapes = (
{
closed = 1;
nodes = (
(
377,
-14,
o
),
(
449,
47,
o
),
(
463,
137,
c
),
(
442,
176,
l
),
(
428,
110,
o
),
(
375,
66,
o
),
(
309,
66,
cs
),
(
228,
66,
o
),
(
186,
130,
o
),
(
186,
252,
cs
),
(
186,
384,
o
),
(
235,
456,
o
),
(
324,
456,
cs
),
(
381,
456,
o
),
(
423,
426,
o
),
(
441,
375,
c
),
(
467,
420,
l
),
(
432,
495,
o
),
(
382,
529,
o
),
(
309,
529,
cs
),
(
177,
529,
o
),
(
89,
417,
o
),
(
89,
248,
cs
),
(
89,
90,
o
),
(
166,
-14,
o
),
(
282,
-14,
cs
)
);
},
{
closed = 1;
nodes = (
(
435,
-12,
l
),
(
475,
-3,
o
),
(
526,
2,
o
),
(
593,
2,
c
),
(
618,
2,
o
),
(
643,
1,
o
),
(
661,
0,
c
),
(
661,
70,
l
),
(
606,
75,
l
),
(
547,
80,
o
),
(
525,
101,
o
),
(
525,
162,
c
),
(
525,
256,
l
),
(
435,
256,
l
),
(
435,
0,
l
)
);
},
{
closed = 1;
nodes = (
(
525,
256,
l
),
(
525,
773,
l
),
(
525,
785,
l
),
(
485,
776,
o
),
(
434,
771,
o
),
(
367,
771,
c
),
(
342,
771,
o
),
(
317,
772,
o
),
(
299,
773,
c
),
(
299,
703,
l
),
(
354,
698,
l
),
(
413,
693,
o
),
(
435,
672,
o
),
(
435,
611,
c
),
(
435,
256,
l
)
);
}
);
width = 700;
},
{
anchors = (
{
name = "#entry";
pos = (
410,
260
);
},
{
name = "#exit";
pos = (
410,
260
);
},
{
name = "%entry";
pos = (
221,
0
);
},
{
name = "^entry";
pos = (
333,
0
);
},
{
name = "^exit";
pos = (
626,
0
);
},
{
name = bottom;
pos = (
387,
0
);
},
{
name = "bottom-right";
pos = (
590,
0
);
},
{
name = center;
pos = (
337,
259
);
},
{
name = stem;
pos = (
410,
260
);
}
);
guides = (
{
angle = 90;
pos = (
653,
0
);
}
);
layerId = "F497C50F-30EB-4580-9148-0005B36D0333";
shapes = (
{
closed = 1;
nodes = (
(
354,
-14,
o
),
(
400,
15,
o
),
(
423,
80,
c
),
(
422,
81,
l
),
(
402,
28,
o
),
(
378,
13,
o
),
(
353,
13,
cs
),
(
293,
13,
o
),
(
271,
99,
o
),
(
271,
260,
cs
),
(
271,
439,
o
),
(
300,
518,
o
),
(
366,
518,
cs
),
(
390,
518,
o
),
(
412,
508,
o
),
(
426,
493,
c
),
(
426,
494,
l
),
(
405,
517,
o
),
(
364,
533,
o
),
(
308,
533,
cs
),
(
165,
533,
o
),
(
84,
433,
o
),
(
84,
256,
cs
),
(
84,
86,
o
),
(
158,
-14,
o
),
(
285,
-14,
cs
)
);
},
{
closed = 1;
nodes = (
(
410,
-11,
l
),
(
458,
-1,
o
),
(
501,
3,
o
),
(
546,
3,
c
),
(
576,
3,
o
),
(
605,
3,
o
),
(
646,
0,
c
),
(
646,
1,
l
),
(
638,
2,
l
),
(
601,
7,
o
),
(
590,
24,
o
),
(
590,
73,
c
),
(
590,
260,
l
),
(
410,
260,
l
),
(
410,
0,
l
)
);
},
{
closed = 1;
nodes = (
(
590,
260,
l
),
(
590,
771,
l
),
(
590,
782,
l
),
(
542,
772,
o
),
(
499,
768,
o
),
(
454,
768,
c
),
(
424,
768,
o
),
(
395,
768,
o
),
(
354,
771,
c
),
(
354,
770,
l
),
(
362,
769,
l
),
(
399,
764,
o
),
(
410,
747,
o
),
(
410,
698,
c
),
(
410,
260,
l
)
);
}
);
width = 700;
},
{
anchors = (
{
name = "#entry";
pos = (
390.5,
260
);
},
{
name = "#exit";
pos = (
390.5,
260
);
},
{
name = "%entry";
pos = (
171.5,
0
);
},
{
name = "^entry";
pos = (
283.5,
0
);
},
{
name = "^exit";
pos = (
636.5,
0
);
},
{
name = bottom;
pos = (
377.5,
0
);
},
{
name = "bottom-right";
pos = (
570.5,
0
);
},
{
name = center;
pos = (
320.5,
259
);
},
{
name = stem;
pos = (
390.5,
260
);
}
);
guides = (
{
angle = 90;
pos = (
671.5,
0
);
}
);
layerId = "29EF49B2-C370-4E88-B36E-A4ACD23E3F3A";
shapes = (
{
closed = 1;
nodes = (
(
328.5,
-14,
o
),
(
382.5,
21,
o
),
(
408.5,
93,
c
),
(
396.5,
145,
l
),
(
385.5,
113,
o
),
(
354.5,
88,
o
),
(
323.5,
88,
cs
),
(
273.5,
88,
o
),
(
251.5,
140,
o
),
(
251.5,
260,
cs
),
(
251.5,
389,
o
),
(
280.5,
447,
o
),
(
346.5,
447,
cs
),
(
370.5,
447,
o
),
(
392.5,
437,
o
),
(
406.5,
422,
c
),
(
417.5,
481,
l
),
(
394.5,
515,
o
),
(
349.5,
533,
o
),
(
288.5,
533,
cs
),
(
145.5,
533,
o
),
(
64.5,
433,
o
),
(
64.5,
256,
cs
),
(
64.5,
87,
o
),
(
138.5,
-14,
o
),
(
257.5,
-14,
cs
)
);
},
{
closed = 1;
nodes = (
(
390.5,
-11,
l
),
(
435.5,
-3,
o
),
(
489.5,
2,
o
),
(
561.5,
2,
c
),
(
601.5,
2,
o
),
(
627.5,
1,
o
),
(
656.5,
0,
c
),
(
656.5,
70,
l
),
(
632.5,
73,
l
),
(
579.5,
80,
o
),
(
570.5,
91,
o
),
(
570.5,
137,
c
),
(
570.5,
260,
l
),
(
390.5,
260,
l
),
(
390.5,
0,
l
)
);
},
{
closed = 1;
nodes = (
(
570.5,
260,
l
),
(
570.5,
771,
l
),
(
570.5,
782,
l
),
(
525.5,
774,
o
),
(
471.5,
769,
o
),
(
399.5,
769,
c
),
(
359.5,
769,
o
),
(
333.5,
770,
o
),
(
304.5,
771,
c
),
(
304.5,
701,
l
),
(
328.5,
698,
l
),
(
381.5,
691,
o
),
(
390.5,
680,
o
),
(
390.5,
634,
c
),
(
390.5,
260,
l
)
);
}
);
width = 700;
}
);
metricLeft = o;
metricRight = l;
unicode = 100;
userData = {
KernOnName = d;
};
}
{
color = 5;
glyphname = f;
kernLeft = KO_f;
kernRight = KO_f;
layers = (
{
layerId = "DF17D77B-A5C4-4843-826A-BC0F1C4CB224";
shapes = (
{
closed = 1;
nodes = (
(
336.5,
3,
l
),
(
336.5,
3,
l
),
(
383.5,
3,
o
),
(
426.5,
1,
o
),
(
475.5,
0,
c
),
(
475.5,
1,
l
),
(
446.5,
3,
l
),
(
396.5,
7,
o
),
(
381.5,
23,
o
),
(
381.5,
73,
c
),
(
381.5,
256,
l
),
(
291.5,
256,
l
),
(
291.5,
73,
l
),
(
291.5,
23,
o
),
(
274.5,
6,
o
),
(
226.5,
2,
c
),
(
215.5,
1,
l
),
(
215.5,
0,
l
),
(
258.5,
1,
o
),
(
295.5,
3,
o
),
(
336.5,
3,
c
)
);
},
{
closed = 1;
nodes = (
(
381.5,
256,
l
),
(
381.5,
585,
l
),
(
381.5,
720,
o
),
(
418.5,
780,
o
),
(
502.5,
780,
c
),
(
532.5,
780,
o
),
(
551.5,
767,
o
),
(
551.5,
744,
c
),
(
551.5,
726,
o
),
(
521.5,
700,
o
),
(
521.5,
668,
c
),
(
521.5,
644,
o
),
(
539.5,
628,
o
),
(
564.5,
628,
c
),
(
594.5,
628,
o
),
(
616.5,
651,
o
),
(
616.5,
683,
c
),
(
616.5,
742,
o
),
(
563.5,
782,
o
),
(
489.5,
782,
c
),
(
362.5,
782,
o
),
(
291.5,
699,
o
),
(
291.5,
544,
c
),
(
291.5,
256,
l
)
);
},
{
closed = 1;
nodes = (
(
488.5,
511,
l
),
(
488.5,
512,
l
),
(
211.5,
512,
l
),
(
211.5,
511,
l
)
);
}
);
width = 700;
},
{
layerId = "7300F074-2CFD-43CC-B20F-1BF1EAE6C2C7";
shapes = (
{
closed = 1;
nodes = (
(
327,
3,
l
),
(
327,
3,
l
),
(
412,
3,
o
),
(
463,
1,
o
),
(
520,
0,
c
),
(
520,
70,
l
),
(
465,
75,
l
),
(
398,
81,
o
),
(
372,
101,
o
),
(
372,
162,
c
),
(
372,
256,
l
),
(
282,
256,
l
),
(
282,
162,
l
),
(
282,
101,
o
),
(
260,
80,
o
),
(
201,
75,
c
),
(
146,
70,
l
),
(
146,
0,
l
),
(
199,
1,
o
),
(
247,
3,
o
),
(
327,
3,
c
)
);
},
{
closed = 1;
nodes = (
(
372,
256,
l
),
(
372,
547,
l
),
(
372,
662,
o
),
(
413,
717,
o
),
(
498,
717,
c
),
(
526,
717,
o
),
(
537,
711,
o
),
(
537,
697,
c
),
(
537,
680,
o
),
(
517,
666,
o
),
(
517,
642,
c
),
(
517,
614,
o
),
(
537,
596,
o
),
(
568,
596,
c
),
(
612,
596,
o
),
(
642,
627,
o
),
(
642,
672,
c
),
(
642,
740,
o
),
(
585,
782,
o
),
(
492,
782,
c
),
(
356,
782,
o
),
(
282,
694,
o
),
(
282,
524,
c
),
(
282,
256,
l
)
);
},
{
closed = 1;
nodes = (
(
539,
442,
l
),
(
539,
512,
l
),
(
142,
512,
l
),
(
142,
442,
l
)
);
}
);
width = 700;
},
{
layerId = "F497C50F-30EB-4580-9148-0005B36D0333";
shapes = (
{
closed = 1;
nodes = (
(
351,
3,
l
),
(
351,
3,
l
),
(
394,
3,
o
),
(
434,
3,
o
),
(
515,
0,
c
),
(
515,
1,
l
),
(
496,
3,
l
),
(
454,
7,
o
),
(
441,
25,
o
),
(
441,
73,
c
),
(
441,
260,
l
),
(
261,
260,
l
),
(
261,
73,
l
),
(
261,
24,
o
),
(
250,
6,
o
),
(
215,
2,
c
),
(
205,
1,
l
),
(
205,
0,
l
),
(
277,
3,
o
),
(
313,
3,
o
),
(
351,
3,
c
)
);
},
{
closed = 1;
nodes = (
(
441,
260,
l
),
(
441,
619,
l
),
(
441,
728,
o
),
(
468,
778,
o
),
(
527,
778,
c
),
(
555,
778,
o
),
(
570,
768,
o
),
(
570,
750,
c
),
(
570,
719,
o
),
(
531,
680,
o
),
(
531,
637,
c
),
(
531,
603,
o
),
(
556,
581,
o
),
(
597,
581,
c
),
(
647,
581,
o
),
(
678,
613,
o
),
(
678,
664,
c
),
(
678,
736,
o
),
(
605,
782,
o
),
(
490,
782,
c
),
(
340,
782,
o
),
(
261,
694,
o
),
(
261,
527,
c
),
(
261,
260,
l
)
);
},
{
closed = 1;
nodes = (
(
548,
519,
l
),
(
548,
520,
l
),
(
201,
520,
l
),
(
201,
519,
l
)
);
}
);
width = 700;
},
{
layerId = "29EF49B2-C370-4E88-B36E-A4ACD23E3F3A";
shapes = (
{
closed = 1;
nodes = (
(
334.5,
3,
l
),
(
334.5,
3,
l
),
(
409.5,
3,
o
),
(
470.5,
1,
o
),
(
528.5,
0,
c
),
(
528.5,
70,
l
),
(
504.5,
73,
l
),
(
436.5,
82,
o
),
(
424.5,
91,
o
),
(
424.5,
137,
c
),
(
424.5,
260,
l
),
(
244.5,
260,
l
),
(
244.5,
137,
l
),
(
244.5,
91,
o
),
(
235.5,
80,
o
),
(
182.5,
73,
c
),
(
158.5,
70,
l
),
(
158.5,
0,
l
),
(
211.5,
1,
o
),
(
266.5,
3,
o
),
(
334.5,
3,
c
)
);
},
{
closed = 1;
nodes = (
(
424.5,
260,
l
),
(
424.5,
596,
l
),
(
424.5,
676,
o
),
(
451.5,
712,
o
),
(
510.5,
712,
c
),
(
538.5,
712,
o
),
(
553.5,
704,
o
),
(
553.5,
688,
c
),
(
553.5,
670,
o
),
(
529.5,
650,
o
),
(
529.5,
622,
c
),
(
529.5,
593,
o
),
(
551.5,
576,
o
),
(
589.5,
576,
c
),
(
645.5,
576,
o
),
(
681.5,
606,
o
),
(
681.5,
664,
c
),
(
681.5,
738,
o
),
(
618.5,
782,
o
),
(
498.5,
782,
c
),
(
331.5,
782,
o
),
(
244.5,
696,
o
),
(
244.5,
529,
c
),
(
244.5,
260,
l
)
);
},
{
closed = 1;
nodes = (
(
562.5,
450,
l
),
(
562.5,
520,
l
),
(
155.5,
520,
l
),
(
155.5,
450,
l
)
);
}
);
width = 700;
}
);
metricLeft = n;
unicode = 102;
userData = {
KernOnName = f;
};
}
{
glyphname = g;
kernLeft = KO_g;
kernRight = KO_g;
layers = (
{
anchors = (
{
name = bottom;
pos = (
340,
-231
);
},
{
name = center;
pos = (
337,
0
);
},
{
name = top;
pos = (
325,
512
);
}
);
guides = (
{
locked = 1;
pos = (
-101,
529
);
}
);
layerId = "DF17D77B-A5C4-4843-826A-BC0F1C4CB224";
shapes = (
{
closed = 1;
nodes = (
(
459,
-239,
o
),
(
571,
-151,
o
),
(
571,
-29,
cs
),
(
571,
55,
o
),
(
516,
100,
o
),
(
414,
100,
cs
),
(
299,
100,
ls
),
(
258,
100,
o
),
(
236,
116,
o
),
(
236,
146,
cs
),
(
236,
172,
o
),
(
252,
192,
o
),
(
291,
214,
c
),
(
289,
214,
l
),
(
219,
181,
o
),
(
182,
140,
o
),
(
182,
95,
cs
),
(
182,
45,
o
),
(
226,
16,
o
),
(
302,
16,
cs
),
(
386,
16,
ls
),
(
464,
16,
o
),
(
502,
-15,
o
),
(
502,
-77,
cs
),
(
502,
-167,
o
),
(
422,
-237,
o
),
(
319,
-237,
cs
),
(
231,
-237,
o
),
(
182,
-188,
o
),
(
182,
-101,
cs
),
(
182,
-42,
o
),
(
204,
7,
o
),
(
240,
27,
c
),
(
240,
28,
l
),
(
148,
-1,
o
),
(
100,
-50,
o
),
(
100,
-113,
cs
),
(
100,
-189,
o
),
(
180,
-239,
o
),
(
304,
-239,
cs
)
);
},
{
closed = 1;
nodes = (
(
419,
213,
o
),
(
484,
271,
o
),
(
484,
371,
cs
),
(
484,
471,
o
),
(
419,
529,
o
),
(
309,
529,
cs
),
(
199,
529,
o
),
(
134,
471,
o
),
(
134,
371,
cs
),
(
134,
271,
o
),
(
199,
213,
o
),
(
309,
213,
cs
)
);
},
{
closed = 1;
nodes = (
(
253,
214,
o
),
(
228,
263,
o
),
(
228,
371,
cs
),
(
228,
479,
o
),
(
253,
528,
o
),
(
309,
528,
cs
),
(
365,
528,
o
),
(
390,
479,
o
),
(
390,
371,
cs
),
(
390,
263,
o
),
(
365,
214,
o
),
(
309,
214,
cs
)
);
},
{
closed = 1;
nodes = (
(
598,
425,
o
),
(
612,
443,
o
),
(
612,
471,
cs
),
(
612,
507,
o
),
(
590,
529,
o
),
(
554,
529,
cs
),
(
508,
529,
o
),
(
455,
491,
o
),
(
435,
443,
c
),
(
437,
443,
l
),
(
452,
484,
o
),
(
501,
517,
o
),
(
513,
517,
cs
),
(
541,
517,
o
),
(
529,
425,
o
),
(
577,
425,
cs
)
);
}
);
width = 700;
},
{
anchors = (
{
name = bottom;
pos = (
324.5,
-231
);
},
{
name = center;
pos = (
331.5,
0
);
},
{
name = top;
pos = (
314.5,
512
);
}
);
guides = (
{
locked = 1;
pos = (
-116.5,
529
);
},
{
angle = 90;
pos = (
108.5,
145
);
}
);
layerId = "7300F074-2CFD-43CC-B20F-1BF1EAE6C2C7";
shapes = (
{
closed = 1;
nodes = (
(
441.5,
-239,
o
),
(
555.5,
-154,
o
),
(
555.5,
-37,
cs
),
(
555.5,
45,
o
),
(
499.5,
90,
o
),
(
398.5,
90,
cs
),
(
313.5,
90,
ls
),
(
274.5,
90,
o
),
(
255.5,
101,
o
),
(
255.5,
123,
cs
),
(
255.5,
143,
o
),
(
267.5,
159,
o
),
(
289.5,
172,
c
),
(
227.5,
181,
l
),
(
186.5,
156,
o
),
(
166.5,
127,
o
),
(
166.5,
93,
cs
),
(
166.5,
40,
o
),
(
217.5,
6,
o
),
(
296.5,
6,
cs
),
(
390.5,
6,
ls
),
(
435.5,
6,
o
),
(
456.5,
-13,
o
),
(
456.5,
-52,
cs
),
(
456.5,
-122,
o
),
(
389.5,
-172,
o
),
(
294.5,
-172,
cs
),
(
220.5,
-172,
o
),
(
176.5,
-141,
o
),
(
176.5,
-89,
cs
),
(
176.5,
-45,
o
),
(
206.5,
-4,
o
),
(
250.5,
15,
c
),
(
204.5,
51,
l
),
(
124.5,
14,
o
),
(
84.5,
-38,
o
),
(
84.5,
-103,
cs
),
(
84.5,
-187,
o
),
(
161.5,
-239,
o
),
(
286.5,
-239,
cs
)
);
},
{
closed = 1;
nodes = (
(
417.5,
163,
o
),
(
488.5,
231,
o
),
(
488.5,
346,
cs
),
(
488.5,
461,
o
),
(
417.5,
529,
o
),
(
298.5,
529,
cs
),
(
179.5,
529,
o
),
(
108.5,
461,
o
),
(
108.5,
346,
cs
),
(
108.5,
231,
o
),
(
179.5,
163,
o
),
(
298.5,
163,
cs
)
);
},
{
closed = 1;
nodes = (
(
232.5,
231,
o
),
(
202.5,
267,
o
),
(
202.5,
346,
cs
),
(
202.5,
425,
o
),
(
232.5,
461,
o
),
(
298.5,
461,
cs
),
(
364.5,
461,
o
),
(
394.5,
425,
o
),
(
394.5,
346,
cs
),
(
394.5,
267,
o
),
(
364.5,
231,
o
),
(
298.5,
231,
cs
)
);
},
{
closed = 1;
nodes = (
(
597.5,
375,
o
),
(
616.5,
403,
o
),
(
616.5,
448,
cs
),
(
616.5,
500,
o
),
(
591.5,
529,
o
),
(
548.5,
529,
cs
),
(
507.5,
529,
o
),
(
459.5,
502,
o
),
(
429.5,
463,
c
),
(
457.5,
416,
l
),
(
474.5,
436,
o
),
(
491.5,
449,
o
),
(
501.5,
449,
cs
),
(
525.5,
449,
o
),
(
516.5,
375,
o
),
(
566.5,
375,
cs
)
);
}
);
width = 700;
},
{
anchors = (
{
name = bottom;
pos = (
345,
-231
);
},
{
name = center;
pos = (
323,
0
);
},
{
name = top;
pos = (
311,
520
);
}
);
guides = (
{
locked = 1;
pos = (
-100,
533
);
}
);
layerId = "F497C50F-30EB-4580-9148-0005B36D0333";
shapes = (
{
closed = 1;
nodes = (
(
471,
-239,
o
),
(
596,
-152,
o
),
(
596,
-18,
cs
),
(
596,
78,
o
),
(
531,
130,
o
),
(
409,
130,
cs
),
(
302,
130,
ls
),
(
255,
130,
o
),
(
228,
147,
o
),
(
228,
178,
cs
),
(
228,
191,
o
),
(
232,
203,
o
),
(
244,
218,
c
),
(
243,
218,
l
),
(
163,
177,
o
),
(
127,
135,
o
),
(
127,
83,
cs
),
(
127,
23,
o
),
(
183,
-16,
o
),
(
267,
-16,
cs
),
(
351,
-16,
ls
),
(
419,
-16,
o
),
(
457,
-45,
o
),
(
457,
-97,
cs
),
(
457,
-179,
o
),
(
395,
-237,
o
),
(
306,
-237,
cs
),
(
227,
-237,
o
),
(
185,
-191,
o
),
(
185,
-105,
cs
),
(
185,
-65,
o
),
(
193,
-33,
o
),
(
205,
-7,
c
),
(
204,
-7,
l
),
(
109,
-32,
o
),
(
55,
-75,
o
),
(
55,
-130,
cs
),
(
55,
-197,
o
),
(
141,
-239,
o
),
(
277,
-239,
cs
)
);
},
{
closed = 1;
nodes = (
(
439,
213,
o
),
(
515,
271,
o
),
(
515,
373,
cs
),
(
515,
475,
o
),
(
439,
533,
o
),
(
308,
533,
cs
),
(
174,
533,
o
),
(
95,
473,
o
),
(
95,
373,
cs
),
(
95,
273,
o
),
(
174,
213,
o
),
(
308,
213,
cs
)
);
},
{
closed = 1;
nodes = (
(
274,
214,
o
),
(
249,
264,
o
),
(
249,
373,
cs
),
(
249,
482,
o
),
(
275,
532,
o
),
(
310,
532,
cs
),
(
345,
532,
o
),
(
371,
482,
o
),
(
371,
373,
cs
),
(
371,
264,
o
),
(
344,
214,
o
),
(
308,
214,
cs
)
);
},
{
closed = 1;
nodes = (
(
626,
406,
o
),
(
644,
430,
o
),
(
644,
465,
cs
),
(
644,
508,
o
),
(
618,
533,
o
),
(
575,
533,
cs
),
(
522,
533,
o
),
(
473,
496,
o
),
(
452,
440,
c
),
(
453,
440,
l
),
(
475,
493,
o
),
(
509,
514,
o
),
(
523,
514,
cs
),
(
551,
514,
o
),
(
545,
406,
o
),
(
600,
406,
cs
)
);
}
);
width = 700;
},
{
anchors = (
{
name = bottom;
pos = (
345,
-231
);
},
{
name = center;
pos = (
341,
0
);
},
{
name = top;
pos = (
311,
520
);
}
);
guides = (
{
locked = 1;
pos = (
-100,
533
);
}
);
layerId = "29EF49B2-C370-4E88-B36E-A4ACD23E3F3A";
shapes = (
{
closed = 1;
nodes = (
(
471,
-239,
o
),
(
596,
-152,
o
),
(
596,
-18,
cs
),
(
596,
78,
o
),
(
531,
130,
o
),
(
409,
130,
cs
),
(
327,
130,
ls
),
(
285,
130,
o
),
(
261,
144,
o
),
(
261,
169,
cs
),
(
261,
185,
o
),
(
269,
200,
o
),
(
293,
218,
c
),
(
234,
226,
l
),
(
160,
182,
o
),
(
127,
138,
o
),
(
127,
83,
cs
),
(
127,
23,
o
),
(
183,
-16,
o
),
(
267,
-16,
cs
),
(
391,
-16,
ls
),
(
437,
-16,
o
),
(
457,
-36,
o
),
(
457,
-73,
cs
),
(
457,
-131,
o
),
(
395,
-172,
o
),
(
306,
-172,
cs
),
(
227,
-172,
o
),
(
185,
-140,
o
),
(
185,
-82,
cs
),
(
185,
-50,
o
),
(
198,
-21,
o
),
(
223,
0,
c
),
(
188,
16,
l
),
(
102,
-12,
o
),
(
55,
-54,
o
),
(
55,
-115,
cs
),
(
55,
-180,
o
),
(
121,
-239,
o
),
(
277,
-239,
cs
)
);
},
{
closed = 1;
nodes = (
(
439,
213,
o
),
(
515,
271,
o
),
(
515,
373,
cs
),
(
515,
475,
o
),
(
439,
533,
o
),
(
308,
533,
cs
),
(
174,
533,
o
),
(
95,
473,
o
),
(
95,
373,
cs
),
(
95,
273,
o
),
(
174,
213,
o
),
(
308,
213,
cs
)
);
},
{
closed = 1;
nodes = (
(
275,
281,
o
),
(
259,
310,
o
),
(
259,
373,
cs
),
(
259,
436,
o
),
(
275,
465,
o
),
(
310,
465,
cs
),
(
345,
465,
o
),
(
361,
436,
o
),
(
361,
373,
cs
),
(
361,
310,
o
),
(
345,
281,
o
),
(
310,
281,
cs
)
);
},
{
closed = 1;
nodes = (
(
622,
381,
o
),
(
644,
411,
o
),
(
644,
455,
cs
),
(
644,
504,
o
),
(
610,
533,
o
),
(
562,
533,
cs
),
(
515,
533,
o
),
(
475,
508,
o
),
(
442,
470,
c
),
(
473,
408,
l
),
(
486,
433,
o
),
(
502,
450,
o
),
(
514,
450,
cs
),
(
554,
450,
o
),
(
539,
381,
o
),
(
590,
381,
cs
)
);
}
);
width = 700;
},
{
anchors = (
{
name = bottom;
pos = (
361,
-231
);
},
{
name = center;
pos = (
357,
0
);
},
{
name = top;
pos = (
327,
520
);
}
);
associatedMasterId = "29EF49B2-C370-4E88-B36E-A4ACD23E3F3A";
attr = {
axisRules = (
{
max = 400;
},
{},
{}
);
};
guides = (
{
locked = 1;
pos = (
-84,
533
);
}
);
layerId = "5A668A61-ABA6-4596-B52B-4E966B495C4B";
name = "10 Jan 22, 16:31";
shapes = (
{
closed = 1;
nodes = (
(
487,
-239,
o
),
(
612,
-152,
o
),
(
612,
-18,
cs
),
(
612,
78,
o
),
(
547,
130,
o
),
(
425,
130,
cs
),
(
343,
130,
ls
),
(
301,
130,
o
),
(
277,
144,
o
),
(
277,
169,
cs
),
(
277,
185,
o
),
(
285,
200,
o
),
(
309,
218,
c
),
(
250,
226,
l
),
(
176,
182,
o
),
(
143,
138,
o
),
(
143,
83,
cs
),
(
143,
23,
o
),
(
199,
-16,
o
),
(
283,
-16,
cs
),
(
407,
-16,
ls
),
(
453,
-16,
o
),
(
473,
-36,
o
),
(
473,
-73,
cs
),
(
473,
-131,
o
),
(
411,
-172,
o
),
(
322,
-172,
cs
),
(
243,
-172,
o
),
(
201,
-140,
o
),
(
201,
-82,
cs
),
(
201,
-50,
o
),
(
214,
-21,
o
),
(
239,
0,
c
),
(
204,
16,
l
),
(
118,
-12,
o
),
(
71,
-54,
o
),
(
71,
-115,
cs
),
(
71,
-180,
o
),
(
137,
-239,
o
),
(
293,
-239,
cs
)
);
},
{
closed = 1;
nodes = (
(
455,
213,
o
),
(
531,
271,
o
),
(
531,
373,
cs
),
(
531,
475,
o
),
(
455,
533,
o
),
(
324,
533,
cs
),
(
190,
533,
o
),
(
111,
473,
o
),
(
111,
373,
cs
),
(
111,
273,
o
),
(
190,
213,
o
),
(
324,
213,
cs
)
);
},
{
closed = 1;
nodes = (
(
291,
281,
o
),
(
275,
310,
o
),
(
275,
373,
cs
),
(
275,
436,
o
),
(
291,
465,
o
),
(
326,
465,
cs
),
(
361,
465,
o
),
(
377,
436,
o
),
(
377,
373,
cs
),
(
377,
310,
o
),
(
361,
281,
o
),
(
326,
281,
cs
)
);
},
{
closed = 1;
nodes = (
(
628,
449,
l
),
(
628,
519,
l
),
(
346,
519,
l
),
(
436,
449,
l
)
);
}
);
width = 700;
},
{
anchors = (
{
name = bottom;
pos = (
336.5,
-231
);
},
{
name = center;
pos = (
343.5,
0
);
},
{
name = top;
pos = (
316.5,
512
);
}
);
associatedMasterId = "7300F074-2CFD-43CC-B20F-1BF1EAE6C2C7";
attr = {
axisRules = (
{
max = 400;
},
{},
{}
);
};
guides = (
{
locked = 1;
pos = (
-104.5,
529
);
},
{
angle = 90;
pos = (
120.5,
145
);
}
);
layerId = "5FEF5780-7366-4B2D-AC97-FFC009EC8B74";
name = "10 Jan 22, 16:31";
shapes = (
{
closed = 1;
nodes = (
(
453.5,
-239,
o
),
(
567.5,
-154,
o
),
(
567.5,
-37,
cs
),
(
567.5,
45,
o
),
(
511.5,
90,
o
),
(
410.5,
90,
cs
),
(
325.5,
90,
ls
),
(
286.5,
90,
o
),
(
267.5,
101,
o
),
(
267.5,
123,
cs
),
(
267.5,
143,
o
),
(
279.5,
159,
o
),
(
301.5,
172,
c
),
(
239.5,
181,
l
),
(
198.5,
156,
o
),
(
178.5,
127,
o
),
(
178.5,
93,
cs
),
(
178.5,
40,
o
),
(
229.5,
6,
o
),
(
308.5,
6,
cs
),
(
402.5,
6,
ls
),
(
447.5,
6,
o
),
(
468.5,
-13,
o
),
(
468.5,
-52,
cs
),
(
468.5,
-122,
o
),
(
401.5,
-172,
o
),
(
306.5,
-172,
cs
),
(
232.5,
-172,
o
),
(
188.5,
-141,
o
),
(
188.5,
-89,
cs
),
(
188.5,
-45,
o
),
(
218.5,
-4,
o
),
(
262.5,
15,
c
),
(
216.5,
51,
l
),
(
136.5,
14,
o
),
(
96.5,
-38,
o
),
(
96.5,
-103,
cs
),
(
96.5,
-187,
o
),
(
173.5,
-239,
o
),
(
298.5,
-239,
cs
)
);
},
{
closed = 1;
nodes = (
(
429.5,
163,
o
),
(
500.5,
231,
o
),
(
500.5,
346,
cs
),
(
500.5,
461,
o
),
(
429.5,
529,
o
),
(
310.5,
529,
cs
),
(
191.5,
529,
o
),
(
120.5,
461,
o
),
(
120.5,
346,
cs
),
(
120.5,
231,
o
),
(
191.5,
163,
o
),
(
310.5,
163,
cs
)
);
},
{
closed = 1;
nodes = (
(
244.5,
231,
o
),
(
214.5,
267,
o
),
(
214.5,
346,
cs
),
(
214.5,
425,
o
),
(
244.5,
461,
o
),
(
310.5,
461,
cs
),
(
376.5,
461,
o
),
(
406.5,
425,
o
),
(
406.5,
346,
cs
),
(
406.5,
267,
o
),
(
376.5,
231,
o
),
(
310.5,
231,
cs
)
);
},
{
closed = 1;
nodes = (
(
604.5,
444,
l
),
(
604.5,
514,
l
),
(
332.5,
514,
l
),
(
422.5,
444,
l
)
);
}
);
width = 700;
},
{
anchors = (
{
name = bottom;
pos = (
356.5,
-231
);
},
{
name = center;
pos = (
334.5,
0
);
},
{
name = top;
pos = (
322.5,
520
);
}
);
associatedMasterId = "F497C50F-30EB-4580-9148-0005B36D0333";
attr = {
axisRules = (
{
max = 400;
},
{},
{}
);
};
guides = (
{
locked = 1;
pos = (
-88.5,
533
);
}
);
layerId = "D84007D0-4D29-4B81-AFA0-2BC7FDFFFC11";
name = "10 Jan 22, 16:31";
shapes = (
{
closed = 1;
nodes = (
(
482.5,
-239,
o
),
(
607.5,
-152,
o
),
(
607.5,
-18,
cs
),
(
607.5,
78,
o
),
(
542.5,
130,
o
),
(
420.5,
130,
cs
),
(
313.5,
130,
ls
),
(
266.5,
130,
o
),
(
239.5,
147,
o
),
(
239.5,
178,
cs
),
(
239.5,
191,
o
),
(
243.5,
203,
o
),
(
255.5,
218,
c
),
(
254.5,
218,
l
),
(
174.5,
177,
o
),
(
138.5,
135,
o
),
(
138.5,
83,
cs
),
(
138.5,
23,
o
),
(
194.5,
-16,
o
),
(
278.5,
-16,
cs
),
(
362.5,
-16,
ls
),
(
430.5,
-16,
o
),
(
468.5,
-45,
o
),
(
468.5,
-97,
cs
),
(
468.5,
-179,
o
),
(
406.5,
-237,
o
),
(
317.5,
-237,
cs
),
(
238.5,
-237,
o
),
(
196.5,
-191,
o
),
(
196.5,
-105,
cs
),
(
196.5,
-65,
o
),
(
204.5,
-33,
o
),
(
216.5,
-7,
c
),
(
215.5,
-7,
l
),
(
120.5,
-32,
o
),
(
66.5,
-75,
o
),
(
66.5,
-130,
cs
),
(
66.5,
-197,
o
),
(
152.5,
-239,
o
),
(
288.5,
-239,
cs
)
);
},
{
closed = 1;
nodes = (
(
450.5,
213,
o
),
(
526.5,
271,
o
),
(
526.5,
373,
cs
),
(
526.5,
475,
o
),
(
450.5,
533,
o
),
(
319.5,
533,
cs
),
(
185.5,
533,
o
),
(
106.5,
473,
o
),
(
106.5,
373,
cs
),
(
106.5,
273,
o
),
(
185.5,
213,
o
),
(
319.5,
213,
cs
)
);
},
{
closed = 1;
nodes = (
(
285.5,
214,
o
),
(
260.5,
264,
o
),
(
260.5,
373,
cs
),
(
260.5,
482,
o
),
(
286.5,
532,
o
),
(
321.5,
532,
cs
),
(
356.5,
532,
o
),
(
382.5,
482,
o
),
(
382.5,
373,
cs
),
(
382.5,
264,
o
),
(
355.5,
214,
o
),
(
319.5,
214,
cs
)
);
},
{
closed = 1;
nodes = (
(
632.5,
518,
l
),
(
632.5,
519,
l
),
(
382.5,
519,
l
),
(
384.5,
518,
l
)
);
}
);
width = 700;
},
{
anchors = (
{
name = bottom;
pos = (
348,
-226
);
},
{
name = center;
pos = (
345,
0
);
},
{
name = top;
pos = (
333,
512
);
}
);
associatedMasterId = "DF17D77B-A5C4-4843-826A-BC0F1C4CB224";
attr = {
axisRules = (
{
max = 400;
},
{},
{}
);
};
guides = (
{
locked = 1;
pos = (
-93,
529
);
}
);
layerId = "D65B4FB1-5C9E-4BC6-92B5-B53B688E527F";
name = "10 Jan 22, 16:31";
shapes = (
{
closed = 1;
nodes = (
(
467,
-239,
o
),
(
579,
-151,
o
),
(
579,
-29,
cs
),
(
579,
55,
o
),
(
524,
100,
o
),
(
422,
100,
cs
),
(
307,
100,
ls
),
(
266,
100,
o
),
(
244,
116,
o
),
(
244,
146,
cs
),
(
244,
172,
o
),
(
260,
192,
o
),
(
299,
214,
c
),
(
297,
214,
l
),
(
227,
181,
o
),
(
190,
140,
o
),
(
190,
95,
cs
),
(
190,
45,
o
),
(
234,
16,
o
),
(
310,
16,
cs
),
(
394,
16,
ls
),
(
472,
16,
o
),
(
510,
-15,
o
),
(
510,
-77,
cs
),
(
510,
-167,
o
),
(
430,
-237,
o
),
(
327,
-237,
cs
),
(
239,
-237,
o
),
(
190,
-188,
o
),
(
190,
-101,
cs
),
(
190,
-42,
o
),
(
212,
7,
o
),
(
248,
27,
c
),
(
248,
28,
l
),
(
156,
-1,
o
),
(
108,
-50,
o
),
(
108,
-113,
cs
),
(
108,
-189,
o
),
(
188,
-239,
o
),
(
312,
-239,
cs
)
);
},
{
closed = 1;
nodes = (
(
427,
213,
o
),
(
492,
271,
o
),
(
492,
371,
cs
),
(
492,
471,
o
),
(
427,
529,
o
),
(
317,
529,
cs
),
(
207,
529,
o
),
(
142,
471,
o
),
(
142,
371,
cs
),
(
142,
271,
o
),
(
207,
213,
o
),
(
317,
213,
cs
)
);
},
{
closed = 1;
nodes = (
(
261,
214,
o
),
(
236,
263,
o
),
(
236,
371,
cs
),
(
236,
479,
o
),
(
261,
528,
o
),
(
317,
528,
cs
),
(
373,
528,
o
),
(
398,
479,
o
),
(
398,
371,
cs
),
(
398,
263,
o
),
(
373,
214,
o
),
(
317,
214,
cs
)
);
},
{
closed = 1;
nodes = (
(
604,
513,
l
),
(
604,
514,
l
),
(
382,
514,
l
),
(
384,
513,
l
)
);
}
);
width = 700;
}
);
unicode = 103;
userData = {
KernOnName = g;
};
}
{
color = 5;
glyphname = i;
kernLeft = KO_i;
kernRight = KO_i;
layers = (
{
layerId = "DF17D77B-A5C4-4843-826A-BC0F1C4CB224";
shapes = (
{
closed = 1;
nodes = (
(
395,
256,
l
),
(
395,
514,
l
),
(
395,
526,
l
),
(
367,
516,
o
),
(
330,
512,
o
),
(
289,
512,
c
),
(
273,
512,
o
),
(
260,
512,
o
),
(
229,
514,
c
),
(
229,
513,
l
),
(
238,
512,
l
),
(
290,
506,
o
),
(
305,
490,
o
),
(
305,
441,
c
),
(
305,
256,
l
)
);
},
{
closed = 1;
nodes = (
(
350,
3,
l
),
(
350,
3,
l
),
(
391,
3,
o
),
(
428,
1,
o
),
(
471,
0,
c
),
(
471,
1,
l
),
(
460,
2,
l
),
(
412,
6,
o
),
(
395,
23,
o
),
(
395,
73,
c
),
(
395,
256,
l
),
(
305,
256,
l
),
(
305,
73,
l
),
(
305,
23,
o
),
(
288,
6,
o
),
(
240,
2,
c
),
(
229,
1,
l
),
(
229,
0,
l
),
(
272,
1,
o
),
(
309,
3,
o
),
(
350,
3,
c
)
);
},
{
closed = 1;
nodes = (
(
379,
647,
o
),
(
403,
671,
o
),
(
403,
701,
cs
),
(
403,
731,
o
),
(
379,
755,
o
),
(
350,
755,
cs
),
(
320,
755,
o
),
(
296,
731,
o
),
(
296,
701,
cs
),
(
296,
671,
o
),
(
320,
647,
o
),
(
350,
647,
cs
)
);
}
);
width = 700;
},
{
layerId = "7300F074-2CFD-43CC-B20F-1BF1EAE6C2C7";
shapes = (
{
closed = 1;
nodes = (
(
395,
256,
l
),
(
395,
514,
l
),
(
395,
526,
l
),
(
355,
517,
o
),
(
304,
512,
o
),
(
237,
512,
c
),
(
212,
512,
o
),
(
187,
513,
o
),
(
169,
514,
c
),
(
169,
444,
l
),
(
224,
439,
l
),
(
283,
434,
o
),
(
305,
413,
o
),
(
305,
352,
c
),
(
305,
256,
l
)
);
},
{
closed = 1;
nodes = (
(
350,
3,
l
),
(
350,
3,
l
),
(
430,
3,
o
),
(
478,
1,
o
),
(
531,
0,
c
),
(
531,
70,
l
),
(
476,
75,
l
),
(
417,
80,
o
),
(
395,
101,
o
),
(
395,
162,
c
),
(
395,
256,
l
),
(
305,
256,
l
),
(
305,
162,
l
),
(
305,
101,
o
),
(
283,
80,
o
),
(
224,
75,
c
),
(
169,
70,
l
),
(
169,
0,
l
),
(
222,
1,
o
),
(
270,
3,
o
),
(
350,
3,
c
)
);
},
{
closed = 1;
nodes = (
(
391,
626,
o
),
(
425,
660,
o
),
(
425,
701,
cs
),
(
425,
742,
o
),
(
391,
776,
o
),
(
350,
776,
cs
),
(
309,
776,
o
),
(
275,
742,
o
),
(
275,
701,
cs
),
(
275,
660,
o
),
(
309,
626,
o
),
(
350,
626,
cs
)
);
}
);
width = 700;
},
{
layerId = "F497C50F-30EB-4580-9148-0005B36D0333";
shapes = (
{
closed = 1;
nodes = (
(
440,
260,
l
),
(
440,
519,
l
),
(
440,
530,
l
),
(
392,
520,
o
),
(
349,
516,
o
),
(
304,
516,
c
),
(
274,
516,
o
),
(
245,
516,
o
),
(
204,
519,
c
),
(
204,
518,
l
),
(
212,
517,
l
),
(
249,
512,
o
),
(
260,
495,
o
),
(
260,
446,
c
),
(
260,
260,
l
)
);
},
{
closed = 1;
nodes = (
(
350,
3,
l
),
(
350,
3,
l
),
(
388,
3,
o
),
(
424,
3,
o
),
(
496,
0,
c
),
(
496,
1,
l
),
(
486,
2,
l
),
(
451,
6,
o
),
(
440,
24,
o
),
(
440,
73,
c
),
(
440,
260,
l
),
(
260,
260,
l
),
(
260,
73,
l
),
(
260,
24,
o
),
(
249,
6,
o
),
(
214,
2,
c
),
(
204,
1,
l
),
(
204,
0,
l
),
(
276,
3,
o
),
(
312,
3,
o
),
(
350,
3,
c
)
);
},
{
closed = 1;
nodes = (
(
398,
607,
o
),
(
448,
637,
o
),
(
448,
696,
cs
),
(
448,
755,
o
),
(
398,
785,
o
),
(
350,
785,
cs
),
(
301,
785,
o
),
(
252,
755,
o
),
(
252,
696,
cs
),
(
252,
637,
o
),
(
301,
607,
o
),
(
350,
607,
cs
)
);
}
);
width = 700;
},
{
layerId = "29EF49B2-C370-4E88-B36E-A4ACD23E3F3A";
shapes = (
{
closed = 1;
nodes = (
(
440,
260,
l
),
(
440,
519,
l
),
(
440,
530,
l
),
(
395,
522,
o
),
(
341,
517,
o
),
(
269,
517,
c
),
(
229,
517,
o
),
(
203,
518,
o
),
(
174,
519,
c
),
(
174,
449,
l
),
(
198,
446,
l
),
(
251,
439,
o
),
(
260,
428,
o
),
(
260,
382,
c
),
(
260,
260,
l
)
);
},
{
closed = 1;
nodes = (
(
350,
3,
l
),
(
350,
3,
l
),
(
418,
3,
o
),
(
473,
1,
o
),
(
526,
0,
c
),
(
526,
70,
l
),
(
502,
73,
l
),
(
449,
80,
o
),
(
440,
91,
o
),
(
440,
137,
c
),
(
440,
260,
l
),
(
260,
260,
l
),
(
260,
137,
l
),
(
260,
91,
o
),
(
251,
80,
o
),
(
198,
73,
c
),
(
174,
70,
l
),
(
174,
0,
l
),
(
227,
1,
o
),
(
282,
3,
o
),
(
350,
3,
c
)
);
},
{
closed = 1;
nodes = (
(
413,
603,
o
),
(
464,
635,
o
),
(
464,
696,
cs
),
(
464,
757,
o
),
(
413,
789,
o
),
(
350,
789,
cs
),
(
286,
789,
o
),
(
236,
757,
o
),
(
236,
696,
cs
),
(
236,
635,
o
),
(
286,
603,
o
),
(
350,
603,
cs
)
);
}
);
width = 700;
}
);
unicode = 105;
userData = {
KernOnName = i;
};
}
